<?xml version="1.0" standalone="no"?>
<!DOCTYPE svg PUBLIC "-//W3C//DTD SVG 1.1//EN" "http://www.w3.org/Graphics/SVG/1.1/DTD/svg11.dtd" >
<svg>
<metadata>
Created by FontForge 20120731 at Tue Sep 24 23:12:33 2019
 By www
 Copyright (c)2014 Talbot Type. All Rights Reserved
</metadata>
<defs>
<font id="Kamerik205-Bold" horiz-adv-x="536" >
  <font-face 
    font-family="Kamerik 205"
    font-weight="700"
    font-stretch="normal"
    units-per-em="2048"
    panose-1="2 11 8 3 3 6 0 2 0 4"
    ascent="1638"
    descent="-410"
    x-height="1186"
    cap-height="1536"
    bbox="-29 -418 2548 1892"
    underline-thickness="57"
    underline-position="-148"
    unicode-range="U+0020-FB04"
  />
<missing-glyph horiz-adv-x="748" 
d="M68 0v1365h544v-1365h-544zM136 68h408v1229h-408v-1229z" />
    <glyph glyph-name=".notdef" horiz-adv-x="748" 
d="M68 0v1365h544v-1365h-544zM136 68h408v1229h-408v-1229z" />
    <glyph glyph-name="glyph1" horiz-adv-x="0" 
 />
    <glyph glyph-name="glyph2" horiz-adv-x="682" 
 />
    <glyph glyph-name="space" unicode=" " horiz-adv-x="552" 
 />
    <glyph glyph-name="exclam" unicode="!" horiz-adv-x="548" 
d="M117 143q0 64 46 109t111 45t111.5 -45t46.5 -109q0 -67 -46.5 -112t-111.5 -45t-111 45t-46 112zM123 418v1118h260v-1118h-260z" />
    <glyph glyph-name="quotedbl" unicode="&#x22;" horiz-adv-x="632" 
d="M102 977v559h150v-559h-150zM383 977v559h147v-559h-147z" />
    <glyph glyph-name="numbersign" unicode="#" horiz-adv-x="1269" 
d="M41 524v138h328l45 210h-373v140h401l111 524h141l-110 -524h209l110 524h141l-110 -524h295v-140h-328l-45 -210h373v-138h-402l-110 -524h-142l115 524h-211l-112 -524h-138l111 524h-299zM510 662h209l45 210h-211z" />
    <glyph glyph-name="dollar" unicode="$" horiz-adv-x="1189" 
d="M82 428h301q0 -87 60.5 -149t150.5 -62t150.5 60.5t60.5 150.5q0 89 -61 150t-150 61q-225 0 -364.5 131t-139.5 346q0 180 96.5 283.5t266.5 134.5v125h278v-125q361 -60 361 -438h-295q0 101 -57 162t-146 61t-145 -56t-56 -147q0 -89 55.5 -142.5t145.5 -53.5
q225 0 369.5 -137.5t144.5 -354.5q0 -176 -107.5 -300.5t-269.5 -156.5v-127h-278v127q-159 31 -265 159t-106 298z" />
    <glyph glyph-name="percent" unicode="%" horiz-adv-x="1284" 
d="M82 1292q0 116 84 197.5t199 81.5q76 0 141 -37.5t102 -99.5q37 -66 111 -66q39 0 71.5 22t47.5 58l51 123l141 -60l-645 -1546l-141 60l497 1192h-22q-43 0 -80 12q-24 -94 -100 -154.5t-174 -60.5q-115 0 -199 81t-84 197zM238 1292q0 -53 37.5 -90t89.5 -37
q54 0 91.5 36.5t37.5 90.5t-37.5 91.5t-91.5 37.5q-51 0 -89 -37.5t-38 -91.5zM641 246q0 115 83 196.5t198 81.5q117 0 198.5 -81t81.5 -197q0 -117 -81.5 -199t-198.5 -82q-115 0 -198 82.5t-83 198.5zM797 246q0 -54 37 -91.5t88 -37.5q54 0 89.5 37.5t35.5 91.5
q0 53 -36 90t-89 37q-51 0 -88 -37.5t-37 -89.5z" />
    <glyph glyph-name="ampersand" unicode="&#x26;" horiz-adv-x="1366" 
d="M82 477q0 134 72.5 247.5t185.5 190.5q-104 132 -104 254q0 169 122.5 285.5t294.5 116.5t295 -116.5t123 -285.5q0 -164 -125.5 -282.5t-292.5 -118.5q-118 0 -193 -77t-75 -193q0 -118 74.5 -196.5t193.5 -78.5q114 0 193.5 86.5t79.5 198.5v86q0 148 75 231.5
t218 83.5h86v-270h-86q-14 0 -25.5 -11t-11.5 -24v-297q0 -15 11.5 -26t25.5 -11h86v-270h-86q-127 0 -213 104q-146 -139 -353 -139q-167 0 -296 60t-202 177t-73 275zM508 1167q0 -60 43 -102.5t102 -42.5q58 0 102 43t44 102q0 57 -44.5 101.5t-101.5 44.5
q-58 0 -101.5 -44.5t-43.5 -101.5z" />
    <glyph glyph-name="quotesingle" unicode="'" horiz-adv-x="354" 
d="M102 977v559h150v-559h-150z" />
    <glyph glyph-name="parenleft" unicode="(" horiz-adv-x="690" 
d="M164 588q0 261 63 517.5t179 465.5h223q-129 -194 -192.5 -450.5t-63.5 -532.5q0 -274 64 -527.5t192 -445.5h-223q-115 208 -178.5 463t-63.5 510z" />
    <glyph glyph-name="parenright" unicode=")" horiz-adv-x="690" 
d="M61 -385q128 192 192 445.5t64 527.5q0 276 -63.5 532.5t-192.5 450.5h224q115 -209 178 -465.5t63 -517.5q0 -256 -63.5 -510.5t-177.5 -462.5h-224z" />
    <glyph glyph-name="asterisk" unicode="*" horiz-adv-x="788" 
d="M164 1268l121 57l-121 53l69 117l107 -78l-12 133h135l-12 -133l108 78l66 -117l-121 -53l121 -57l-66 -115l-108 76l12 -133h-135l12 133l-107 -76z" />
    <glyph glyph-name="plus" unicode="+" horiz-adv-x="1392" 
d="M102 487v209h492v490h209v-490h487v-209h-487v-487h-209v487h-492z" />
    <glyph glyph-name="comma" unicode="," horiz-adv-x="561" 
d="M72 141q0 65 46.5 111.5t110.5 46.5q65 0 111.5 -46.5t46.5 -111.5v-151q0 -98 -69 -168t-166 -70v133q41 0 72 30t32 73q-10 -4 -27 -4q-65 0 -111 46t-46 111z" />
    <glyph glyph-name="hyphen" unicode="-" horiz-adv-x="952" 
d="M143 487v209h666v-209h-666z" />
    <glyph glyph-name="period" unicode="." horiz-adv-x="561" 
d="M72 141q0 65 46.5 111.5t110.5 46.5q65 0 111.5 -46.5t46.5 -111.5q0 -64 -46.5 -110.5t-111.5 -46.5t-111 46t-46 111z" />
    <glyph glyph-name="slash" unicode="/" horiz-adv-x="1028" 
d="M123 25l643 1546l139 -60l-643 -1546z" />
    <glyph glyph-name="zero" unicode="0" horiz-adv-x="1312" 
d="M106 504v526q0 155 75 279.5t200.5 193t275.5 68.5q149 0 274 -68.5t200 -193t75 -279.5v-526q0 -155 -75 -279t-200 -192t-274 -68q-150 0 -275.5 68t-200.5 192t-75 279zM397 483q0 -108 76 -184t184 -76q107 0 182.5 76.5t75.5 183.5v568q0 108 -75.5 185t-182.5 77
q-108 0 -184 -77t-76 -185v-568z" />
    <glyph glyph-name="one" unicode="1" horiz-adv-x="827" 
d="M102 1083v279l291 174h291v-1536h-291v1235l-6 6z" />
    <glyph glyph-name="two" unicode="2" horiz-adv-x="1220" 
d="M82 987v68q0 230 141 373t381 143q242 0 388.5 -135t146.5 -361q0 -110 -60 -223.5t-143 -192.5l-395 -374l2 -6h551v-279h-971v279l631 589q39 39 60.5 94.5t21.5 112.5q0 107 -59.5 172.5t-172.5 65.5q-112 0 -173.5 -74.5t-61.5 -183.5v-68h-287z" />
    <glyph glyph-name="three" unicode="3" horiz-adv-x="1267" 
d="M78 438v17h299q0 -111 63 -171.5t189 -60.5q254 0 254 221q0 106 -65.5 164t-188.5 58h-107v276h107q200 0 200 186q0 96 -47 140.5t-153 44.5q-104 0 -152.5 -49t-48.5 -146h-299v17q0 209 130.5 322.5t369.5 113.5q504 0 504 -426q0 -118 -55.5 -203t-149.5 -125v-8
q117 -42 187.5 -142t70.5 -239q0 -230 -145 -346.5t-412 -116.5q-262 0 -406.5 125t-144.5 348z" />
    <glyph glyph-name="four" unicode="4" horiz-adv-x="1216" 
d="M41 279v278l672 979h291v-979h172v-278h-172v-279h-291v279h-672zM354 563l2 -6h357v530l-6 3z" />
    <glyph glyph-name="five" unicode="5" horiz-adv-x="1284" 
d="M82 483h289q0 -108 78 -184t186 -76q109 0 186.5 76t77.5 184q0 109 -77.5 185.5t-186.5 76.5q-59 0 -113 -25t-92 -67l-268 47l143 836h735v-279h-501l-39 -288l6 -4q103 34 194 34q215 0 358.5 -146.5t143.5 -369.5q0 -244 -155.5 -381t-411.5 -137q-243 0 -398 141
t-155 377z" />
    <glyph glyph-name="six" unicode="6" horiz-adv-x="1288" 
d="M82 487q0 75 19.5 154t54.5 137l458 758h322l-318 -530l3 -2q20 2 38 2q108 0 208 -38.5t175 -106t119.5 -165t44.5 -209.5q0 -153 -76 -273t-204 -184.5t-283 -64.5q-154 0 -281.5 64.5t-203.5 184.5t-76 273zM385 487q0 -109 75 -186.5t183 -77.5t184 77.5t76 186.5
q0 107 -76 184t-184 77t-183 -77t-75 -184z" />
    <glyph glyph-name="seven" unicode="7" horiz-adv-x="1138" 
d="M53 1257v279h1024v-279l-516 -1257h-315l530 1251l-2 6h-721z" />
    <glyph glyph-name="eight" unicode="8" horiz-adv-x="1314" 
d="M82 436q0 133 79 230.5t197 138.5v8q-96 40 -159.5 124t-63.5 198q0 212 142.5 324t379.5 112q236 0 379.5 -112.5t143.5 -323.5q0 -114 -64 -198t-160 -124v-8q119 -41 198 -138t79 -231q0 -152 -74.5 -259.5t-203 -159.5t-298.5 -52q-260 0 -417.5 122t-157.5 349z
M385 446q0 -111 73 -167t199 -56t199.5 56t73.5 167q0 112 -73.5 168t-199.5 56t-199 -56t-73 -168zM434 1124q0 -96 60 -144t163 -48t163.5 48t60.5 144q0 95 -60.5 142t-163.5 47t-163 -47t-60 -142z" />
    <glyph glyph-name="nine" unicode="9" horiz-adv-x="1288" 
d="M82 1049q0 153 76 273t204 184.5t283 64.5q154 0 281.5 -64.5t203.5 -184.5t76 -273q0 -76 -19 -154.5t-54 -136.5l-459 -758h-322l318 530l-2 2q-20 -2 -39 -2q-108 0 -208 38.5t-175 106t-119.5 165t-44.5 209.5zM385 1049q0 -107 76 -184t184 -77t183 77t75 184
q0 109 -75 186.5t-183 77.5t-184 -77.5t-76 -186.5z" />
    <glyph glyph-name="colon" unicode=":" horiz-adv-x="561" 
d="M72 141q0 65 46.5 111.5t110.5 46.5q65 0 111.5 -46.5t46.5 -111.5q0 -64 -46.5 -110.5t-111.5 -46.5t-111 46t-46 111zM72 1044q0 65 46.5 111.5t110.5 46.5q65 0 111.5 -47t46.5 -111t-46.5 -110.5t-111.5 -46.5t-111 46.5t-46 110.5z" />
    <glyph glyph-name="semicolon" unicode=";" horiz-adv-x="561" 
d="M72 141q0 65 46.5 111.5t110.5 46.5q65 0 111.5 -46.5t46.5 -111.5v-151q0 -98 -69 -168t-166 -70v133q41 0 72 30t32 73q-10 -4 -27 -4q-65 0 -111 46t-46 111zM72 1044q0 65 46.5 111.5t110.5 46.5q65 0 111.5 -47t46.5 -111t-46.5 -110.5t-111.5 -46.5t-111 46.5
t-46 110.5z" />
    <glyph glyph-name="less" unicode="&#x3c;" horiz-adv-x="862" 
d="M82 487v209l698 490v-256l-497 -332v-10l497 -332v-256z" />
    <glyph glyph-name="equal" unicode="=" horiz-adv-x="1390" 
d="M102 315v209h1186v-209h-1186zM102 664v208h1186v-208h-1186z" />
    <glyph glyph-name="greater" unicode="&#x3e;" horiz-adv-x="862" 
d="M82 0v256l498 332v10l-498 332v256l698 -490v-209z" />
    <glyph glyph-name="question" unicode="?" horiz-adv-x="1249" 
d="M82 1053q0 230 149.5 375t384.5 145q237 0 394 -146t157 -374q0 -195 -121.5 -329.5t-291.5 -148.5v-163h-275v385h137q109 0 178.5 73.5t69.5 182.5q0 108 -70 184t-178 76t-177.5 -76t-69.5 -184h-287zM459 141q0 65 45.5 111.5t111.5 46.5q64 0 110 -46.5t46 -111.5
t-46 -111t-110 -46q-66 0 -111.5 46t-45.5 111z" />
    <glyph glyph-name="at" unicode="@" horiz-adv-x="1792" 
d="M82 768q0 217 108 402t293.5 293t403.5 108q217 0 402 -108t293 -293t108 -402v-78q0 -133 -95 -228t-229 -95t-223 92q-114 -90 -256 -90q-166 0 -285 117t-119 282t119 282t285 117t283.5 -116.5t117.5 -282.5v-86q3 -30 25.5 -52t52.5 -22q34 0 57 24t23 58v78
q0 113 -44.5 217t-119.5 179t-178.5 120t-216.5 45q-114 0 -217 -45t-177.5 -120.5t-118.5 -179t-44 -216.5t44 -216.5t118.5 -179t177.5 -120.5t217 -45q125 0 250 61l108 -219q-173 -84 -358 -84q-218 0 -403.5 108t-293.5 293t-108 402zM731 768q0 -65 46 -111.5
t110 -46.5t109.5 46.5t45.5 111.5t-45.5 111.5t-109.5 46.5t-110 -46.5t-46 -111.5z" />
    <glyph glyph-name="A" unicode="A" horiz-adv-x="1458" 
d="M31 0l540 1536h316l540 -1536h-313l-96 279h-578l-96 -279h-313zM541 557h377l-181 627h-16z" />
    <glyph glyph-name="B" unicode="B" horiz-adv-x="1421" 
d="M123 0v1536h690q125 0 229.5 -53t166 -149.5t61.5 -215.5q0 -193 -193 -297q49 -19 92.5 -49.5t83 -75t63 -107.5t23.5 -136q0 -127 -66 -231.5t-178.5 -163t-246.5 -58.5h-725zM414 279h434q79 0 133.5 58t54.5 138q0 79 -54.5 137t-133.5 58h-434v-391zM414 932h399
q64 0 109 48.5t45 113.5q0 67 -45 115t-109 48h-399v-325z" />
    <glyph glyph-name="C" unicode="C" horiz-adv-x="1738" 
d="M72 768q0 224 110 409t298.5 289.5t414.5 104.5q179 0 340 -69.5t277 -202t155 -304.5h-299q-67 136 -194 223t-279 87q-141 0 -261.5 -73.5t-190.5 -197.5t-70 -266q0 -143 70 -267t190.5 -197t261.5 -73q152 0 279 86.5t194 223.5h299q-39 -172 -155 -304.5t-277 -202
t-340 -69.5q-226 0 -414.5 104.5t-298.5 289.5t-110 409z" />
    <glyph glyph-name="D" unicode="D" horiz-adv-x="1517" 
d="M123 0v1536h534q164 0 310 -58t251.5 -159t166.5 -244t61 -307t-61 -307t-166.5 -244t-251.5 -159t-310 -58h-534zM414 279h243q201 0 343.5 143.5t142.5 345.5q0 132 -65 244.5t-177 178.5t-244 66h-243v-978z" />
    <glyph glyph-name="E" unicode="E" horiz-adv-x="1323" 
d="M123 0v1536h1128v-279h-837v-348h696v-278h-696v-352h837v-279h-1128z" />
    <glyph glyph-name="F" unicode="F" horiz-adv-x="1245" 
d="M123 0v1536h1091v-279h-800v-348h661v-278h-661v-631h-291z" />
    <glyph glyph-name="G" unicode="G" horiz-adv-x="1800" 
d="M72 768q0 169 65 318t177 255.5t268.5 168t332.5 61.5q166 0 321 -61t272.5 -180t158.5 -273h-315q-57 112 -173 180t-264 68q-151 0 -276 -74t-194.5 -197t-69.5 -266q0 -107 40.5 -206t109 -171.5t164.5 -116t202 -43.5q178 0 321.5 117t171.5 283h-469v278h752v-909
h-270v248h-8q-73 -126 -218 -204.5t-331 -78.5q-155 0 -296.5 62t-245 168t-165 255.5t-61.5 317.5z" />
    <glyph glyph-name="H" unicode="H" horiz-adv-x="1452" 
d="M123 0v1536h291v-627h624v627h291v-1536h-291v631h-624v-631h-291z" />
    <glyph glyph-name="I" unicode="I" 
d="M123 0v1536h291v-1536h-291z" />
    <glyph glyph-name="J" unicode="J" horiz-adv-x="1134" 
d="M41 440h287q0 -92 54 -150.5t142 -58.5q91 0 144 57.5t53 151.5v1096h291v-1096q0 -220 -132.5 -347.5t-355.5 -127.5t-353 127t-130 348z" />
    <glyph glyph-name="K" unicode="K" horiz-adv-x="1431" 
d="M123 0v1536h291v-711l618 711h369l-668 -768l668 -768h-369l-483 553l-135 -154v-399h-291z" />
    <glyph glyph-name="L" unicode="L" horiz-adv-x="1210" 
d="M123 0v1536h291v-1257h766v-279h-1057z" />
    <glyph glyph-name="M" unicode="M" horiz-adv-x="1802" 
d="M123 0v1536h291l483 -1149h8l486 1149h288v-1536h-288l2 840h-7l-342 -840h-284l-342 840h-6l2 -840h-291z" />
    <glyph glyph-name="N" unicode="N" horiz-adv-x="1452" 
d="M123 0v1536h291l620 -1026h4v1026h291v-1536h-291l-620 1024h-4v-1024h-291z" />
    <glyph glyph-name="O" unicode="O" horiz-adv-x="1789" 
d="M72 768q0 223 110 408t298.5 290t414.5 105q225 0 413.5 -105t299 -290t110.5 -408t-110.5 -408t-299 -290t-413.5 -105q-226 0 -414.5 105t-298.5 290t-110 408zM375 768q0 -143 69 -264.5t189 -192.5t262 -71q143 0 263 71t188.5 192.5t68.5 264.5t-68.5 264
t-188.5 192.5t-263 71.5q-142 0 -262 -71.5t-189 -193t-69 -263.5z" />
    <glyph glyph-name="P" unicode="P" horiz-adv-x="1411" 
d="M123 0v1536h676q148 0 271.5 -67.5t196 -188t72.5 -268.5t-72.5 -268.5t-196 -188.5t-271.5 -68h-385v-487h-291zM414 766h385q99 0 168 72t69 174t-69 173.5t-168 71.5h-385v-491z" />
    <glyph glyph-name="Q" unicode="Q" horiz-adv-x="1810" 
d="M72 774q0 222 110 405t298.5 286.5t414.5 103.5q169 0 321 -62.5t262 -168t175 -253t65 -311.5q0 -152 -70 -270t-192 -219l6 -9h256v-276h-823q-170 0 -321.5 58t-262 159t-175 246t-64.5 311zM375 774q0 -139 69.5 -255t189 -182.5t261.5 -66.5q139 0 258.5 65
t190.5 181.5t71 257.5q0 105 -40.5 201.5t-110 166.5t-166 112t-203.5 42q-106 0 -202.5 -42t-166 -112t-110.5 -166.5t-41 -201.5z" />
    <glyph glyph-name="R" unicode="R" horiz-adv-x="1421" 
d="M123 0v1536h676q148 0 271.5 -67.5t196 -188t72.5 -268.5q0 -162 -85.5 -287.5t-225.5 -187.5l268 -537h-323l-244 487h-315v-487h-291zM414 766h385q99 0 168 72t69 174t-69 173.5t-168 71.5h-385v-491z" />
    <glyph glyph-name="S" unicode="S" horiz-adv-x="1312" 
d="M82 463h287q0 -105 79 -175.5t201 -70.5q124 0 201.5 63.5t77.5 163.5q0 59 -28 100t-75.5 64t-109 38.5t-129.5 29.5t-135.5 31.5t-129 49.5t-109 78t-75.5 123t-28 179q0 136 72 235.5t193 149t275 49.5q156 0 278 -53t194.5 -159t72.5 -251h-287q0 89 -74.5 150
t-183.5 61q-112 0 -174.5 -48.5t-62.5 -133.5q0 -57 28 -96.5t75.5 -61.5t109 -38t129.5 -30.5t135.5 -32.5t129 -51t109 -79.5t75.5 -124t28 -179.5q0 -148 -76.5 -258t-207.5 -165.5t-298 -55.5q-254 0 -410.5 134.5t-156.5 363.5z" />
    <glyph glyph-name="T" unicode="T" horiz-adv-x="1261" 
d="M31 1257v279h1200v-279h-455v-1257h-291v1257h-454z" />
    <glyph glyph-name="U" unicode="U" horiz-adv-x="1470" 
d="M123 535v1001h291v-1008q0 -134 91 -215.5t230 -81.5t230.5 81.5t91.5 215.5v1008h291v-1001q0 -173 -80 -303.5t-218.5 -198.5t-314.5 -68q-270 0 -441 154.5t-171 415.5z" />
    <glyph glyph-name="V" unicode="V" horiz-adv-x="1441" 
d="M31 1536h305l381 -1110h8l381 1110h305l-549 -1536h-282z" />
    <glyph glyph-name="W" unicode="W" horiz-adv-x="2052" 
d="M31 1536h297l274 -1032h8l271 1032h290l271 -1032h8l274 1032h297l-430 -1536h-286l-273 1030h-8l-274 -1030h-287z" />
    <glyph glyph-name="X" unicode="X" horiz-adv-x="1419" 
d="M31 0l501 768l-501 768h348l328 -528h8l325 528h349l-502 -768l502 -768h-349l-325 526h-8l-328 -526h-348z" />
    <glyph glyph-name="Y" unicode="Y" horiz-adv-x="1464" 
d="M31 1536h344l356 -596h8l351 596h344l-553 -891v-645h-291v645z" />
    <glyph glyph-name="Z" unicode="Z" horiz-adv-x="1308" 
d="M61 0v279l824 974v4h-824v279h1186v-279l-821 -974v-4h821v-279h-1186z" />
    <glyph glyph-name="bracketleft" unicode="[" horiz-adv-x="643" 
d="M164 -350v1886h418v-193h-209v-1501h209v-192h-418z" />
    <glyph glyph-name="backslash" unicode="\" horiz-adv-x="1028" 
d="M123 1511l139 60l643 -1546l-139 -60z" />
    <glyph glyph-name="bracketright" unicode="]" horiz-adv-x="643" 
d="M61 -158h209v1501h-209v193h418v-1886h-418v192z" />
    <glyph glyph-name="asciicircum" unicode="^" horiz-adv-x="1224" 
d="M123 768l385 768h209l385 -768h-236l-250 537h-4l-254 -537h-235z" />
    <glyph glyph-name="underscore" unicode="_" horiz-adv-x="1062" 
d="M0 -186h1186v-52h-1186v52z" />
    <glyph glyph-name="grave" unicode="`" horiz-adv-x="718" 
d="M184 1401v170l351 -121v-135z" />
    <glyph glyph-name="a" unicode="a" horiz-adv-x="1320" 
d="M72 356q0 181 118.5 277t358.5 96h358v88q0 100 -58.5 134t-182.5 34q-47 0 -82 -4t-67 -14.5t-52 -29t-31.5 -49t-11.5 -71.5h-279q0 201 140 302.5t383 101.5q245 0 388.5 -102t143.5 -302v-817h-291v172l-6 2q-57 -90 -149 -149.5t-215 -59.5q-234 0 -349.5 100
t-115.5 291zM373 365q0 -74 49.5 -106t179.5 -32q138 0 221.5 55t83.5 134v86h-358q-176 0 -176 -137z" />
    <glyph glyph-name="b" unicode="b" horiz-adv-x="1490" 
d="M123 0v1536h291v-522h4q153 207 395 207q175 0 311.5 -82t210.5 -224.5t74 -320.5q0 -179 -74 -322t-210.5 -225t-311.5 -82q-241 0 -395 209h-4v-174h-291zM414 594q0 -149 98 -256t248 -107q149 0 247.5 107.5t98.5 255.5q0 146 -98.5 253t-247.5 107
q-150 0 -248 -106.5t-98 -253.5z" />
    <glyph glyph-name="c" unicode="c" horiz-adv-x="1413" 
d="M82 594q0 178 81.5 321.5t230.5 225.5t337 82q253 0 414.5 -130.5t206.5 -357.5h-297q-42 105 -123 170.5t-201 65.5q-157 0 -252.5 -107t-95.5 -270t95.5 -270t252.5 -107q120 0 201 65.5t123 170.5h297q-44 -227 -205.5 -357.5t-415.5 -130.5q-188 0 -337 82
t-230.5 225.5t-81.5 321.5z" />
    <glyph glyph-name="d" unicode="d" horiz-adv-x="1490" 
d="M82 594q0 178 74 320.5t210.5 224.5t311.5 82q242 0 395 -207h4v522h291v-1536h-291v174h-4q-154 -209 -395 -209q-175 0 -311.5 82t-210.5 225t-74 322zM385 594q0 -148 98.5 -255.5t247.5 -107.5q150 0 248 107t98 256q0 147 -98 253.5t-248 106.5q-149 0 -247.5 -107
t-98.5 -253z" />
    <glyph glyph-name="e" unicode="e" horiz-adv-x="1447" 
d="M82 594q0 175 87 319.5t235.5 226t324.5 81.5q103 0 200 -31.5t175.5 -89t137.5 -134.5t91.5 -173t32.5 -199q0 -61 -16 -133h-957q24 -101 117.5 -172.5t214.5 -71.5q87 0 157.5 39.5t108.5 99.5h316q-41 -118 -128.5 -207t-205 -136.5t-248.5 -47.5q-175 0 -322.5 82
t-234 227t-86.5 320zM397 713h658q-23 112 -110 187t-216 75q-128 0 -218.5 -75.5t-113.5 -186.5z" />
    <glyph glyph-name="f" unicode="f" horiz-adv-x="710" 
d="M61 961v225h107v41q0 150 92 229.5t256 79.5h105v-238h-91q-29 0 -50 -21t-21 -50v-41h162v-225h-162v-961h-291v961h-107z" />
    <glyph glyph-name="g" unicode="g" horiz-adv-x="1304" 
d="M74 -27q0 79 84 179q-72 79 -72 159q0 99 67 169t193 83v8q-55 38 -94 105.5t-39 140.5q0 175 124 289.5t316 114.5q161 0 279 -97q73 97 184 97h80v-211h-80q-30 0 -44 -16t-11 -40q1 -7 16 -54t15 -83q0 -181 -117.5 -283t-321.5 -102h-39q-74 0 -108 -1t-76 -8.5
t-58 -25.5t-16 -49q0 -36 31 -55q93 29 266 29q277 0 427.5 -85.5t150.5 -263.5q0 -97 -40.5 -167t-118 -111.5t-181 -60.5t-238.5 -19q-136 0 -239.5 19t-181 60.5t-118 111.5t-40.5 167zM377 -27q0 -71 67.5 -100t208.5 -29q140 0 207.5 29t67.5 100q0 72 -69 104t-206 32
q-139 0 -207.5 -32t-68.5 -104zM496 817q0 -63 46 -108t111 -45q63 0 109.5 45t46.5 108t-46.5 109.5t-109.5 46.5q-64 0 -110.5 -46.5t-46.5 -109.5z" />
    <glyph glyph-name="h" unicode="h" horiz-adv-x="1341" 
d="M123 0v1536h291v-498q1 0 2 -1t2 -1l2 2q53 77 142 130t198 53q207 0 333 -139t126 -365v-717h-291v680q0 109 -74.5 185.5t-181.5 76.5q-108 0 -183 -76.5t-75 -185.5v-680h-291z" />
    <glyph glyph-name="i" unicode="i" 
d="M106 1411q0 66 48 113t114 47t114 -47t48 -113q0 -67 -47.5 -113.5t-114.5 -46.5t-114.5 46.5t-47.5 113.5zM123 0v1186h291v-1186h-291z" />
    <glyph glyph-name="j" unicode="j" horiz-adv-x="585" 
d="M37 -113h67q29 0 50.5 21.5t21.5 50.5v1227h291v-1227q0 -150 -92 -229.5t-256 -79.5h-82v237zM160 1411q-1 65 47 112.5t115 47.5q66 0 113.5 -47t47.5 -113q0 -67 -47.5 -113.5t-113.5 -46.5q-67 0 -114.5 46.5t-47.5 113.5z" />
    <glyph glyph-name="k" unicode="k" horiz-adv-x="1286" 
d="M123 0v1536h291v-840l460 490h388l-527 -551l527 -635h-365l-356 434l-127 -139v-295h-291z" />
    <glyph glyph-name="l" unicode="l" 
d="M123 0v1536h291v-1536h-291z" />
    <glyph glyph-name="m" unicode="m" horiz-adv-x="1945" 
d="M123 0v1186h268v-162h4q115 197 310 197q201 0 331 -205q63 86 161.5 145.5t199.5 59.5q197 0 311.5 -135t114.5 -353v-733h-291v745q0 88 -59.5 148.5t-147.5 60.5q-86 0 -146.5 -60.5t-60.5 -148.5v-745h-291v745q0 88 -59.5 148.5t-146.5 60.5q-86 0 -146.5 -60.5
t-60.5 -148.5v-745h-291z" />
    <glyph glyph-name="n" unicode="n" horiz-adv-x="1345" 
d="M123 0v1186h268v-170h4q49 91 144 148t223 57q204 0 332.5 -140.5t128.5 -363.5v-717h-291v692q0 109 -75.5 185.5t-182.5 76.5q-109 0 -184.5 -76.5t-75.5 -185.5v-692h-291z" />
    <glyph glyph-name="o" unicode="o" horiz-adv-x="1462" 
d="M82 594q0 175 87 319.5t236 226t326 81.5q178 0 326.5 -81.5t235.5 -225.5t87 -320q0 -177 -87 -321.5t-235.5 -226t-326.5 -81.5q-177 0 -326 81.5t-236 226.5t-87 321zM385 594q0 -162 95 -266.5t251 -104.5q158 0 252 104t94 267q0 162 -94 265.5t-252 103.5
q-156 0 -251 -104t-95 -265z" />
    <glyph glyph-name="p" unicode="p" horiz-adv-x="1490" 
d="M123 -350v1536h291v-174h4q154 209 395 209q175 0 311.5 -82t210.5 -225t74 -322q0 -178 -74 -320.5t-210.5 -224.5t-311.5 -82q-242 0 -395 207h-4v-522h-291zM414 592q0 -147 98 -254t248 -107q149 0 247.5 107.5t98.5 253.5q0 148 -98.5 255t-247.5 107
q-150 0 -248 -106.5t-98 -255.5z" />
    <glyph glyph-name="q" unicode="q" horiz-adv-x="1490" 
d="M82 592q0 179 74 322t210.5 225t311.5 82q241 0 395 -209h4v174h291v-1536h-291v522h-4q-153 -207 -395 -207q-175 0 -311.5 82t-210.5 224.5t-74 320.5zM385 592q0 -146 98.5 -253.5t247.5 -107.5q150 0 248 107t98 254q0 149 -98 255.5t-248 106.5q-149 0 -247.5 -107
t-98.5 -255z" />
    <glyph glyph-name="r" unicode="r" horiz-adv-x="798" 
d="M123 0v1186h258v-164h4q117 199 324 199h24v-295h-67q-104 0 -179.5 -71.5t-83.5 -174.5v-680h-280z" />
    <glyph glyph-name="s" unicode="s" horiz-adv-x="1200" 
d="M82 367h280q0 -73 64 -119.5t164 -46.5q104 0 166.5 35.5t62.5 101.5q0 44 -24 72t-65 42t-94.5 22t-112 15.5t-117 19t-112 35.5t-94.5 61.5t-65 101.5t-24 151q0 177 127 270t352 93q228 0 358.5 -106t130.5 -296h-278q0 79 -57.5 123.5t-153.5 44.5
q-91 0 -137.5 -35.5t-46.5 -93.5q0 -41 24.5 -68t65.5 -40.5t94.5 -22.5t112.5 -17.5t118 -21t112.5 -38t94.5 -63t65.5 -101t24.5 -148.5q0 -95 -40.5 -167.5t-113 -117t-167 -66.5t-207.5 -22q-230 0 -369 109.5t-139 292.5z" />
    <glyph glyph-name="t" unicode="t" horiz-adv-x="704" 
d="M51 961v225h109v268h291v-268h202v-225h-202v-631q0 -30 20.5 -51t48.5 -21h133v-258h-133q-161 0 -260.5 95t-99.5 255v611h-109z" />
    <glyph glyph-name="u" unicode="u" horiz-adv-x="1345" 
d="M123 469v717h291v-692q0 -109 75.5 -186t182.5 -77q108 0 184 77t76 186v692h291v-1186h-269v170h-4q-49 -91 -143.5 -148t-222.5 -57q-204 0 -332.5 140.5t-128.5 363.5z" />
    <glyph glyph-name="v" unicode="v" horiz-adv-x="1261" 
d="M31 1186h301l299 -795h4l295 795h301l-461 -1186h-278z" />
    <glyph glyph-name="w" unicode="w" horiz-adv-x="1892" 
d="M31 1186h301l233 -735h4l236 735h280l240 -735h4l232 735h301l-398 -1186h-278l-238 721h-4l-239 -721h-279z" />
    <glyph glyph-name="x" unicode="x" horiz-adv-x="1269" 
d="M31 0l432 594l-432 592h346l256 -357h4l256 357h346l-430 -592l430 -594h-346l-256 358h-4l-256 -358h-346z" />
    <glyph glyph-name="y" unicode="y" horiz-adv-x="1259" 
d="M31 1186h301l297 -772h4l295 772h301l-594 -1536h-299l145 377z" />
    <glyph glyph-name="z" unicode="z" horiz-adv-x="1167" 
d="M78 0v266l620 649v5h-620v266h1012v-266l-619 -650v-4h619v-266h-1012z" />
    <glyph glyph-name="braceleft" unicode="{" horiz-adv-x="784" 
d="M164 487v209h72q42 0 72 32t30 75v418q0 132 92 223.5t223 91.5h70v-193h-70q-43 0 -74.5 -38t-31.5 -84v-418q0 -129 -125 -205v-8q125 -76 125 -205v-420q0 -46 31.5 -84.5t74.5 -38.5h70v-192h-70q-131 0 -223 92t-92 223v420q0 42 -30 72t-72 30h-72z" />
    <glyph glyph-name="bar" unicode="|" horiz-adv-x="634" 
d="M246 -350v1886h143v-1886h-143z" />
    <glyph glyph-name="braceright" unicode="}" horiz-adv-x="784" 
d="M61 -158h70q43 0 75 38.5t32 84.5v420q0 129 124 205v8q-124 76 -124 205v418q0 46 -32 84t-75 38h-70v193h70q131 0 223 -91.5t92 -223.5v-418q0 -43 30.5 -75t72.5 -32h72v-209h-72q-43 0 -73 -30.5t-30 -71.5v-420q0 -131 -92 -223t-223 -92h-70v192z" />
    <glyph glyph-name="asciitilde" unicode="~" horiz-adv-x="1067" 
d="M123 504q2 69 36.5 130t98.5 95q92 54 191.5 26.5t154.5 -122.5q22 -37 59 -47.5t74 10.5q47 21 47 88h160q0 -69 -35 -129.5t-98 -95.5q-94 -54 -193 -27t-153 121q-22 37 -59.5 48.5t-73.5 -9.5q-47 -21 -47 -88h-162z" />
    <glyph glyph-name="uni00A0" unicode="&#xa0;" horiz-adv-x="1024" 
 />
    <glyph glyph-name="exclamdown" unicode="&#xa1;" horiz-adv-x="548" 
d="M117 1393q0 67 46 112t111 45t111.5 -45t46.5 -112q0 -64 -46.5 -109t-111.5 -45t-111 45t-46 109zM123 0l41 1118h219l41 -1118h-301z" />
    <glyph glyph-name="cent" unicode="&#xa2;" horiz-adv-x="1413" 
d="M82 594q0 235 139 403t369 211v154h282v-152q194 -33 317.5 -157.5t162.5 -317.5h-297q-42 105 -123 170.5t-201 65.5q-157 0 -252.5 -107t-95.5 -270t95.5 -270t252.5 -107q120 0 201 65.5t123 170.5h297q-37 -193 -161.5 -318t-318.5 -158v-151h-282v154
q-230 41 -369 209.5t-139 404.5z" />
    <glyph glyph-name="sterling" unicode="&#xa3;" horiz-adv-x="1304" 
d="M82 651v267h166v161q0 227 132 358.5t355 131.5t355.5 -131.5t132.5 -358.5h-279q0 104 -56.5 169t-152.5 65q-97 0 -153 -64.5t-56 -169.5v-161h394v-267h-394v-295q144 3 236 -96q46 -36 86.5 -32t67.5 38.5t26 81.5h281q0 -151 -94 -255.5t-238 -125.5
q-90 -11 -177.5 16.5t-154.5 94.5q-29 29 -72 29t-75 -29l-109 -113l-197 199l109 110q15 15 33 27v350h-166z" />
    <glyph glyph-name="currency" unicode="&#xa4;" horiz-adv-x="1437" 
d="M123 143l135 136q-96 142 -96 315q0 171 96 313l-133 135l147 148l134 -135q145 98 315 98q168 0 313 -98l133 133l148 -148l-133 -133q98 -145 98 -313q0 -170 -98 -315l133 -132l-148 -149l-133 133q-138 -96 -313 -96q-173 0 -315 96l-136 -135zM367 594
q0 -146 104 -250t250 -104t250 104t104 250t-104 250t-250 104t-250 -104t-104 -250z" />
    <glyph glyph-name="yen" unicode="&#xa5;" horiz-adv-x="1331" 
d="M31 1536h334l299 -500h4l301 500h331l-284 -473h162v-174h-269l-63 -105h332v-174h-367v-610h-291v610h-366v174h333l-65 105h-268v174h170z" />
    <glyph glyph-name="brokenbar" unicode="&#xa6;" horiz-adv-x="454" 
d="M123 -102v591h209v-591h-209zM123 698v594h209v-594h-209z" />
    <glyph glyph-name="section" unicode="&#xa7;" horiz-adv-x="1179" 
d="M102 594q0 159 152 293q-74 65 -113 128.5t-39 153.5q0 192 133 297t353 105q215 0 344 -109t129 -305h-281q0 160 -192 160q-92 0 -140.5 -40.5t-48.5 -119.5q0 -66 54.5 -105.5t134.5 -39.5q224 0 356.5 -111t132.5 -307q0 -160 -151 -293q74 -65 112.5 -129t38.5 -154
q0 -192 -132.5 -296.5t-352.5 -104.5q-215 0 -344 109t-129 305h280q0 -79 49.5 -119.5t143.5 -40.5q91 0 139.5 40.5t48.5 119.5q0 66 -54 105.5t-134 39.5q-224 0 -357 111t-133 307zM399 594q0 -77 51 -123.5t142 -46.5q88 0 138 47t50 123q0 77 -51 123.5t-141 46.5
q-88 0 -138.5 -47t-50.5 -123z" />
    <glyph glyph-name="dieresis" unicode="&#xa8;" horiz-adv-x="675" 
d="M31 1466q0 44 30 74.5t74 30.5q42 0 73.5 -30.5t31.5 -74.5q0 -42 -31.5 -73t-73.5 -31q-44 0 -74 30.5t-30 73.5zM436 1466q0 44 31 74.5t74 30.5q44 0 74 -30.5t30 -74.5q0 -43 -30 -73.5t-74 -30.5q-43 0 -74 30.5t-31 73.5z" />
    <glyph glyph-name="copyright" unicode="&#xa9;" horiz-adv-x="1419" 
d="M82 594q0 170 84 314.5t228.5 228.5t314.5 84q171 0 315.5 -84t228.5 -228.5t84 -314.5q0 -171 -84 -316t-228.5 -229t-315.5 -84q-170 0 -314.5 84t-228.5 229t-84 316zM160 594q0 -112 43.5 -215t116.5 -178t175 -119.5t214 -44.5q114 0 216.5 44.5t175.5 119.5
t116 177.5t43 215.5t-43 215.5t-116 177t-175.5 118.5t-216.5 44q-112 0 -214 -44t-175.5 -118.5t-116.5 -177.5t-43 -215zM289 594q0 173 123.5 296.5t296.5 123.5q176 0 299 -123l-109 -109q-79 82 -190 82q-110 0 -187.5 -79.5t-77.5 -190.5t77.5 -191.5t187.5 -80.5
q112 0 190 81l109 -108q-123 -123 -299 -123q-174 0 -297 123t-123 299z" />
    <glyph glyph-name="ordfeminine" unicode="&#xaa;" horiz-adv-x="768" 
d="M82 1139q0 90 59.5 138t180.5 48h178v43q0 50 -29 67t-92 17q-62 0 -91.5 -17t-29.5 -67h-139q0 101 69.5 152t190.5 51q123 0 194.5 -51t71.5 -152v-407h-145v86h-2q-29 -44 -75.5 -74.5t-107.5 -30.5q-233 0 -233 197zM233 1143q0 -38 24.5 -54t90.5 -16q69 0 110.5 27
t41.5 67v43h-178q-89 0 -89 -67z" />
    <glyph glyph-name="guillemotleft" unicode="&#xab;" horiz-adv-x="1038" 
d="M82 594l436 434v-295l-153 -135v-8l153 -137v-295zM520 594l436 434v-295l-153 -135v-8l153 -137v-295z" />
    <glyph glyph-name="logicalnot" unicode="&#xac;" horiz-adv-x="909" 
d="M123 487v209h663v-346h-208v137h-455z" />
    <glyph glyph-name="uni00AD" unicode="&#xad;" horiz-adv-x="952" 
d="M143 487v209h666v-209h-666z" />
    <glyph glyph-name="registered" unicode="&#xae;" horiz-adv-x="653" 
d="M82 1327q0 100 72.5 172t173.5 72q100 0 171.5 -72t71.5 -172q0 -101 -71.5 -173.5t-171.5 -72.5q-101 0 -173.5 72.5t-72.5 173.5zM113 1327q0 -91 62 -154t153 -63q89 0 151 63t62 154q0 89 -62 152t-151 63q-90 0 -152.5 -62.5t-62.5 -152.5zM215 1174v313h141
q43 0 73 -29t30 -69q0 -65 -62 -95l62 -120h-64l-57 114h-68v-114h-55zM270 1343h86q20 0 31.5 13.5t11.5 32.5q0 18 -11.5 29.5t-31.5 11.5h-86v-87z" />
    <glyph glyph-name="macron" unicode="&#xaf;" horiz-adv-x="628" 
d="M123 1376v160h383v-160h-383z" />
    <glyph glyph-name="degree" unicode="&#xb0;" horiz-adv-x="630" 
d="M102 1364q0 87 63 147t150 60q88 0 150.5 -60t62.5 -147q0 -86 -62.5 -146.5t-150.5 -60.5q-87 0 -150 60.5t-63 146.5zM229 1364q0 -36 25 -61t61 -25q37 0 61.5 24.5t24.5 61.5q0 36 -25 61t-61 25q-35 0 -60.5 -25.5t-25.5 -60.5z" />
    <glyph glyph-name="plusminus" unicode="&#xb1;" horiz-adv-x="1392" 
d="M102 0v209h1188v-209h-1188zM102 664v208h492v314h209v-314h487v-208h-487v-314h-209v314h-492z" />
    <glyph glyph-name="uni00B2" unicode="&#xb2;" horiz-adv-x="692" 
d="M82 1262v32q0 116 70 187t190 71q122 0 195 -66.5t73 -180.5q0 -54 -30.5 -110.5t-71.5 -96.5l-197 -189v-2h277v-139h-486v139l316 295q41 41 41 103q0 54 -30 86t-87 32q-56 0 -86.5 -36.5t-30.5 -92.5v-32h-143z" />
    <glyph glyph-name="uni00B3" unicode="&#xb3;" horiz-adv-x="718" 
d="M82 987v8h149q0 -114 127 -114t127 110q0 53 -33 82t-94 29h-53v137h53q101 0 101 94q0 48 -24 70t-77 22q-100 0 -100 -98h-149v8q0 105 64.5 162t184.5 57q252 0 252 -213q0 -59 -28 -101t-74 -62v-4q59 -22 94 -72t35 -119q0 -115 -73 -173t-206 -58q-131 0 -203.5 62
t-72.5 173z" />
    <glyph glyph-name="acute" unicode="&#xb4;" horiz-adv-x="718" 
d="M184 1315v135l351 121v-170z" />
    <glyph glyph-name="uni00B5" unicode="&#xb5;" horiz-adv-x="1345" 
d="M123 -350v1536h291v-692q0 -109 75.5 -186t182.5 -77q108 0 184 77t76 186v692h291v-1186h-269v170h-4q-49 -91 -143.5 -148t-222.5 -57q-86 0 -170 64v-379h-291z" />
    <glyph glyph-name="paragraph" unicode="&#xb6;" horiz-adv-x="1241" 
d="M51 1118q0 181 128 299.5t313 118.5h626v-1536h-209v1257h-137v-1257h-209v696h-71q-185 0 -313 120.5t-128 301.5zM354 1118q0 -60 40.5 -101.5t97.5 -41.5h71v282h-71q-57 0 -97.5 -41t-40.5 -98z" />
    <glyph glyph-name="periodcentered" unicode="&#xb7;" horiz-adv-x="561" 
d="M72 594q0 65 46.5 111.5t110.5 46.5q65 0 111.5 -47t46.5 -111t-46.5 -111t-111.5 -47q-64 0 -110.5 46.5t-46.5 111.5z" />
    <glyph glyph-name="cedilla" unicode="&#xb8;" horiz-adv-x="776" 
d="M205 -248h100q0 -35 24 -58.5t58 -23.5q35 0 58.5 23.5t23.5 58.5q0 33 -23.5 55.5t-58.5 22.5q-45 0 -65 -29l-89 17l29 182h94l-14 -92q92 30 160.5 -18.5t68.5 -137.5q0 -80 -50.5 -125t-133.5 -45q-79 0 -130.5 46.5t-51.5 123.5z" />
    <glyph glyph-name="uni00B9" unicode="&#xb9;" horiz-adv-x="475" 
d="M82 1311v139l145 86h146v-768h-146v618l-4 3z" />
    <glyph glyph-name="ordmasculine" unicode="&#xba;" horiz-adv-x="813" 
d="M82 1260q0 133 95 223t231 90t229.5 -90t93.5 -223q0 -134 -93.5 -225t-229.5 -91t-231 91t-95 225zM233 1260q0 -81 48.5 -134t126.5 -53t125 53t47 134q0 80 -47 132t-125 52t-126.5 -52.5t-48.5 -131.5z" />
    <glyph glyph-name="guillemotright" unicode="&#xbb;" horiz-adv-x="1038" 
d="M82 158v295l154 137v8l-154 135v295l436 -434zM520 158v295l154 137v8l-154 135v295l436 -434z" />
    <glyph glyph-name="onequarter" unicode="&#xbc;" horiz-adv-x="1306" 
d="M82 1311v139l145 86h146v-768h-146v618l-4 3zM254 10l649 1563l113 -43l-654 -1563zM696 139v140l336 489h146v-489h86v-140h-86v-139h-146v139h-336zM854 279h178v266h-2l-176 -262v-4z" />
    <glyph glyph-name="onehalf" unicode="&#xbd;" horiz-adv-x="1398" 
d="M82 1311v139l145 86h146v-768h-146v618l-4 3zM254 10l649 1563l113 -43l-654 -1563zM788 494v32q0 115 70.5 186.5t190.5 71.5q122 0 195 -66.5t73 -180.5q0 -54 -30.5 -110.5t-72.5 -96.5l-196 -189v-2h276v-139h-485v139l315 295q41 41 41 103q0 54 -29.5 86t-86.5 32
q-56 0 -86.5 -36.5t-30.5 -92.5v-32h-144z" />
    <glyph glyph-name="threequarters" unicode="&#xbe;" horiz-adv-x="1466" 
d="M82 987v8h149q0 -114 127 -114t127 110q0 53 -33 82t-94 29h-53v137h53q101 0 101 94q0 48 -24 70t-77 22q-100 0 -100 -98h-149v8q0 105 64.5 162t184.5 57q252 0 252 -213q0 -59 -28 -101t-74 -62v-4q59 -22 94 -72t35 -119q0 -115 -73 -173t-206 -58q-131 0 -203.5 62
t-72.5 173zM432 10l649 1563l113 -43l-653 -1563zM858 139v140l336 489h145v-489h86v-140h-86v-139h-145v139h-336zM1016 279h178v266h-2l-176 -262v-4z" />
    <glyph glyph-name="questiondown" unicode="&#xbf;" horiz-adv-x="1251" 
d="M82 485q0 190 118.5 329t288.5 169v143h275v-395h-137q-100 0 -171 -72t-71 -174q0 -101 71 -171t171 -70q101 0 174 70.5t73 170.5h295q0 -147 -72.5 -266.5t-196.5 -186.5t-273 -67t-274 67t-198 186.5t-73 266.5zM471 1397q0 65 46 111t110 46q66 0 111.5 -46
t45.5 -111t-45.5 -111.5t-111.5 -46.5q-64 0 -110 46.5t-46 111.5z" />
    <glyph glyph-name="Agrave" unicode="&#xc0;" horiz-adv-x="1458" 
d="M31 0l540 1536h316l540 -1536h-313l-96 279h-578l-96 -279h-313zM541 557h377l-181 627h-16zM555 1694v170l350 -121v-135z" />
    <glyph glyph-name="Aacute" unicode="&#xc1;" horiz-adv-x="1458" 
d="M31 0l540 1536h316l540 -1536h-313l-96 279h-578l-96 -279h-313zM541 557h377l-181 627h-16zM555 1608v135l350 121v-170z" />
    <glyph glyph-name="Acircumflex" unicode="&#xc2;" horiz-adv-x="1458" 
d="M31 0l540 1536h316l540 -1536h-313l-96 279h-578l-96 -279h-313zM498 1618l164 209h135l164 -209h-132l-96 92h-8l-96 -92h-131zM541 557h377l-181 627h-16z" />
    <glyph glyph-name="Atilde" unicode="&#xc3;" horiz-adv-x="1458" 
d="M31 0l540 1536h316l540 -1536h-313l-96 279h-578l-96 -279h-313zM498 1651q0 62 43.5 106.5t105.5 44.5q42 0 76.5 -22t52.5 -58q11 -20 37 -20q18 0 28.5 10.5t10.5 28.5h111q0 -62 -44 -107t-106 -45q-41 0 -76.5 21.5t-56.5 56.5q-3 9 -13 16t-20 7q-18 0 -28.5 -10.5
t-10.5 -28.5h-110zM541 557h377l-181 627h-16z" />
    <glyph glyph-name="Adieresis" unicode="&#xc4;" horiz-adv-x="1458" 
d="M31 0l540 1536h316l540 -1536h-313l-96 279h-578l-96 -279h-313zM420 1718q0 44 30 74.5t74 30.5q42 0 73.5 -30.5t31.5 -74.5q0 -42 -31.5 -73t-73.5 -31q-44 0 -74 30.5t-30 73.5zM541 557h377l-181 627h-16zM825 1718q0 44 31 74.5t74 30.5q44 0 74 -30.5t30 -74.5
q0 -43 -30 -73.5t-74 -30.5q-43 0 -74 30.5t-31 73.5z" />
    <glyph glyph-name="Aring" unicode="&#xc5;" horiz-adv-x="1458" 
d="M31 0l540 1536h316l540 -1536h-313l-96 279h-578l-96 -279h-313zM541 557h377l-181 627h-16zM573 1745q0 61 47 104t109 43t109 -43t47 -104q0 -62 -47 -107t-109 -45t-109 45t-47 107zM674 1745q0 -25 16 -41t39 -16t39 16t16 41q0 22 -16 37.5t-39 15.5t-39 -15.5
t-16 -37.5z" />
    <glyph glyph-name="AE" unicode="&#xc6;" horiz-adv-x="2230" 
d="M0 0l1018 1536h1141v-281h-838v-346h698v-280h-698v-350h838v-279h-1129v279h-491l-185 -279h-354zM694 557h336v512h-8z" />
    <glyph glyph-name="Ccedilla" unicode="&#xc7;" horiz-adv-x="1738" 
d="M72 768q0 224 110 409t298.5 289.5t414.5 104.5q179 0 340 -69.5t277 -202t155 -304.5h-299q-67 136 -194 223t-279 87q-141 0 -261.5 -73.5t-190.5 -197.5t-70 -266q0 -143 70 -267t190.5 -197t261.5 -73q152 0 279 86.5t194 223.5h299q-39 -172 -155 -304.5t-277 -202
t-340 -69.5q-6 0 -18.5 1t-18.5 1l-8 -59q92 30 160.5 -18.5t68.5 -137.5q0 -80 -50.5 -125t-133.5 -45q-79 0 -130.5 46.5t-51.5 123.5h100q0 -35 24 -58.5t58 -23.5q35 0 58.5 23.5t23.5 58.5q0 33 -23.5 55.5t-58.5 22.5q-46 0 -66 -29l-88 17l25 157q-196 28 -354 137
t-249 281t-91 375z" />
    <glyph glyph-name="Egrave" unicode="&#xc8;" horiz-adv-x="1323" 
d="M123 0v1536h1128v-279h-837v-348h696v-278h-696v-352h837v-279h-1128zM516 1694v170l350 -121v-135z" />
    <glyph glyph-name="Eacute" unicode="&#xc9;" horiz-adv-x="1323" 
d="M123 0v1536h1128v-279h-837v-348h696v-278h-696v-352h837v-279h-1128zM516 1608v135l350 121v-170z" />
    <glyph glyph-name="Ecircumflex" unicode="&#xca;" horiz-adv-x="1323" 
d="M123 0v1536h1128v-279h-837v-348h696v-278h-696v-352h837v-279h-1128zM457 1618l164 209h135l164 -209h-132l-96 92h-8l-96 -92h-131z" />
    <glyph glyph-name="Edieresis" unicode="&#xcb;" horiz-adv-x="1323" 
d="M123 0v1536h1128v-279h-837v-348h696v-278h-696v-352h837v-279h-1128zM360 1718q0 44 30.5 74.5t74.5 30.5q42 0 73 -30.5t31 -74.5q0 -42 -31 -73t-73 -31q-44 0 -74.5 30.5t-30.5 73.5zM766 1718q0 44 30.5 74.5t73.5 30.5q44 0 74.5 -30.5t30.5 -74.5
q0 -43 -30.5 -73.5t-74.5 -30.5q-43 0 -73.5 30.5t-30.5 73.5z" />
    <glyph glyph-name="Igrave" unicode="&#xcc;" 
d="M94 1694v170l350 -121v-135zM123 0v1536h291v-1536h-291z" />
    <glyph glyph-name="Iacute" unicode="&#xcd;" 
d="M94 1608v135l350 121v-170zM123 0v1536h291v-1536h-291z" />
    <glyph glyph-name="Icircumflex" unicode="&#xce;" 
d="M37 1618l164 209h135l164 -209h-131l-97 92h-8l-96 -92h-131zM123 0v1536h291v-1536h-291z" />
    <glyph glyph-name="Idieresis" unicode="&#xcf;" 
d="M-27 1718q0 44 30.5 74.5t74.5 30.5q42 0 73 -30.5t31 -74.5q0 -42 -31 -73t-73 -31q-44 0 -74.5 30.5t-30.5 73.5zM123 0v1536h291v-1536h-291zM354 1718q0 44 31 74.5t74 30.5q44 0 74 -30.5t30 -74.5q0 -43 -30 -73.5t-74 -30.5q-43 0 -74 30.5t-31 73.5z" />
    <glyph glyph-name="Eth" unicode="&#xd0;" horiz-adv-x="1558" 
d="M41 629v280h123v627h534q164 0 310 -58t251.5 -159t166.5 -244t61 -307t-61 -307t-166.5 -244t-251.5 -159t-310 -58h-534v629h-123zM455 279h243q201 0 344.5 143.5t143.5 345.5q0 132 -65.5 244t-178 177.5t-244.5 65.5h-243v-346h319v-280h-319v-350z" />
    <glyph glyph-name="Ntilde" unicode="&#xd1;" horiz-adv-x="1452" 
d="M123 0v1536h291l620 -1026h6l-2 1026h291v-1536h-291l-620 1024h-6l2 -1024h-291zM496 1610q0 62 43.5 106.5t105.5 44.5q42 0 76.5 -22t52.5 -58q11 -20 37 -20q18 0 28.5 10.5t10.5 28.5h111q0 -62 -44 -107t-106 -45q-41 0 -76.5 21.5t-56.5 56.5q-3 9 -13 16t-20 7
q-18 0 -28.5 -10.5t-10.5 -28.5h-110z" />
    <glyph glyph-name="Ograve" unicode="&#xd2;" horiz-adv-x="1789" 
d="M72 768q0 223 110 408t298.5 290t414.5 105q225 0 413.5 -105t299 -290t110.5 -408t-110.5 -408t-299 -290t-413.5 -105q-226 0 -414.5 105t-298.5 290t-110 408zM375 768q0 -143 69 -264.5t189 -192.5t262 -71q143 0 263 71t188.5 192.5t68.5 264.5t-68.5 264
t-188.5 192.5t-263 71.5q-142 0 -262 -71.5t-189 -193t-69 -263.5zM719 1694v170l350 -121v-135z" />
    <glyph glyph-name="Oacute" unicode="&#xd3;" horiz-adv-x="1789" 
d="M72 768q0 223 110 408t298.5 290t414.5 105q225 0 413.5 -105t299 -290t110.5 -408t-110.5 -408t-299 -290t-413.5 -105q-226 0 -414.5 105t-298.5 290t-110 408zM375 768q0 -143 69 -264.5t189 -192.5t262 -71q143 0 263 71t188.5 192.5t68.5 264.5t-68.5 264
t-188.5 192.5t-263 71.5q-142 0 -262 -71.5t-189 -193t-69 -263.5zM719 1608v135l350 121v-170z" />
    <glyph glyph-name="Ocircumflex" unicode="&#xd4;" horiz-adv-x="1789" 
d="M72 768q0 223 110 408t298.5 290t414.5 105q225 0 413.5 -105t299 -290t110.5 -408t-110.5 -408t-299 -290t-413.5 -105q-226 0 -414.5 105t-298.5 290t-110 408zM375 768q0 -143 69 -264.5t189 -192.5t262 -71q143 0 263 71t188.5 192.5t68.5 264.5t-68.5 264
t-188.5 192.5t-263 71.5q-142 0 -262 -71.5t-189 -193t-69 -263.5zM664 1618l163 209h136l163 -209h-131l-96 92h-8l-96 -92h-131z" />
    <glyph glyph-name="Otilde" unicode="&#xd5;" horiz-adv-x="1789" 
d="M72 768q0 223 110 408t298.5 290t414.5 105q225 0 413.5 -105t299 -290t110.5 -408t-110.5 -408t-299 -290t-413.5 -105q-226 0 -414.5 105t-298.5 290t-110 408zM375 768q0 -143 69 -264.5t189 -192.5t262 -71q143 0 263 71t188.5 192.5t68.5 264.5t-68.5 264
t-188.5 192.5t-263 71.5q-142 0 -262 -71.5t-189 -193t-69 -263.5zM662 1671q0 62 43.5 107t105.5 45q42 0 76.5 -22t52.5 -58q12 -21 37 -21q18 0 28.5 10.5t10.5 28.5h110q0 -62 -43.5 -106.5t-105.5 -44.5q-41 0 -76.5 21.5t-56.5 56.5q-3 9 -12.5 15.5t-20.5 6.5
q-18 0 -28.5 -10.5t-10.5 -28.5h-110z" />
    <glyph glyph-name="Odieresis" unicode="&#xd6;" horiz-adv-x="1789" 
d="M72 768q0 223 110 408t298.5 290t414.5 105q225 0 413.5 -105t299 -290t110.5 -408t-110.5 -408t-299 -290t-413.5 -105q-226 0 -414.5 105t-298.5 290t-110 408zM375 768q0 -143 69 -264.5t189 -192.5t262 -71q143 0 263 71t188.5 192.5t68.5 264.5t-68.5 264
t-188.5 192.5t-263 71.5q-142 0 -262 -71.5t-189 -193t-69 -263.5zM586 1718q0 44 30 74.5t74 30.5q42 0 73.5 -30.5t31.5 -74.5q0 -42 -31.5 -73t-73.5 -31q-44 0 -74 30.5t-30 73.5zM991 1718q0 44 31 74.5t74 30.5q44 0 74 -30.5t30 -74.5q0 -43 -30 -73.5t-74 -30.5
q-43 0 -74 30.5t-31 73.5z" />
    <glyph glyph-name="multiply" unicode="&#xd7;" horiz-adv-x="1349" 
d="M80 143l450 451l-448 448l147 148l449 -449l446 447l148 -148l-447 -446l447 -447l-148 -149l-446 448l-451 -450z" />
    <glyph glyph-name="Oslash" unicode="&#xd8;" horiz-adv-x="1810" 
d="M82 768q0 223 110 408t298.5 290t414.5 105q277 0 496 -160l160 160l147 -148l-156 -155q85 -103 131 -231.5t46 -268.5q0 -167 -65 -316.5t-176 -256t-263 -168.5t-320 -62q-277 0 -497 158l-158 -158l-148 148l154 153q-174 219 -174 502zM385 768q0 -164 84 -289
l725 725q-146 92 -289 92q-142 0 -262 -71.5t-189 -193t-69 -263.5zM614 330q137 -90 291 -90q143 0 263 71t188.5 192.5t68.5 264.5q0 164 -84 289z" />
    <glyph glyph-name="Ugrave" unicode="&#xd9;" horiz-adv-x="1470" 
d="M123 535v1001h291v-1008q0 -134 91 -215.5t230 -81.5t230.5 81.5t91.5 215.5v1008h291v-1001q0 -173 -80 -303.5t-218.5 -198.5t-314.5 -68q-270 0 -441 154.5t-171 415.5zM561 1694v170l350 -121v-135z" />
    <glyph glyph-name="Uacute" unicode="&#xda;" horiz-adv-x="1470" 
d="M123 535v1001h291v-1008q0 -134 91 -215.5t230 -81.5t230.5 81.5t91.5 215.5v1008h291v-1001q0 -173 -80 -303.5t-218.5 -198.5t-314.5 -68q-270 0 -441 154.5t-171 415.5zM561 1608v135l350 121v-170z" />
    <glyph glyph-name="Ucircumflex" unicode="&#xdb;" horiz-adv-x="1470" 
d="M123 535v1001h291v-1008q0 -134 91 -215.5t230 -81.5t230.5 81.5t91.5 215.5v1008h291v-1001q0 -173 -80 -303.5t-218.5 -198.5t-314.5 -68q-270 0 -441 154.5t-171 415.5zM502 1618l164 209h135l164 -209h-131l-97 92h-8l-96 -92h-131z" />
    <glyph glyph-name="Udieresis" unicode="&#xdc;" horiz-adv-x="1470" 
d="M123 535v1001h291v-1008q0 -134 91 -215.5t230 -81.5t230.5 81.5t91.5 215.5v1008h291v-1001q0 -173 -80 -303.5t-218.5 -198.5t-314.5 -68q-270 0 -441 154.5t-171 415.5zM424 1718q0 44 30 74.5t74 30.5q42 0 73.5 -30.5t31.5 -74.5q0 -42 -31.5 -73t-73.5 -31
q-44 0 -74 30.5t-30 73.5zM829 1718q0 44 31 74.5t74 30.5q44 0 74 -30.5t30 -74.5q0 -43 -30 -73.5t-74 -30.5q-43 0 -74 30.5t-31 73.5z" />
    <glyph glyph-name="Yacute" unicode="&#xdd;" horiz-adv-x="1464" 
d="M31 1536h344l356 -596h8l351 596h344l-553 -891v-645h-291v645zM555 1608v135l348 121v-170z" />
    <glyph glyph-name="Thorn" unicode="&#xde;" horiz-adv-x="1331" 
d="M123 0v1536h291v-190h415q177 0 302.5 -126.5t125.5 -304.5q0 -175 -125.5 -300.5t-302.5 -125.5h-415v-489h-291zM414 768h391q63 0 106 43t43 104q0 63 -43 107.5t-106 44.5h-391v-299z" />
    <glyph glyph-name="germandbls" unicode="&#xdf;" horiz-adv-x="1249" 
d="M123 0v1153q0 113 61.5 210t164.5 152.5t220 55.5q195 0 327 -116.5t132 -301.5q0 -183 -145 -272v-7q124 -31 204 -141t80 -262q0 -135 -68 -243.5t-183.5 -168t-256.5 -59.5h-141v279h141q86 0 145.5 60.5t59.5 147.5t-59.5 148t-145.5 61h-141v279h51q67 0 112.5 46.5
t45.5 113.5q0 65 -45.5 111t-112.5 46q-59 0 -104 -40.5t-51 -98.5v-1153h-291z" />
    <glyph glyph-name="agrave" unicode="&#xe0;" horiz-adv-x="1320" 
d="M72 356q0 181 118.5 277t358.5 96h358v88q0 100 -58.5 134t-182.5 34q-47 0 -82 -4t-67 -14.5t-52 -29t-31.5 -49t-11.5 -71.5h-279q0 201 140 302.5t383 101.5q245 0 388.5 -102t143.5 -302v-817h-291v172l-6 2q-57 -90 -149 -149.5t-215 -59.5q-234 0 -349.5 100
t-115.5 291zM373 365q0 -74 49.5 -106t179.5 -32q138 0 221.5 55t83.5 134v86h-358q-176 0 -176 -137zM492 1401v170l350 -121v-135z" />
    <glyph glyph-name="aacute" unicode="&#xe1;" horiz-adv-x="1320" 
d="M72 356q0 181 118.5 277t358.5 96h358v88q0 100 -58.5 134t-182.5 34q-47 0 -82 -4t-67 -14.5t-52 -29t-31.5 -49t-11.5 -71.5h-279q0 201 140 302.5t383 101.5q245 0 388.5 -102t143.5 -302v-817h-291v172l-6 2q-57 -90 -149 -149.5t-215 -59.5q-234 0 -349.5 100
t-115.5 291zM373 365q0 -74 49.5 -106t179.5 -32q138 0 221.5 55t83.5 134v86h-358q-176 0 -176 -137zM492 1315v135l350 121v-170z" />
    <glyph glyph-name="acircumflex" unicode="&#xe2;" horiz-adv-x="1320" 
d="M72 356q0 181 118.5 277t358.5 96h358v88q0 100 -58.5 134t-182.5 34q-47 0 -82 -4t-67 -14.5t-52 -29t-31.5 -49t-11.5 -71.5h-279q0 201 140 302.5t383 101.5q245 0 388.5 -102t143.5 -302v-817h-291v172l-6 2q-57 -90 -149 -149.5t-215 -59.5q-234 0 -349.5 100
t-115.5 291zM373 365q0 -74 49.5 -106t179.5 -32q138 0 221.5 55t83.5 134v86h-358q-176 0 -176 -137zM434 1393l164 209h135l164 -209h-131l-96 92h-8l-97 -92h-131z" />
    <glyph glyph-name="atilde" unicode="&#xe3;" horiz-adv-x="1320" 
d="M72 356q0 181 118.5 277t358.5 96h358v88q0 100 -58.5 134t-182.5 34q-47 0 -82 -4t-67 -14.5t-52 -29t-31.5 -49t-11.5 -71.5h-279q0 201 140 302.5t383 101.5q245 0 388.5 -102t143.5 -302v-817h-291v172l-6 2q-57 -90 -149 -149.5t-215 -59.5q-234 0 -349.5 100
t-115.5 291zM373 365q0 -74 49.5 -106t179.5 -32q138 0 221.5 55t83.5 134v86h-358q-176 0 -176 -137zM436 1419q0 62 44 107t106 45q42 0 76.5 -22t52.5 -58q12 -21 37 -21q18 0 28.5 10.5t10.5 28.5h110q0 -62 -43.5 -106.5t-105.5 -44.5q-42 0 -77.5 21.5t-56.5 56.5
q-3 9 -12.5 15.5t-19.5 6.5q-18 0 -28.5 -10.5t-10.5 -28.5h-111z" />
    <glyph glyph-name="adieresis" unicode="&#xe4;" horiz-adv-x="1320" 
d="M72 356q0 181 118.5 277t358.5 96h358v88q0 100 -58.5 134t-182.5 34q-47 0 -82 -4t-67 -14.5t-52 -29t-31.5 -49t-11.5 -71.5h-279q0 201 140 302.5t383 101.5q245 0 388.5 -102t143.5 -302v-817h-291v172l-6 2q-57 -90 -149 -149.5t-215 -59.5q-234 0 -349.5 100
t-115.5 291zM358 1466q0 44 30.5 74.5t74.5 30.5q42 0 73 -30.5t31 -74.5q0 -42 -31 -73t-73 -31q-44 0 -74.5 30.5t-30.5 73.5zM373 365q0 -74 49.5 -106t179.5 -32q138 0 221.5 55t83.5 134v86h-358q-176 0 -176 -137zM764 1466q0 44 30.5 74.5t73.5 30.5q44 0 74.5 -30.5
t30.5 -74.5q0 -43 -30.5 -73.5t-74.5 -30.5q-43 0 -73.5 30.5t-30.5 73.5z" />
    <glyph glyph-name="aring" unicode="&#xe5;" horiz-adv-x="1320" 
d="M72 356q0 181 118.5 277t358.5 96h358v88q0 100 -58.5 134t-182.5 34q-47 0 -82 -4t-67 -14.5t-52 -29t-31.5 -49t-11.5 -71.5h-279q0 201 140 302.5t383 101.5q245 0 388.5 -102t143.5 -302v-817h-291v172l-6 2q-57 -90 -149 -149.5t-215 -59.5q-234 0 -349.5 100
t-115.5 291zM373 365q0 -74 49.5 -106t179.5 -32q138 0 221.5 55t83.5 134v86h-358q-176 0 -176 -137zM510 1491q0 61 47 104t109 43t108.5 -43t46.5 -104q0 -62 -46.5 -107t-108.5 -45t-109 45t-47 107zM610 1491q0 -25 16 -41t40 -16q23 0 39 16t16 41q0 22 -16 37.5
t-39 15.5t-39.5 -15.5t-16.5 -37.5z" />
    <glyph glyph-name="ae" unicode="&#xe6;" horiz-adv-x="2316" 
d="M72 352q0 180 118 274.5t359 94.5h358v96q0 100 -58.5 134t-182.5 34q-47 0 -82 -4t-67 -14.5t-52 -29t-31.5 -49t-11.5 -71.5h-279q0 201 140 302.5t383 101.5q174 0 298.5 -51.5t184.5 -155.5q164 207 448 207q173 0 319 -81t232 -223.5t86 -314.5q0 -61 -16 -133h-956
q24 -102 117.5 -177t213.5 -75q88 0 158.5 39.5t108.5 99.5h315q-41 -118 -128.5 -207t-205 -136.5t-248.5 -47.5q-126 0 -224.5 55.5t-164.5 135.5l-6 -2v-154h-291v172l-6 2q-57 -90 -149 -149.5t-215 -59.5q-465 0 -465 387zM373 360q0 -74 49 -103.5t180 -29.5
q138 0 221.5 55t83.5 134v78h-358q-176 0 -176 -134zM1266 721h657q-23 111 -110 182.5t-216 71.5t-219 -72t-112 -182z" />
    <glyph glyph-name="ccedilla" unicode="&#xe7;" horiz-adv-x="1413" 
d="M82 594q0 178 81.5 321.5t230.5 225.5t337 82q253 0 414.5 -130.5t206.5 -357.5h-297q-42 105 -123 170.5t-201 65.5q-157 0 -252.5 -107t-95.5 -270t95.5 -270t252.5 -107q120 0 201 65.5t123 170.5h297q-44 -227 -205.5 -357.5t-415.5 -130.5q-25 0 -37 2l-8 -59
q92 30 160.5 -18.5t68.5 -137.5q0 -80 -50.5 -125t-133.5 -45q-79 0 -130.5 46.5t-51.5 123.5h100q0 -35 24 -58.5t58 -23.5q35 0 58.5 23.5t23.5 58.5q0 33 -23.5 55.5t-58.5 22.5q-45 0 -65 -29l-88 17l24 159q-235 38 -377.5 208t-142.5 409z" />
    <glyph glyph-name="egrave" unicode="&#xe8;" horiz-adv-x="1447" 
d="M82 594q0 175 87 319.5t235.5 226t324.5 81.5q103 0 200 -31.5t175.5 -89t137.5 -134.5t91.5 -173t32.5 -199q0 -61 -16 -133h-957q24 -101 117.5 -172.5t214.5 -71.5q87 0 157.5 39.5t108.5 99.5h316q-41 -118 -128.5 -207t-205 -136.5t-248.5 -47.5q-175 0 -322.5 82
t-234 227t-86.5 320zM397 713h658q-23 112 -110 187t-216 75q-128 0 -218.5 -75.5t-113.5 -186.5zM551 1401v170l350 -121v-135z" />
    <glyph glyph-name="eacute" unicode="&#xe9;" horiz-adv-x="1447" 
d="M82 594q0 175 87 319.5t235.5 226t324.5 81.5q103 0 200 -31.5t175.5 -89t137.5 -134.5t91.5 -173t32.5 -199q0 -61 -16 -133h-957q24 -101 117.5 -172.5t214.5 -71.5q87 0 157.5 39.5t108.5 99.5h316q-41 -118 -128.5 -207t-205 -136.5t-248.5 -47.5q-175 0 -322.5 82
t-234 227t-86.5 320zM397 713h658q-23 112 -110 187t-216 75q-128 0 -218.5 -75.5t-113.5 -186.5zM549 1315v135l350 121v-170z" />
    <glyph glyph-name="ecircumflex" unicode="&#xea;" horiz-adv-x="1447" 
d="M82 594q0 175 87 319.5t235.5 226t324.5 81.5q103 0 200 -31.5t175.5 -89t137.5 -134.5t91.5 -173t32.5 -199q0 -61 -16 -133h-957q24 -101 117.5 -172.5t214.5 -71.5q87 0 157.5 39.5t108.5 99.5h316q-41 -118 -128.5 -207t-205 -136.5t-248.5 -47.5q-175 0 -322.5 82
t-234 227t-86.5 320zM397 713h658q-23 112 -110 187t-216 75q-128 0 -218.5 -75.5t-113.5 -186.5zM498 1393l164 209h135l164 -209h-132l-96 92h-8l-96 -92h-131z" />
    <glyph glyph-name="edieresis" unicode="&#xeb;" horiz-adv-x="1447" 
d="M82 594q0 175 87 319.5t235.5 226t324.5 81.5q103 0 200 -31.5t175.5 -89t137.5 -134.5t91.5 -173t32.5 -199q0 -61 -16 -133h-957q24 -101 117.5 -172.5t214.5 -71.5q87 0 157.5 39.5t108.5 99.5h316q-41 -118 -128.5 -207t-205 -136.5t-248.5 -47.5q-175 0 -322.5 82
t-234 227t-86.5 320zM397 713h658q-23 112 -110 187t-216 75q-128 0 -218.5 -75.5t-113.5 -186.5zM422 1466q0 44 30 74.5t74 30.5q42 0 73.5 -30.5t31.5 -74.5q0 -42 -31.5 -73t-73.5 -31q-44 0 -74 30.5t-30 73.5zM827 1466q0 44 31 74.5t74 30.5q44 0 74 -30.5t30 -74.5
q0 -43 -30 -73.5t-74 -30.5q-43 0 -74 30.5t-31 73.5z" />
    <glyph glyph-name="igrave" unicode="&#xec;" 
d="M94 1401v170l350 -121v-135zM123 0v1186h291v-1186h-291z" />
    <glyph glyph-name="iacute" unicode="&#xed;" 
d="M94 1315v135l348 121v-170zM123 0v1186h291v-1186h-291z" />
    <glyph glyph-name="icircumflex" unicode="&#xee;" 
d="M37 1393l164 209h135l164 -209h-131l-97 92h-8l-96 -92h-131zM123 0v1186h291v-1186h-291z" />
    <glyph glyph-name="idieresis" unicode="&#xef;" 
d="M-29 1466q0 44 30.5 74.5t74.5 30.5q42 0 73 -30.5t31 -74.5q0 -42 -31 -73t-73 -31q-44 0 -74.5 30.5t-30.5 73.5zM123 0v1186h291v-1186h-291zM354 1466q0 44 31 74.5t74 30.5q44 0 74 -30.5t30 -74.5q0 -43 -30 -73.5t-74 -30.5q-43 0 -74 30.5t-31 73.5z" />
    <glyph glyph-name="eth" unicode="&#xf0;" horiz-adv-x="1441" 
d="M82 575q0 112 44 211.5t117.5 168.5t171.5 109t203 40q54 0 118 -18t114 -44h6l-43 41l-156 152l-108 -92l-68 82l101 84l-234 227h395l48 -51l83 71l68 -81l-78 -66l217 -225q93 -101 128 -148q151 -204 151 -461q0 -175 -85 -315.5t-230.5 -217.5t-323.5 -77
q-175 0 -319 75t-230 215t-90 320zM385 575q0 -136 99.5 -233.5t236.5 -97.5q138 0 237 97.5t99 233.5t-99 234t-237 98q-137 0 -236.5 -98t-99.5 -234z" />
    <glyph glyph-name="ntilde" unicode="&#xf1;" horiz-adv-x="1345" 
d="M123 0v1186h268v-170h4q49 91 144 148t223 57q204 0 332.5 -140.5t128.5 -363.5v-717h-291v692q0 109 -75.5 185.5t-182.5 76.5q-109 0 -184.5 -76.5t-75.5 -185.5v-692h-291zM487 1419q0 62 44 107t106 45q42 0 76.5 -22t52.5 -58q12 -21 37 -21q18 0 28.5 10.5
t10.5 28.5h110q0 -62 -43.5 -106.5t-105.5 -44.5q-41 0 -76.5 21.5t-56.5 56.5q-3 9 -12.5 15.5t-20.5 6.5q-18 0 -28.5 -10.5t-10.5 -28.5h-111z" />
    <glyph glyph-name="ograve" unicode="&#xf2;" horiz-adv-x="1462" 
d="M82 594q0 175 87 319.5t236 226t326 81.5q178 0 326.5 -81.5t235.5 -225.5t87 -320q0 -177 -87 -321.5t-235.5 -226t-326.5 -81.5q-177 0 -326 81.5t-236 226.5t-87 321zM385 594q0 -162 95 -266.5t251 -104.5q158 0 252 104t94 267q0 162 -94 265.5t-252 103.5
q-156 0 -251 -104t-95 -265zM557 1401v170l350 -121v-135z" />
    <glyph glyph-name="oacute" unicode="&#xf3;" horiz-adv-x="1462" 
d="M82 594q0 175 87 319.5t236 226t326 81.5q178 0 326.5 -81.5t235.5 -225.5t87 -320q0 -177 -87 -321.5t-235.5 -226t-326.5 -81.5q-177 0 -326 81.5t-236 226.5t-87 321zM385 594q0 -162 95 -266.5t251 -104.5q158 0 252 104t94 267q0 162 -94 265.5t-252 103.5
q-156 0 -251 -104t-95 -265zM559 1315v135l350 121v-170z" />
    <glyph glyph-name="ocircumflex" unicode="&#xf4;" horiz-adv-x="1462" 
d="M82 594q0 175 87 319.5t236 226t326 81.5q178 0 326.5 -81.5t235.5 -225.5t87 -320q0 -177 -87 -321.5t-235.5 -226t-326.5 -81.5q-177 0 -326 81.5t-236 226.5t-87 321zM385 594q0 -162 95 -266.5t251 -104.5q158 0 252 104t94 267q0 162 -94 265.5t-252 103.5
q-156 0 -251 -104t-95 -265zM498 1393l164 209h135l164 -209h-132l-96 92h-8l-96 -92h-131z" />
    <glyph glyph-name="otilde" unicode="&#xf5;" horiz-adv-x="1462" 
d="M82 594q0 175 87 319.5t236 226t326 81.5q178 0 326.5 -81.5t235.5 -225.5t87 -320q0 -177 -87 -321.5t-235.5 -226t-326.5 -81.5q-177 0 -326 81.5t-236 226.5t-87 321zM385 594q0 -162 95 -266.5t251 -104.5q158 0 252 104t94 267q0 162 -94 265.5t-252 103.5
q-156 0 -251 -104t-95 -265zM498 1419q0 62 43.5 107t105.5 45q42 0 76.5 -22t52.5 -58q12 -21 37 -21q18 0 28.5 10.5t10.5 28.5h111q0 -62 -43.5 -106.5t-106.5 -44.5q-41 0 -76.5 21.5t-56.5 56.5q-3 9 -12.5 15.5t-20.5 6.5q-18 0 -28.5 -10.5t-10.5 -28.5h-110z" />
    <glyph glyph-name="odieresis" unicode="&#xf6;" horiz-adv-x="1462" 
d="M82 594q0 175 87 319.5t236 226t326 81.5q178 0 326.5 -81.5t235.5 -225.5t87 -320q0 -177 -87 -321.5t-235.5 -226t-326.5 -81.5q-177 0 -326 81.5t-236 226.5t-87 321zM385 594q0 -162 95 -266.5t251 -104.5q158 0 252 104t94 267q0 162 -94 265.5t-252 103.5
q-156 0 -251 -104t-95 -265zM422 1466q0 44 30 74.5t74 30.5q42 0 73.5 -30.5t31.5 -74.5q0 -42 -31.5 -73t-73.5 -31q-44 0 -74 30.5t-30 73.5zM827 1466q0 44 31 74.5t74 30.5q44 0 74 -30.5t30 -74.5q0 -43 -30 -73.5t-74 -30.5q-43 0 -74 30.5t-31 73.5z" />
    <glyph glyph-name="divide" unicode="&#xf7;" horiz-adv-x="1390" 
d="M102 487v209h1186v-209h-1186zM557 123q0 58 40 98.5t97 40.5q60 0 101 -40t41 -99t-41 -99t-101 -40q-57 0 -97 40.5t-40 98.5zM557 1061q0 60 40 100.5t97 40.5q60 0 101 -40.5t41 -100.5q0 -57 -41 -97t-101 -40q-57 0 -97 40t-40 97z" />
    <glyph glyph-name="oslash" unicode="&#xf8;" horiz-adv-x="1478" 
d="M90 594q0 175 87 319.5t236 226t326 81.5q212 0 375 -113l113 113l147 -150l-106 -106q121 -162 121 -371q0 -177 -87 -321.5t-236 -226t-327 -81.5q-205 0 -366 105l-105 -105l-147 150l98 98q-129 164 -129 381zM393 594q0 -101 33 -174l496 495q-84 48 -183 48
q-156 0 -251 -104t-95 -265zM567 264q74 -41 172 -41q158 0 252 104t94 267q0 84 -28 160z" />
    <glyph glyph-name="ugrave" unicode="&#xf9;" horiz-adv-x="1345" 
d="M123 469v717h291v-692q0 -109 75.5 -186t182.5 -77q108 0 184 77t76 186v692h291v-1186h-269v170h-4q-49 -91 -143.5 -148t-222.5 -57q-204 0 -332.5 140.5t-128.5 363.5zM502 1401v170l350 -121v-135z" />
    <glyph glyph-name="uacute" unicode="&#xfa;" horiz-adv-x="1345" 
d="M123 469v717h291v-692q0 -109 75.5 -186t182.5 -77q108 0 184 77t76 186v692h291v-1186h-269v170h-4q-49 -91 -143.5 -148t-222.5 -57q-204 0 -332.5 140.5t-128.5 363.5zM502 1315v135l350 121v-170z" />
    <glyph glyph-name="ucircumflex" unicode="&#xfb;" horiz-adv-x="1345" 
d="M123 469v717h291v-692q0 -109 75.5 -186t182.5 -77q108 0 184 77t76 186v692h291v-1186h-269v170h-4q-49 -91 -143.5 -148t-222.5 -57q-204 0 -332.5 140.5t-128.5 363.5zM440 1393l164 209h135l164 -209h-131l-96 92h-8l-97 -92h-131z" />
    <glyph glyph-name="udieresis" unicode="&#xfc;" horiz-adv-x="1345" 
d="M123 469v717h291v-692q0 -109 75.5 -186t182.5 -77q108 0 184 77t76 186v692h291v-1186h-269v170h-4q-49 -91 -143.5 -148t-222.5 -57q-204 0 -332.5 140.5t-128.5 363.5zM365 1466q0 44 30 74.5t74 30.5q42 0 73 -30.5t31 -74.5q0 -42 -31 -73t-73 -31q-44 0 -74 30.5
t-30 73.5zM770 1466q0 44 30.5 74.5t73.5 30.5q44 0 74.5 -30.5t30.5 -74.5q0 -43 -30.5 -73.5t-74.5 -30.5q-43 0 -73.5 30.5t-30.5 73.5z" />
    <glyph glyph-name="yacute" unicode="&#xfd;" horiz-adv-x="1259" 
d="M31 1186h301l297 -772h4l295 772h301l-594 -1536h-299l145 377zM457 1315v135l350 121v-170z" />
    <glyph glyph-name="thorn" unicode="&#xfe;" horiz-adv-x="1490" 
d="M123 -350v1886h291v-549h4q28 41 55 73.5t63.5 63.5t76 51.5t91 33t109.5 12.5q163 0 299.5 -81.5t216.5 -226t80 -321.5q0 -176 -80 -320.5t-216.5 -225.5t-299.5 -81q-238 0 -395 207h-4v-522h-291zM414 592q0 -144 101.5 -252.5t244.5 -108.5q144 0 245 108t101 253
q0 147 -101 254.5t-245 107.5q-143 0 -244.5 -108t-101.5 -254z" />
    <glyph glyph-name="ydieresis" unicode="&#xff;" horiz-adv-x="1259" 
d="M31 1186h301l297 -772h4l295 772h301l-594 -1536h-299l145 377zM324 1466q0 44 30 74.5t74 30.5q42 0 73 -30.5t31 -74.5q0 -42 -31 -73t-73 -31q-44 0 -74 30.5t-30 73.5zM729 1466q0 44 31 74.5t74 30.5q44 0 74 -30.5t30 -74.5q0 -43 -30 -73.5t-74 -30.5
q-43 0 -74 30.5t-31 73.5z" />
    <glyph glyph-name="OE" unicode="&#x152;" horiz-adv-x="2619" 
d="M72 768q0 223 110 408t298.5 290t414.5 105q303 0 524 -195v160h1129v-279h-838v-348h696v-278h-696v-352h838v-279h-1129v158q-219 -193 -524 -193q-226 0 -414.5 105t-298.5 290t-110 408zM375 768q0 -143 69 -264.5t189 -192.5t262 -71q143 0 263 71t188.5 192.5
t68.5 264.5t-68.5 264t-188.5 192.5t-263 71.5q-142 0 -262 -71.5t-189 -193t-69 -263.5z" />
    <glyph glyph-name="oe" unicode="&#x153;" horiz-adv-x="2426" 
d="M82 594q0 175 87 319.5t236 226t326 81.5q147 0 275 -57t219 -158q88 102 213 158.5t270 56.5q103 0 200 -31.5t175.5 -89t137.5 -134.5t91.5 -173t32.5 -199q0 -61 -16 -133h-957q24 -101 117.5 -172.5t214.5 -71.5q87 0 157.5 39.5t108.5 99.5h316
q-41 -118 -128.5 -207t-205 -136.5t-248.5 -47.5q-144 0 -267.5 56.5t-211.5 158.5q-90 -102 -218 -158.5t-276 -56.5q-177 0 -326 81.5t-236 226.5t-87 321zM385 594q0 -162 95 -266.5t251 -104.5q155 0 248 101.5t98 269.5q-5 165 -98 267t-248 102q-156 0 -251 -104
t-95 -265zM1376 713h658q-23 112 -110 187t-216 75q-128 0 -218.5 -75.5t-113.5 -186.5z" />
    <glyph glyph-name="Ydieresis" unicode="&#x178;" horiz-adv-x="1464" 
d="M31 1536h344l356 -596h8l351 596h344l-553 -891v-645h-291v645zM426 1718q0 44 30 74.5t74 30.5q42 0 73.5 -30.5t31.5 -74.5q0 -42 -31.5 -73t-73.5 -31q-44 0 -74 30.5t-30 73.5zM831 1718q0 44 31 74.5t74 30.5q44 0 74 -30.5t30 -74.5q0 -43 -30 -73.5t-74 -30.5
q-43 0 -74 30.5t-31 73.5z" />
    <glyph glyph-name="circumflex" unicode="&#x2c6;" horiz-adv-x="872" 
d="M205 1393l164 209h135l164 -209h-131l-97 92h-8l-96 -92h-131z" />
    <glyph glyph-name="tilde" unicode="&#x2dc;" horiz-adv-x="874" 
d="M205 1419q0 62 43.5 107t105.5 45q42 0 76.5 -22t52.5 -58q12 -21 37 -21q18 0 28.5 10.5t10.5 28.5h111q0 -62 -43.5 -106.5t-106.5 -44.5q-41 0 -76.5 21.5t-56.5 56.5q-3 9 -13 15.5t-20 6.5q-18 0 -28.5 -10.5t-10.5 -28.5h-110z" />
    <glyph glyph-name="uni2000" unicode="&#x2000;" horiz-adv-x="946" 
 />
    <glyph glyph-name="uni2001" unicode="&#x2001;" horiz-adv-x="1892" 
 />
    <glyph glyph-name="uni2002" unicode="&#x2002;" horiz-adv-x="946" 
 />
    <glyph glyph-name="uni2003" unicode="&#x2003;" horiz-adv-x="1892" 
 />
    <glyph glyph-name="uni2004" unicode="&#x2004;" horiz-adv-x="630" 
 />
    <glyph glyph-name="uni2005" unicode="&#x2005;" horiz-adv-x="473" 
 />
    <glyph glyph-name="uni2006" unicode="&#x2006;" horiz-adv-x="315" 
 />
    <glyph glyph-name="uni2007" unicode="&#x2007;" horiz-adv-x="315" 
 />
    <glyph glyph-name="uni2008" unicode="&#x2008;" horiz-adv-x="236" 
 />
    <glyph glyph-name="uni2009" unicode="&#x2009;" horiz-adv-x="378" 
 />
    <glyph glyph-name="uni200A" unicode="&#x200a;" horiz-adv-x="105" 
 />
    <glyph glyph-name="uni2010" unicode="&#x2010;" horiz-adv-x="952" 
d="M143 487v209h666v-209h-666z" />
    <glyph glyph-name="uni2011" unicode="&#x2011;" horiz-adv-x="952" 
d="M143 487v209h666v-209h-666z" />
    <glyph glyph-name="figuredash" unicode="&#x2012;" horiz-adv-x="952" 
d="M143 487v209h666v-209h-666z" />
    <glyph glyph-name="endash" unicode="&#x2013;" horiz-adv-x="1267" 
d="M92 487v209h1084v-209h-1084z" />
    <glyph glyph-name="emdash" unicode="&#x2014;" horiz-adv-x="1861" 
d="M92 489v209h1677v-209h-1677z" />
    <glyph glyph-name="quoteleft" unicode="&#x2018;" horiz-adv-x="479" 
d="M102 1161v154q0 98 69.5 166.5t166.5 68.5h33v-133h-33q-42 0 -73 -29t-32 -71q8 2 27 2q65 0 111.5 -45.5t46.5 -112.5q0 -64 -46.5 -108.5t-111.5 -44.5t-111.5 44.5t-46.5 108.5z" />
    <glyph glyph-name="quoteright" unicode="&#x2019;" horiz-adv-x="479" 
d="M61 1397q0 64 46.5 108.5t111.5 44.5t111.5 -44.5t46.5 -108.5v-154q0 -98 -69 -166.5t-167 -68.5h-32v133h32q42 0 72.5 29t30.5 71q-6 -2 -25 -2q-65 0 -111.5 45.5t-46.5 112.5z" />
    <glyph glyph-name="quotesinglbase" unicode="&#x201a;" horiz-adv-x="479" 
d="M102 141q0 65 47 111.5t111 46.5t111 -46.5t47 -111.5v-151q0 -98 -69.5 -168t-166.5 -70v133q41 0 72.5 30t32.5 73q-10 -4 -27 -4q-65 0 -111.5 46.5t-46.5 110.5z" />
    <glyph glyph-name="quotedblleft" unicode="&#x201c;" horiz-adv-x="856" 
d="M102 1161v154q0 98 69.5 166.5t166.5 68.5h33v-133h-33q-42 0 -73 -29t-32 -71q8 2 27 2q65 0 111.5 -45.5t46.5 -112.5q0 -64 -46.5 -108.5t-111.5 -44.5t-111.5 44.5t-46.5 108.5zM479 1161v154q0 98 69 166.5t167 68.5h33v-133h-33q-42 0 -72.5 -29t-30.5 -71
q6 2 25 2q65 0 111.5 -45.5t46.5 -112.5q0 -64 -46.5 -108.5t-111.5 -44.5t-111.5 44.5t-46.5 108.5z" />
    <glyph glyph-name="quotedblright" unicode="&#x201d;" horiz-adv-x="856" 
d="M61 1397q0 64 46.5 108.5t111.5 44.5t111.5 -44.5t46.5 -108.5v-154q0 -98 -69 -166.5t-167 -68.5h-32v133h32q42 0 72.5 29t30.5 71q-6 -2 -25 -2q-65 0 -111.5 45.5t-46.5 112.5zM438 1397q0 64 46.5 108.5t111.5 44.5t111.5 -44.5t46.5 -108.5v-154
q0 -98 -69.5 -166.5t-166.5 -68.5h-33v133h33q42 0 73 29t32 71q-8 -2 -27 -2q-65 0 -111.5 45.5t-46.5 112.5z" />
    <glyph glyph-name="quotedblbase" unicode="&#x201e;" horiz-adv-x="856" 
d="M61 141q0 64 46.5 109t111.5 45t111.5 -45t46.5 -109v-153q0 -98 -69 -167t-167 -69h-32v133h32q42 0 72.5 29.5t30.5 71.5q-6 -2 -25 -2q-65 0 -111.5 45t-46.5 112zM438 141q0 64 46.5 109t111.5 45t111.5 -45t46.5 -109v-153q0 -98 -69.5 -167t-166.5 -69h-33v133h33
q42 0 73 29.5t32 71.5q-8 -2 -27 -2q-65 0 -111.5 45t-46.5 112z" />
    <glyph glyph-name="bullet" unicode="&#x2022;" horiz-adv-x="899" 
d="M205 594q0 101 72.5 172.5t173.5 71.5q100 0 171.5 -71.5t71.5 -172.5t-71.5 -172.5t-171.5 -71.5q-101 0 -173.5 71.5t-72.5 172.5z" />
    <glyph glyph-name="ellipsis" unicode="&#x2026;" horiz-adv-x="2037" 
d="M72 141q0 65 46.5 111.5t110.5 46.5q65 0 111.5 -46.5t46.5 -111.5q0 -64 -46.5 -110.5t-111.5 -46.5t-111 46t-46 111zM862 141q0 65 47 111.5t111 46.5t111 -46.5t47 -111.5q0 -64 -46.5 -110.5t-111.5 -46.5t-111.5 46.5t-46.5 110.5zM1653 141q0 65 45.5 111.5
t111.5 46.5q65 0 110.5 -46.5t45.5 -111.5t-45 -111t-111 -46t-111.5 46t-45.5 111z" />
    <glyph glyph-name="uni202F" unicode="&#x202f;" horiz-adv-x="378" 
 />
    <glyph glyph-name="guilsinglleft" unicode="&#x2039;" horiz-adv-x="600" 
d="M82 594l436 434v-295l-153 -135v-8l153 -137v-295z" />
    <glyph glyph-name="guilsinglright" unicode="&#x203a;" horiz-adv-x="600" 
d="M82 158v295l154 137v8l-154 135v295l436 -434z" />
    <glyph glyph-name="uni205F" unicode="&#x205f;" horiz-adv-x="473" 
 />
    <glyph glyph-name="Euro" unicode="&#x20ac;" horiz-adv-x="1384" 
d="M72 541v176h131v102h-131v176h131v35q0 155 75 279.5t200.5 193t275.5 68.5q149 0 274 -68.5t200 -193t75 -279.5h-291q0 112 -75.5 190t-182.5 78q-108 0 -184 -77t-76 -185v-41h393l-66 -176h-327v-102h297l-62 -176h-235v-43q0 -108 76 -184t184 -76q107 0 182.5 76.5
t75.5 183.5h291q0 -155 -75 -278t-200 -189t-274 -66q-150 0 -275.5 68t-200.5 192t-75 279v37h-131z" />
    <glyph glyph-name="trademark" unicode="&#x2122;" horiz-adv-x="743" 
d="M82 1481v55h240v-55h-91v-252h-57v252h-92zM352 1229v307h58l96 -231h4l94 231h58v-307h-58v168h-2l-65 -168h-58l-67 168h-2v-168h-58z" />
    <glyph glyph-name="uni25FC" unicode="&#x25fc;" horiz-adv-x="1187" 
d="M0 0v1188h1188v-1188h-1188z" />
    <glyph glyph-name="uniFB01" unicode="&#xfb01;" horiz-adv-x="1280" 
d="M61 961v225h107v41q0 150 92 229.5t256 79.5h105v-238h-91q-29 0 -50 -21t-21 -50v-41h698v-1186h-291v961h-407v-961h-291v961h-107zM850 1417q0 67 47 114.5t115 47.5t115 -47.5t47 -114.5t-47 -114.5t-115 -47.5t-115 47.5t-47 114.5z" />
    <glyph glyph-name="uniFB02" unicode="&#xfb02;" horiz-adv-x="1284" 
d="M61 932v254h111v37q0 147 100.5 230t253.5 83h635v-1536h-291v1300h-335q-29 0 -50.5 -23.5t-21.5 -53.5v-37h205v-254h-205v-932h-291v932h-111z" />
    <glyph glyph-name="uniFB03" unicode="&#xfb03;" horiz-adv-x="1976" 
d="M61 961v225h107v41q0 150 92 229.5t256 79.5h105v-238h-91q-29 0 -50 -21t-21 -50v-41h405v41q0 150 92 229.5t256 79.5h105v-238h-90q-29 0 -50.5 -21t-21.5 -50v-41h698v-1186h-290v961h-408v-961h-291v961h-405v-961h-291v961h-107zM1546 1417q0 67 47 114.5t115 47.5
t115 -47.5t47 -114.5t-47 -114.5t-115 -47.5t-115 47.5t-47 114.5z" />
    <glyph glyph-name="uniFB04" unicode="&#xfb04;" horiz-adv-x="1994" 
d="M61 961v225h107v41q0 150 92 229.5t256 79.5h105v-238h-91q-29 0 -50 -21t-21 -50v-41h424v37q0 147 100.5 230t253.5 83h635v-1536h-291v1300h-336q-29 0 -50 -23.5t-21 -53.5v-37h204v-225h-204v-961h-291v961h-424v-961h-291v961h-107z" />
    </font>
</defs>
</svg>
