<?xml version="1.0" standalone="no"?>
<!DOCTYPE svg PUBLIC "-//W3C//DTD SVG 1.1//EN" "http://www.w3.org/Graphics/SVG/1.1/DTD/svg11.dtd" >
<svg>
<metadata>
Created by FontForge 20120731 at Tue Jul  2 19:22:20 2019
 By www
Copyright (c) 2008 by Mark Simonson. All rights reserved.
</metadata>
<defs>
<font id="RefrigeratorDeluxeW02-Reg" horiz-adv-x="388" >
  <font-face 
    font-family="RefrigeratorDeluxeW02-Reg"
    font-weight="400"
    font-stretch="normal"
    units-per-em="1000"
    panose-1="2 1 6 6 2 2 2 5 2 3"
    ascent="775"
    descent="-225"
    x-height="470"
    cap-height="700"
    bbox="-106 -230 838 929"
    underline-thickness="68"
    underline-position="-48"
    unicode-range="U+000D-FB02"
  />
<missing-glyph horiz-adv-x="0" 
 />
    <glyph glyph-name=".notdef" horiz-adv-x="0" 
 />
    <glyph glyph-name=".null" horiz-adv-x="0" 
 />
    <glyph glyph-name="uni000D" unicode="&#xd;" horiz-adv-x="0" 
 />
    <glyph glyph-name="space" unicode=" " horiz-adv-x="200" 
 />
    <glyph glyph-name="exclam" unicode="!" horiz-adv-x="222" 
d="M61 40q0 21 14.5 35.5t35.5 14.5t35.5 -14.5t14.5 -35.5t-14.5 -35.5t-35.5 -14.5t-35.5 14.5t-14.5 35.5zM149 175h-75v525h75v-525z" />
    <glyph glyph-name="quotedbl" unicode="&#x22;" horiz-adv-x="361" 
d="M296 700l-28 -201h-36l-27 201h91zM156 700l-27 -201h-36l-28 201h91z" />
    <glyph glyph-name="numbersign" unicode="#" horiz-adv-x="513" 
d="M165 252h115l65 196h-115zM113 493h84l69 207h48l-69 -207h115l69 207h48l-69 -207h75v-45h-90l-65 -196h72v-45h-87l-68 -207h-48l68 207h-115l-68 -207h-48l68 207h-72v45h87l65 196h-69v45z" />
    <glyph glyph-name="dollar" unicode="$" horiz-adv-x="435" 
d="M305 244q0 20 -14 27l-172 89q-33 17 -48.5 43.5t-15.5 52.5v54q0 42 29 71t71 29h30v90h65v-90h30q42 0 71 -29t29 -71v-58h-75v58q0 25 -25 25h-125q-25 0 -25 -25v-51q0 -20 14 -27l174 -90q34 -17 48 -40t14 -51v-61q0 -42 -29 -71t-71 -29h-30v-90h-65v90h-30
q-42 0 -71 29t-29 71v61h75v-61q0 -25 25 -25h125q25 0 25 25v54z" />
    <glyph glyph-name="percent" unicode="%" horiz-adv-x="629" 
d="M574 67q0 -28 -20 -47.5t-48 -19.5h-73q-28 0 -48 19.5t-20 47.5v217q0 28 20 47.5t48 19.5h73q28 0 48 -19.5t20 -47.5v-217zM522 284q0 16 -16 16h-73q-16 0 -16 -16v-217q0 -7 4.5 -12t11.5 -5h73q7 0 11.5 5t4.5 12v217zM264 416q0 -28 -20 -47.5t-48 -19.5h-73
q-28 0 -48 19.5t-20 47.5v217q0 28 20 47.5t48 19.5h73q28 0 48 -19.5t20 -47.5v-217zM454 700l-231 -700h-48l232 700h47zM212 633q0 16 -16 16h-73q-16 0 -16 -16v-217q0 -7 4.5 -12t11.5 -5h73q7 0 11.5 5t4.5 12v217z" />
    <glyph glyph-name="ampersand" unicode="&#x26;" horiz-adv-x="586" 
d="M212 75q23 0 31 16l63 126l-117 116l-45 -46q-8 -8 -11 -15.5t-3 -19.5v-152q0 -25 25 -25h57zM360 163l-55 -109q-11 -21 -32 -37.5t-61 -16.5h-57q-42 0 -71 29t-29 71v157q0 25 8 43.5t28 38.5l45 46l-47 47q-14 14 -24 39.5t-10 52.5v76q0 42 29 71t71 29h125
q42 0 71 -29t29 -71v-87h-75v87q0 25 -25 25h-125q-25 0 -25 -25v-76q0 -26 14 -40l198 -196l65 128h80l-91 -181l190 -188l-54 -54z" />
    <glyph glyph-name="quotesingle" unicode="'" horiz-adv-x="221" 
d="M156 700l-27 -201h-36l-28 201h91z" />
    <glyph glyph-name="parenleft" unicode="(" horiz-adv-x="220" 
d="M160 -151q-106 175 -106 476q0 300 106 475h41q-80 -180 -80 -475q0 -296 80 -476h-41z" />
    <glyph glyph-name="parenright" unicode=")" horiz-adv-x="220" 
d="M60 800q106 -175 106 -476q0 -300 -106 -475h-41q80 180 80 475q0 296 -80 476h41z" />
    <glyph glyph-name="asterisk" unicode="*" horiz-adv-x="342" 
d="M189 525l12 -115h-58l12 115l-94 -68l-29 51l106 47l-106 47l29 51l94 -69l-12 116h58l-12 -116l94 69l29 -51l-106 -47l106 -47l-29 -51z" />
    <glyph glyph-name="plus" unicode="+" horiz-adv-x="460" 
d="M430 201h-169v-166h-67v166h-164v67h164v167h67v-167h169v-67z" />
    <glyph glyph-name="comma" unicode="," horiz-adv-x="182" 
d="M141 40q0 -10 -4 -20l-56 -120h-35l31 93q-11 2 -23.5 14t-12.5 33t14.5 35.5t35.5 14.5t35.5 -14.5t14.5 -35.5z" />
    <glyph glyph-name="hyphen" unicode="-" horiz-adv-x="271" 
d="M241 201h-211v68h211v-68z" />
    <glyph glyph-name="period" unicode="." horiz-adv-x="190" 
d="M45 40q0 21 14.5 35.5t35.5 14.5t35.5 -14.5t14.5 -35.5t-14.5 -35.5t-35.5 -14.5t-35.5 14.5t-14.5 35.5z" />
    <glyph glyph-name="slash" unicode="/" horiz-adv-x="307" 
d="M293 800l-231 -951h-48l232 951h47z" />
    <glyph glyph-name="zero" unicode="0" horiz-adv-x="435" 
d="M380 100q0 -42 -29 -71t-71 -29h-125q-42 0 -71 29t-29 71v500q0 42 29 71t71 29h125q42 0 71 -29t29 -71v-500zM305 600q0 25 -25 25h-125q-25 0 -25 -25v-500q0 -25 25 -25h125q25 0 25 25v500z" />
    <glyph glyph-name="one" unicode="1" horiz-adv-x="343" 
d="M316 0h-275v75h100v550h-100v75h175v-625h100v-75z" />
    <glyph glyph-name="two" unicode="2" horiz-adv-x="435" 
d="M298 497q4 5 5.5 10t1.5 16v77q0 25 -25 25h-125q-11 0 -18 -7t-7 -18v-100h-75v100q0 42 29 71t71 29h125q42 0 71 -29t29 -71v-77q0 -24 -4.5 -42.5t-16.5 -33.5l-222 -284q-4 -5 -5.5 -10t-1.5 -16v-62h250v-75h-325v137q0 24 4.5 42.5t16.5 33.5z" />
    <glyph glyph-name="three" unicode="3" horiz-adv-x="435" 
d="M380 100q0 -42 -29 -71t-71 -29h-125q-42 0 -71 29t-29 71v87h75v-87q0 -25 25 -25h125q25 0 25 25v207q0 11 -7 18.5t-18 7.5h-150v75h150q25 0 25 25v167q0 25 -25 25h-125q-25 0 -25 -25v-87h-75v87q0 42 29 71t71 29h125q42 0 71 -29t29 -71v-154q0 -32 -13.5 -51
t-36.5 -26q23 -7 36.5 -26t13.5 -51v-192z" />
    <glyph glyph-name="four" unicode="4" horiz-adv-x="432" 
d="M391 163h-50v-163h-75v163h-225v62l225 475h75v-462h50v-75zM266 238v318l-145 -318h145z" />
    <glyph glyph-name="five" unicode="5" horiz-adv-x="435" 
d="M380 100q0 -42 -29 -71t-71 -29h-125q-42 0 -71 29t-29 71v88h75v-88q0 -25 25 -25h125q25 0 25 25v270q0 25 -25 25h-125q-25 0 -25 -25v-38h-75v368h315v-75h-240v-205q20 50 78 50h72q42 0 71 -29t29 -71v-270z" />
    <glyph glyph-name="six" unicode="6" horiz-adv-x="435" 
d="M380 100q0 -21 -8 -39t-21.5 -31.5t-31.5 -21.5t-39 -8h-125q-42 0 -71 29t-29 71v500q0 42 29 71t71 29h125q42 0 71 -29t29 -71v-75h-75v75q0 25 -25 25h-125q-25 0 -25 -25v-242q20 50 78 50h72q21 0 39 -8t31.5 -21.5t21.5 -31.5t8 -39v-208zM305 308q0 25 -25 25
h-125q-25 0 -25 -25v-208q0 -25 25 -25h125q25 0 25 25v208z" />
    <glyph glyph-name="seven" unicode="7" horiz-adv-x="393" 
d="M352 625l-144 -625h-81l150 625h-175v-113h-75v188h325v-75z" />
    <glyph glyph-name="eight" unicode="8" horiz-adv-x="435" 
d="M55 295q0 27 13.5 47.5t36.5 27.5q-23 7 -36.5 27.5t-13.5 47.5v155q0 42 29 71t71 29h125q42 0 71 -29t29 -71v-155q0 -27 -13.5 -47.5t-36.5 -27.5q23 -7 36.5 -27.5t13.5 -47.5v-195q0 -42 -29 -71t-71 -29h-125q-42 0 -71 29t-29 71v195zM305 600q0 25 -25 25h-125
q-25 0 -25 -25v-167q0 -25 25 -25h125q25 0 25 25v167zM305 308q0 25 -25 25h-125q-25 0 -25 -25v-208q0 -25 25 -25h125q25 0 25 25v208z" />
    <glyph glyph-name="nine" unicode="9" horiz-adv-x="435" 
d="M55 600q0 21 7.5 39t21 31.5t32 21.5t39.5 8h125q42 0 71 -29t29 -71v-500q0 -42 -29 -71t-71 -29h-125q-42 0 -71 29t-29 71v75h75v-75q0 -25 25 -25h125q25 0 25 25v242q-20 -50 -78 -50h-72q-21 0 -39.5 8t-32 21.5t-21 31.5t-7.5 39v208zM130 392q0 -25 25 -25h125
q25 0 25 25v208q0 25 -25 25h-125q-25 0 -25 -25v-208z" />
    <glyph glyph-name="colon" unicode=":" horiz-adv-x="190" 
d="M45 430q0 21 14.5 35.5t35.5 14.5t35.5 -14.5t14.5 -35.5t-14.5 -35.5t-35.5 -14.5t-35.5 14.5t-14.5 35.5zM45 40q0 21 14.5 35.5t35.5 14.5t35.5 -14.5t14.5 -35.5t-14.5 -35.5t-35.5 -14.5t-35.5 14.5t-14.5 35.5z" />
    <glyph glyph-name="semicolon" unicode=";" horiz-adv-x="190" 
d="M145 40q0 -10 -4 -20l-56 -120h-35l31 93q-11 2 -23.5 14t-12.5 33t14.5 35.5t35.5 14.5t35.5 -14.5t14.5 -35.5zM45 430q0 21 14.5 35.5t35.5 14.5t35.5 -14.5t14.5 -35.5t-14.5 -35.5t-35.5 -14.5t-35.5 14.5t-14.5 35.5z" />
    <glyph glyph-name="less" unicode="&#x3c;" horiz-adv-x="460" 
d="M99 233l331 -135v-72l-400 163v89l400 163v-72z" />
    <glyph glyph-name="equal" unicode="=" horiz-adv-x="460" 
d="M430 291h-400v67h400v-67zM430 111h-400v67h400v-67z" />
    <glyph glyph-name="greater" unicode="&#x3e;" horiz-adv-x="460" 
d="M30 98l331 135l-331 136v72l400 -163v-89l-400 -163v72z" />
    <glyph glyph-name="question" unicode="?" horiz-adv-x="385" 
d="M143 40q0 21 14.5 35.5t35.5 14.5t35.5 -14.5t14.5 -35.5t-14.5 -35.5t-35.5 -14.5t-35.5 14.5t-14.5 35.5zM355 523q0 -27 -9.5 -46t-29.5 -40l-120 -122q-8 -8 -8 -19t8 -19l53 -53l-53 -52l-51 49q-13 13 -21 31t-8 39q0 48 30 77l122 121q5 5 8.5 13.5t3.5 18.5v79
q0 25 -25 25h-125q-25 0 -25 -25v-88h-75v88q0 42 29 71t71 29h125q42 0 71 -29t29 -71v-77z" />
    <glyph glyph-name="at" unicode="@" horiz-adv-x="574" 
d="M428 0q-57 0 -72 45q-15 -45 -72 -45h-48q-37 0 -63.5 26.5t-26.5 63.5v290q0 37 26.5 63.5t63.5 26.5h48q58 0 72 -45v45h68v-417q0 -22 22 -22h20q22 0 22 22v309q0 42 -16 78.5t-43 63.5t-63.5 43t-78.5 16t-78.5 -16t-63.5 -43t-43 -63.5t-16 -78.5v-252
q0 -42 16 -78.5t43 -63.5t63.5 -43t78.5 -16q56 0 103 28l13 -27q-26 -15 -55 -23.5t-61 -8.5q-48 0 -90.5 18t-74 49.5t-49.5 74t-18 90.5v252q0 48 18 90t49.5 73.5t74 50t90.5 18.5t90 -18.5t73.5 -50t50 -74t18.5 -89.5v-310q0 -23 -13 -37.5t-40 -14.5h-38zM356 380
q0 22 -22 22h-98q-22 0 -22 -22v-290q0 -22 22 -22h98q22 0 22 22v290z" />
    <glyph glyph-name="A" unicode="A" horiz-adv-x="425" 
d="M131 188h162l-81 395zM309 113h-193l-23 -113h-76l150 700h91l150 -700h-76z" />
    <glyph glyph-name="B" unicode="B" horiz-adv-x="435" 
d="M380 100q0 -42 -29 -71t-71 -29h-225v700h225q42 0 71 -29t29 -71v-168q0 -22 -13.5 -38.5t-36.5 -23.5q23 -7 36.5 -23.5t13.5 -38.5v-208zM305 600q0 25 -25 25h-150v-218h150q25 0 25 25v168zM305 308q0 25 -25 25h-150v-258h150q25 0 25 25v208z" />
    <glyph glyph-name="C" unicode="C" horiz-adv-x="435" 
d="M380 100q0 -42 -29 -71t-71 -29h-125q-42 0 -71 29t-29 71v500q0 42 29 71t71 29h125q42 0 71 -29t29 -71v-88h-75v88q0 25 -25 25h-125q-25 0 -25 -25v-500q0 -25 25 -25h125q25 0 25 25v88h75v-88z" />
    <glyph glyph-name="D" unicode="D" horiz-adv-x="435" 
d="M380 100q0 -42 -29 -71t-71 -29h-225v700h225q42 0 71 -29t29 -71v-500zM305 600q0 25 -25 25h-150v-550h150q25 0 25 25v500z" />
    <glyph glyph-name="E" unicode="E" horiz-adv-x="360" 
d="M330 0h-275v700h275v-75h-200v-217h150v-75h-150v-258h200v-75z" />
    <glyph glyph-name="F" unicode="F" horiz-adv-x="360" 
d="M330 625h-200v-217h150v-76h-150v-332h-75v700h275v-75z" />
    <glyph glyph-name="G" unicode="G" horiz-adv-x="435" 
d="M380 100q0 -42 -29 -71t-71 -29h-125q-42 0 -71 29t-29 71v500q0 42 29 71t71 29h125q42 0 71 -29t29 -71v-100h-75v100q0 25 -25 25h-125q-25 0 -25 -25v-500q0 -25 25 -25h125q25 0 25 25v183h-88v75h163v-258z" />
    <glyph glyph-name="H" unicode="H" horiz-adv-x="435" 
d="M380 0h-75v333h-175v-333h-75v700h75v-292h175v292h75v-700z" />
    <glyph glyph-name="I" unicode="I" horiz-adv-x="185" 
d="M130 0h-75v700h75v-700z" />
    <glyph glyph-name="J" unicode="J" horiz-adv-x="386" 
d="M331 100q0 -42 -29 -71t-71 -29h-100q-42 0 -71 29t-29 71v100h75v-100q0 -25 25 -25h100q25 0 25 25v600h75v-600z" />
    <glyph glyph-name="K" unicode="K" horiz-adv-x="437" 
d="M251 379l180 -379h-86l-136 299l-79 -149v-150h-75v700h75v-409l207 409h83z" />
    <glyph glyph-name="L" unicode="L" horiz-adv-x="360" 
d="M330 0h-275v700h75v-625h200v-75z" />
    <glyph glyph-name="M" unicode="M" horiz-adv-x="553" 
d="M498 0h-75v532l-132 -482h-32l-129 482v-532h-75v700h101l119 -442l122 442h101v-700z" />
    <glyph glyph-name="N" unicode="N" horiz-adv-x="435" 
d="M380 0h-63l-187 518v-518h-75v700h83l167 -472v472h75v-700z" />
    <glyph glyph-name="O" unicode="O" horiz-adv-x="435" 
d="M380 100q0 -42 -29 -71t-71 -29h-125q-42 0 -71 29t-29 71v500q0 42 29 71t71 29h125q42 0 71 -29t29 -71v-500zM305 600q0 25 -25 25h-125q-25 0 -25 -25v-500q0 -25 25 -25h125q25 0 25 25v500z" />
    <glyph glyph-name="P" unicode="P" horiz-adv-x="410" 
d="M380 368q0 -21 -8 -39t-21.5 -31.5t-31.5 -21.5t-39 -8h-150v-268h-75v700h225q42 0 71 -29t29 -71v-232zM305 600q0 25 -25 25h-150v-282h150q25 0 25 25v232z" />
    <glyph glyph-name="Q" unicode="Q" horiz-adv-x="435" 
d="M380 100q0 -42 -29 -71t-71 -29h-25v-50q0 -25 25 -25h25v-75h-25q-42 0 -71 29t-29 71v50h-25q-42 0 -71 29t-29 71v500q0 42 29 71t71 29h125q42 0 71 -29t29 -71v-500zM305 600q0 25 -25 25h-125q-25 0 -25 -25v-500q0 -25 25 -25h125q25 0 25 25v500z" />
    <glyph glyph-name="R" unicode="R" horiz-adv-x="435" 
d="M305 600q0 25 -25 25h-150v-257h150q25 0 25 25v207zM380 393q0 -35 -20 -61t-52 -35l71 -297h-80l-64 293h-105v-293h-75v700h225q21 0 39 -8t31.5 -21.5t21.5 -31.5t8 -39v-207z" />
    <glyph glyph-name="S" unicode="S" horiz-adv-x="435" 
d="M305 200q0 21 -12 33l-204 203q-16 15 -25 38t-9 49v77q0 42 29 71t71 29h125q42 0 71 -29t29 -71v-100h-75v100q0 25 -25 25h-125q-25 0 -25 -25v-77q0 -20 12 -32l204 -203q16 -15 25 -38.5t9 -49.5v-100q0 -42 -29 -71t-71 -29h-125q-42 0 -71 29t-29 71v100h75v-100
q0 -11 7 -18t18 -7h125q25 0 25 25v100z" />
    <glyph glyph-name="T" unicode="T" horiz-adv-x="385" 
d="M355 625h-125v-625h-75v625h-125v75h325v-75z" />
    <glyph glyph-name="U" unicode="U" horiz-adv-x="435" 
d="M380 100q0 -42 -29 -71t-71 -29h-125q-42 0 -71 29t-29 71v600h75v-600q0 -25 25 -25h125q25 0 25 25v600h75v-600z" />
    <glyph glyph-name="V" unicode="V" horiz-adv-x="425" 
d="M213 117l119 583h76l-150 -700h-91l-150 700h76z" />
    <glyph glyph-name="W" unicode="W" horiz-adv-x="639" 
d="M622 700l-120 -700h-96l-87 506l-86 -506h-96l-120 700h75l97 -578l97 578h68l96 -578l99 578h73z" />
    <glyph glyph-name="X" unicode="X" horiz-adv-x="432" 
d="M425 0h-85l-124 295l-123 -295h-86l167 366l-151 334h82l111 -263l112 263h81l-150 -334z" />
    <glyph glyph-name="Y" unicode="Y" horiz-adv-x="384" 
d="M379 700l-151 -430v-270h-74v270l-149 430h79l108 -345l109 345h78z" />
    <glyph glyph-name="Z" unicode="Z" horiz-adv-x="393" 
d="M363 0h-333v75l242 550h-234v75h317v-75l-243 -550h251v-75z" />
    <glyph glyph-name="bracketleft" unicode="[" horiz-adv-x="237" 
d="M210 -151h-155v951h155v-49h-107v-853h107v-49z" />
    <glyph glyph-name="backslash" unicode="\" horiz-adv-x="307" 
d="M61 800l232 -951h-48l-231 951h47z" />
    <glyph glyph-name="bracketright" unicode="]" horiz-adv-x="284" 
d="M27 800h155v-951h-155v49h107v853h-107v49z" />
    <glyph glyph-name="asciicircum" unicode="^" horiz-adv-x="290" 
d="M266 551l-36 -36l-85 86l-85 -86l-36 36l121 120z" />
    <glyph glyph-name="underscore" unicode="_" horiz-adv-x="450" 
d="M450 -68h-450v68h450v-68z" />
    <glyph glyph-name="grave" unicode="`" 
d="M274 563l-35 -35l-125 125l35 35z" />
    <glyph glyph-name="a" unicode="a" 
d="M333 0h-68v38q-5 -17 -20.5 -27.5t-38.5 -10.5h-59q-18 0 -35 7t-29.5 19.5t-20 29t-7.5 34.5v100q0 40 26 65t64 25h61q23 0 38.5 -10.5t20.5 -27.5v138q0 22 -22 22h-154v68h154q19 0 35.5 -7t28.5 -19.5t19 -29t7 -34.5v-380zM265 190q0 22 -22 22h-97q-22 0 -22 -22
v-100q0 -22 22 -22h97q22 0 22 22v100z" />
    <glyph glyph-name="b" unicode="b" 
d="M333 90q0 -18 -7 -34.5t-19 -29t-28.5 -19.5t-35.5 -7h-48q-56 0 -72 45v-45h-68v700h68v-275q15 45 72 45h48q19 0 35.5 -7t28.5 -19.5t19 -29t7 -34.5v-290zM265 380q0 22 -22 22h-98q-22 0 -22 -22v-290q0 -22 22 -22h98q22 0 22 22v290z" />
    <glyph glyph-name="c" unicode="c" 
d="M333 90q0 -18 -7 -34.5t-19 -29t-28.5 -19.5t-35.5 -7h-98q-37 0 -63.5 26.5t-26.5 63.5v290q0 37 26.5 63.5t63.5 26.5h98q19 0 35.5 -7t28.5 -19.5t19 -29t7 -34.5v-78h-68v78q0 22 -22 22h-98q-22 0 -22 -22v-290q0 -22 22 -22h98q22 0 22 22v79h68v-79z" />
    <glyph glyph-name="d" unicode="d" 
d="M333 0h-68v45q-15 -45 -72 -45h-48q-37 0 -63.5 26.5t-26.5 63.5v290q0 37 26.5 63.5t63.5 26.5h48q58 0 72 -45v275h68v-700zM265 380q0 22 -22 22h-98q-22 0 -22 -22v-290q0 -22 22 -22h98q22 0 22 22v290z" />
    <glyph glyph-name="e" unicode="e" 
d="M333 192h-210v-102q0 -22 22 -22h155v-68h-155q-37 0 -63.5 26.5t-26.5 63.5v290q0 37 26.5 63.5t63.5 26.5h98q19 0 35.5 -7t28.5 -19.5t19 -29t7 -34.5v-188zM265 259v121q0 22 -22 22h-98q-22 0 -22 -22v-121h142z" />
    <glyph glyph-name="f" unicode="f" horiz-adv-x="269" 
d="M242 402h-90v-402h-68v402h-70v68h70v140q0 18 7 34.5t19 29t28.5 19.5t35.5 7h68v-68h-68q-22 0 -22 -22v-140h90v-68z" />
    <glyph glyph-name="g" unicode="g" 
d="M333 -60q0 -18 -7 -34.5t-19.5 -28.5t-29 -19.5t-34.5 -7.5h-132v68h132q22 0 22 22v105q-15 -45 -72 -45h-48q-37 0 -63.5 26.5t-26.5 63.5v290q0 37 26.5 63.5t63.5 26.5h48q58 0 72 -45v45h68v-530zM265 380q0 22 -22 22h-98q-22 0 -22 -22v-290q0 -22 22 -22h98
q22 0 22 22v290z" />
    <glyph glyph-name="h" unicode="h" 
d="M333 0h-68v380q0 22 -22 22h-98q-22 0 -22 -22v-380h-68v700h68v-275q15 45 72 45h48q38 0 64 -26t26 -64v-380z" />
    <glyph glyph-name="i" unicode="i" horiz-adv-x="178" 
d="M44 608q0 19 13.5 32.5t32.5 13.5t32.5 -13.5t13.5 -32.5t-13.5 -32.5t-32.5 -13.5t-32.5 13.5t-13.5 32.5zM123 0h-68v470h68v-470z" />
    <glyph glyph-name="j" unicode="j" horiz-adv-x="178" 
d="M44 608q0 19 13.5 32.5t32.5 13.5t32.5 -13.5t13.5 -32.5t-13.5 -32.5t-32.5 -13.5t-32.5 13.5t-13.5 32.5zM123 -60q0 -18 -7 -34.5t-19.5 -28.5t-29 -19.5t-34.5 -7.5h-68v68h68q22 0 22 22v530h68v-530z" />
    <glyph glyph-name="k" unicode="k" horiz-adv-x="348" 
d="M227 279l116 -279h-78l-78 209l-64 -110v-99h-68v700h68v-486l142 256h74z" />
    <glyph glyph-name="l" unicode="l" horiz-adv-x="178" 
d="M123 0h-68v700h68v-700z" />
    <glyph glyph-name="m" unicode="m" horiz-adv-x="568" 
d="M513 0h-68v380q0 22 -22 22h-83q-22 0 -22 -22v-380h-68v380q0 22 -22 22h-83q-22 0 -22 -22v-380h-68v470h68v-45q15 45 72 45h33q31 0 53 -12t27 -34q11 46 72 46h43q38 0 64 -26t26 -64v-380z" />
    <glyph glyph-name="n" unicode="n" 
d="M333 0h-68v380q0 22 -22 22h-98q-22 0 -22 -22v-380h-68v470h68v-45q15 45 72 45h48q38 0 64 -26t26 -64v-380z" />
    <glyph glyph-name="o" unicode="o" 
d="M333 90q0 -18 -7 -34.5t-19 -29t-28.5 -19.5t-35.5 -7h-98q-37 0 -63.5 26.5t-26.5 63.5v290q0 19 7 35.5t19.5 28.5t29 19t34.5 7h98q38 0 64 -26t26 -64v-290zM265 380q0 22 -22 22h-98q-22 0 -22 -22v-290q0 -22 22 -22h98q22 0 22 22v290z" />
    <glyph glyph-name="p" unicode="p" 
d="M333 90q0 -18 -7 -34.5t-19 -29t-28.5 -19.5t-35.5 -7h-48q-56 0 -72 45v-195h-68v620h68v-45q15 45 72 45h48q19 0 35.5 -7t28.5 -19.5t19 -29t7 -34.5v-290zM265 380q0 22 -22 22h-98q-22 0 -22 -22v-290q0 -22 22 -22h98q22 0 22 22v290z" />
    <glyph glyph-name="q" unicode="q" 
d="M333 -150h-68v195q-15 -45 -72 -45h-48q-37 0 -63.5 26.5t-26.5 63.5v290q0 37 26.5 63.5t63.5 26.5h48q58 0 72 -45v45h68v-620zM265 380q0 22 -22 22h-98q-22 0 -22 -22v-290q0 -22 22 -22h98q22 0 22 22v290z" />
    <glyph glyph-name="r" unicode="r" horiz-adv-x="256" 
d="M243 402h-98q-22 0 -22 -22v-380h-68v470h68v-45q15 45 72 45h48v-68z" />
    <glyph glyph-name="s" unicode="s" 
d="M265 148q0 17 -14 24l-141 68q-20 10 -37.5 28t-17.5 50v62q0 37 26.5 63.5t63.5 26.5h98q19 0 35.5 -7t28.5 -19.5t19 -29t7 -34.5v-58h-68v58q0 22 -22 22h-98q-22 0 -22 -22v-53q0 -18 14 -25l141 -68q20 -10 37.5 -28t17.5 -50v-66q0 -18 -7 -34.5t-19 -29
t-28.5 -19.5t-35.5 -7h-98q-37 0 -63.5 26.5t-26.5 63.5v58h68v-58q0 -22 22 -22h98q22 0 22 22v58z" />
    <glyph glyph-name="t" unicode="t" horiz-adv-x="269" 
d="M242 0h-68q-37 0 -63.5 26.5t-26.5 63.5v312h-70v68h70v140h68v-140h90v-68h-90v-312q0 -22 22 -22h68v-68z" />
    <glyph glyph-name="u" unicode="u" 
d="M333 0h-68v45q-15 -45 -72 -45h-48q-37 0 -63.5 26.5t-26.5 63.5v380h68v-380q0 -22 22 -22h98q22 0 22 22v380h68v-470z" />
    <glyph glyph-name="v" unicode="v" horiz-adv-x="364" 
d="M347 470l-118 -470h-94l-118 470h71l94 -392l94 392h71z" />
    <glyph glyph-name="w" unicode="w" horiz-adv-x="520" 
d="M503 470l-98 -470h-80l-65 311l-65 -311h-80l-98 470h71l73 -371l74 371h50l74 -371l73 371h71z" />
    <glyph glyph-name="x" unicode="x" horiz-adv-x="364" 
d="M347 0h-79l-86 186l-87 -186h-78l122 232l-122 238h78l87 -189l86 189h79l-122 -238z" />
    <glyph glyph-name="y" unicode="y" horiz-adv-x="363" 
d="M346 470l-174 -620h-74l47 150l-128 470h70l94 -374l94 374h71z" />
    <glyph glyph-name="z" unicode="z" horiz-adv-x="332" 
d="M305 0h-278v68l191 334h-183v68h263v-68l-189 -334h196v-68z" />
    <glyph glyph-name="braceleft" unicode="{" horiz-adv-x="251" 
d="M128 -90q0 -12 12 -12h95v-49h-92q-26 0 -44.5 19t-18.5 45v375q0 13 -13 13h-51v48h51q13 0 13 13v374q0 26 18.5 45t44.5 19h92v-49h-95q-12 0 -12 -12v-362q0 -22 -11 -35t-26 -17q15 -4 26 -17.5t11 -35.5v-362z" />
    <glyph glyph-name="bar" unicode="|" horiz-adv-x="130" 
d="M50 -200v1000h30v-1000h-30z" />
    <glyph glyph-name="braceright" unicode="}" horiz-adv-x="251" 
d="M123 272q0 22 11 35t26 17q-15 4 -26 17.5t-11 35.5v362q0 12 -12 12h-95v49h92q26 0 44.5 -19t18.5 -45v-375q0 -13 13 -13h51v-48h-51q-13 0 -13 -13v-374q0 -26 -18.5 -45t-44.5 -19h-92v49h95q12 0 12 12v362z" />
    <glyph glyph-name="asciitilde" unicode="~" horiz-adv-x="324" 
d="M24 570l59 60q7 8 16 11.5t18 3.5q21 0 36 -15l55 -54l58 57l34 -35l-57 -58q-14 -15 -34 -15q-21 0 -36 15l-55 54l-59 -58z" />
    <glyph glyph-name="uni00A0" unicode="&#xa0;" horiz-adv-x="200" 
 />
    <glyph glyph-name="exclamdown" unicode="&#xa1;" horiz-adv-x="211" 
d="M156 430q0 -21 -14.5 -35.5t-35.5 -14.5t-35.5 14.5t-14.5 35.5t14.5 35.5t35.5 14.5t35.5 -14.5t14.5 -35.5zM68 295h75v-525h-75v525z" />
    <glyph glyph-name="cent" unicode="&#xa2;" horiz-adv-x="435" 
d="M130 190q0 -25 25 -25h125q25 0 25 25v82h75v-82q0 -42 -29 -71t-71 -29h-30v-90h-65v90h-30q-42 0 -71 29t-29 71v320q0 42 29 71t71 29h30v90h65v-90h30q42 0 71 -29t29 -71v-79h-75v79q0 25 -25 25h-125q-25 0 -25 -25v-320z" />
    <glyph glyph-name="sterling" unicode="&#xa3;" horiz-adv-x="454" 
d="M408 100q0 -21 -8 -39t-21.5 -31.5t-31.5 -21.5t-39 -8h-277v75h53v258h-50v75h50v192q0 21 7.5 39t21 31.5t32 21.5t39.5 8h74q21 0 39 -8t31.5 -21.5t21.5 -31.5t8 -39v-75h-74v75q0 25 -25 25h-76q-25 0 -25 -25v-192h75v-75h-75v-258h151q25 0 25 25v75h74v-75z" />
    <glyph glyph-name="currency" unicode="&#xa4;" horiz-adv-x="571" 
d="M118 558l83 -83q8 3 16.5 5t18.5 2h98q17 0 36 -7l85 85l48 -48l-86 -86q3 -8 5 -16.5t2 -17.5v-98q0 -10 -2 -18.5t-5 -16.5l84 -84l-48 -48l-84 84q-15 -7 -35 -7h-98q-20 0 -34 7l-82 -82l-48 48l81 81q-7 15 -7 36v98q0 20 7 35l-83 83zM356 392q0 22 -22 22h-98
q-22 0 -22 -22v-98q0 -22 22 -22h98q22 0 22 22v98z" />
    <glyph glyph-name="yen" unicode="&#xa5;" horiz-adv-x="426" 
d="M17 400h113l-104 300h79l109 -345l109 345h78l-106 -300h114v-60h-135l-24 -70v-50h159v-60h-159v-160h-75v160h-158v60h158v50l-24 70h-134v60z" />
    <glyph glyph-name="brokenbar" unicode="&#xa6;" horiz-adv-x="130" 
d="M50 200h30v-400h-30v400zM50 400v400h30v-400h-30z" />
    <glyph glyph-name="section" unicode="&#xa7;" 
d="M265 378q0 4 -2.5 10t-9.5 9l-110 53q-6 3 -13 0.5t-7 -12.5v-102q0 -9 3 -13.5t12 -9.5l108 -51q7 -3 13 0.5t6 12.5v103zM333 320q0 -26 -13 -47t-35 -32q14 -11 19.5 -29t5.5 -44v-78q0 -38 -26 -64t-64 -26h-52q-38 0 -64 26t-26 64v59h68v-59q0 -22 22 -22h52
q22 0 22 22v79q0 15 -13 21l-104 47q-30 14 -50 36.5t-20 54.5v52q0 29 15.5 51.5t41.5 32.5q-34 26 -34 82v64q0 38 26 64t64 26h52q38 0 64 -26t26 -64v-58h-68v58q0 22 -22 22h-52q-22 0 -22 -22v-62q0 -8 3 -14t11 -10l120 -60q23 -11 38 -30t15 -48v-66z" />
    <glyph glyph-name="dieresis" unicode="&#xa8;" 
d="M219 608q0 19 13.5 32.5t32.5 13.5t32.5 -13.5t13.5 -32.5t-13.5 -32.5t-32.5 -13.5t-32.5 13.5t-13.5 32.5zM77 608q0 19 13.5 32.5t32.5 13.5t32.5 -13.5t13.5 -32.5t-13.5 -32.5t-32.5 -13.5t-32.5 13.5t-13.5 32.5z" />
    <glyph glyph-name="copyright" unicode="&#xa9;" horiz-adv-x="797" 
d="M69 350q0 -68 26 -128t70.5 -104.5t104.5 -70.5t128 -26t128 26t104.5 70.5t70.5 104.5t26 128t-26 128t-70.5 104.5t-104.5 70.5t-128 26t-128 -26t-104.5 -70.5t-70.5 -104.5t-26 -128zM757 350q0 -74 -28.5 -139.5t-77 -114.5t-114 -77t-139.5 -28t-139.5 28t-114 77
t-76.5 114.5t-28 139.5t28 139.5t76.5 114t114 77t139.5 28.5t139.5 -28.5t114 -77t77 -114t28.5 -139.5zM548 210q0 -26 -18.5 -45t-45.5 -19h-170q-27 0 -45.5 19t-18.5 45v280q0 26 18.5 45t45.5 19h170q27 0 45.5 -19t18.5 -45v-56h-48v60q0 11 -12 11h-178
q-12 0 -12 -11v-288q0 -11 12 -11h178q12 0 12 11v60h48v-56z" />
    <glyph glyph-name="ordfeminine" unicode="&#xaa;" horiz-adv-x="362" 
d="M55 196h252v-64h-252v64zM243 444q0 11 -7.5 18.5t-18.5 7.5h-71q-11 0 -18.5 -7.5t-7.5 -18.5v-74q0 -11 7.5 -18.5t18.5 -7.5h71q11 0 18.5 7.5t7.5 18.5v74zM243 318q-4 -17 -21.5 -27.5t-37.5 -10.5h-37q-18 0 -35 7t-29.5 19.5t-20 29t-7.5 34.5v74q0 42 26.5 66
t63.5 24h39q20 0 37.5 -10.5t21.5 -27.5v114q0 11 -7.5 18.5t-18.5 7.5h-117v64h117q38 0 64 -26t26 -64v-330h-64v38z" />
    <glyph glyph-name="guillemotleft" unicode="&#xab;" horiz-adv-x="373" 
d="M342 150l-35 -36l-121 121l121 121l35 -36l-85 -85zM186 150l-34 -36l-121 121l121 121l34 -36l-85 -85z" />
    <glyph glyph-name="logicalnot" unicode="&#xac;" horiz-adv-x="460" 
d="M430 111h-67v180h-333v67h400v-247z" />
    <glyph glyph-name="uni00AD" unicode="&#xad;" horiz-adv-x="271" 
d="M241 201h-211v68h211v-68z" />
    <glyph glyph-name="registered" unicode="&#xae;" horiz-adv-x="438" 
d="M374 529q0 32 -12 60.5t-33 49.5t-49.5 33t-60.5 12t-60 -12t-49 -33t-33.5 -49.5t-12.5 -60.5t12.5 -60t33.5 -49t49 -33t60 -12t60.5 12t49.5 33t33 49t12 60zM398 529q0 -37 -14 -69.5t-38.5 -57t-57 -38.5t-69.5 -14t-69.5 14t-57 38.5t-38.5 57t-14 69.5t14 70
t38.5 57.5t57 38.5t69.5 14t69.5 -14t57 -38.5t38.5 -57.5t14 -70zM295 430h-35l-45 71h-39v-71h-32v199h123q28 0 28 -28v-67q0 -14 -7 -23.5t-21 -9.5h-17zM263 533v64h-87v-64h87z" />
    <glyph glyph-name="macron" unicode="&#xaf;" 
d="M298 581h-208v50h208v-50z" />
    <glyph glyph-name="degree" unicode="&#xb0;" horiz-adv-x="248" 
d="M220 616q0 -20 -7.5 -37t-20.5 -30t-30.5 -20.5t-36.5 -7.5q-20 0 -38 7.5t-31 20.5t-20.5 30t-7.5 37q0 41 28 69t69 28q19 0 36.5 -7.5t30.5 -20.5t20.5 -31t7.5 -38zM185 616q0 26 -17.5 43t-42.5 17q-26 0 -43 -17t-17 -43q0 -25 17 -42.5t43 -17.5q25 0 42.5 17.5
t17.5 42.5z" />
    <glyph glyph-name="plusminus" unicode="&#xb1;" horiz-adv-x="460" 
d="M30 66h164v146h-164v67h164v167h67v-167h169v-67h-169v-146h169v-67h-400v67z" />
    <glyph glyph-name="uni00B2" unicode="&#xb2;" horiz-adv-x="305" 
d="M105 335h145v-55h-200v80q0 31 17 53l128 163q5 6 5 20v39q0 10 -10 10h-75q-10 0 -10 -10v-54h-55v54q0 29 18 47t47 18h75q29 0 47 -18t18 -47v-39q0 -31 -17 -53l-128 -163q-5 -6 -5 -20v-25z" />
    <glyph glyph-name="uni00B3" unicode="&#xb3;" horiz-adv-x="305" 
d="M255 345q0 -29 -18 -47t-47 -18h-75q-29 0 -47 18t-18 47v40h55v-40q0 -10 10 -10h75q10 0 10 10v120q0 10 -10 10h-90v55h90q10 0 10 10v95q0 10 -10 10h-75q-10 0 -10 -10v-40h-55v40q0 29 18 47t47 18h75q29 0 47 -18t18 -47v-87q0 -17 -9 -29.5t-26 -17.5
q14 -4 24.5 -15t10.5 -31v-110z" />
    <glyph glyph-name="acute" unicode="&#xb4;" 
d="M239 688l35 -35l-125 -125l-35 35z" />
    <glyph glyph-name="uni00B5" unicode="&#xb5;" 
d="M55 -150v620h68v-380q0 -22 22 -22h98q22 0 22 22v380h68v-470h-68v45q-15 -45 -70 -45q-57 0 -72 45v-195h-68z" />
    <glyph glyph-name="paragraph" unicode="&#xb6;" horiz-adv-x="437" 
d="M334 662v-813h-38v813h-63v-813h-38v512q-35 0 -66 13.5t-54 36.5t-36.5 54t-13.5 66t13.5 65.5t36.5 53.5t54 36.5t66 13.5h217v-38h-78z" />
    <glyph glyph-name="periodcentered" unicode="&#xb7;" horiz-adv-x="190" 
d="M45 235q0 21 14.5 35.5t35.5 14.5t35.5 -14.5t14.5 -35.5t-14.5 -35.5t-35.5 -14.5t-35.5 14.5t-14.5 35.5z" />
    <glyph glyph-name="cedilla" unicode="&#xb8;" 
d="M262 -115q0 -16 -11.5 -28t-27.5 -12h-97v50h86v30h-61v80h50v-35h61v-85z" />
    <glyph glyph-name="uni00B9" unicode="&#xb9;" horiz-adv-x="259" 
d="M222 280h-185v55h65v310h-65v55h120v-365h65v-55z" />
    <glyph glyph-name="ordmasculine" unicode="&#xba;" horiz-adv-x="363" 
d="M55 196h252v-64h-252v64zM243 610q0 25 -25 25h-73q-25 0 -25 -25v-240q0 -25 25 -25h73q25 0 25 25v240zM308 370q0 -38 -26 -64t-64 -26h-73q-38 0 -64 26t-26 64v240q0 38 26 64t64 26h73q38 0 64 -26t26 -64v-240z" />
    <glyph glyph-name="guillemotright" unicode="&#xbb;" horiz-adv-x="373" 
d="M31 320l35 36l121 -121l-121 -121l-35 36l85 85zM187 320l34 36l121 -121l-121 -121l-34 36l85 85z" />
    <glyph glyph-name="onequarter" unicode="&#xbc;" horiz-adv-x="587" 
d="M222 280h-185v55h65v310h-65v55h120v-365h65v-55zM438 700l-232 -700h-53l232 700h53zM550 92h-30v-92h-55v92h-135v51l132 277h58v-273h30v-55zM465 147v172l-78 -172h78z" />
    <glyph glyph-name="onehalf" unicode="&#xbd;" horiz-adv-x="638" 
d="M222 280h-185v55h65v310h-65v55h120v-365h65v-55zM438 700l-232 -700h-53l232 700h53zM438 55h145v-55h-200v80q0 31 17 53l128 163q5 6 5 20v39q0 10 -10 10h-75q-10 0 -10 -10v-54h-55v54q0 29 18 47t47 18h75q29 0 47 -18t18 -47v-39q0 -31 -17 -53l-128 -163
q-5 -6 -5 -20v-25z" />
    <glyph glyph-name="threequarters" unicode="&#xbe;" horiz-adv-x="633" 
d="M255 345q0 -29 -18 -47t-47 -18h-75q-29 0 -47 18t-18 47v40h55v-40q0 -10 10 -10h75q10 0 10 10v120q0 10 -10 10h-90v55h90q10 0 10 10v95q0 10 -10 10h-75q-10 0 -10 -10v-40h-55v40q0 29 18 47t47 18h75q29 0 47 -18t18 -47v-87q0 -17 -9 -29.5t-26 -17.5
q14 -4 24.5 -15t10.5 -31v-110zM484 700l-232 -700h-53l232 700h53zM596 92h-30v-92h-55v92h-135v51l132 277h58v-273h30v-55zM511 147v172l-78 -172h78z" />
    <glyph glyph-name="questiondown" unicode="&#xbf;" horiz-adv-x="385" 
d="M242 430q0 -21 -14.5 -35.5t-35.5 -14.5t-35.5 14.5t-14.5 35.5t14.5 35.5t35.5 14.5t35.5 -14.5t14.5 -35.5zM30 -53q0 27 9.5 46t29.5 40l120 122q8 8 8 19t-8 19l-53 53l53 52l51 -49q13 -13 21 -31t8 -39q0 -48 -30 -77l-122 -121q-5 -5 -8.5 -13.5t-3.5 -18.5v-79
q0 -25 25 -25h125q25 0 25 25v88h75v-88q0 -42 -29 -71t-71 -29h-125q-42 0 -71 29t-29 71v77z" />
    <glyph glyph-name="Agrave" unicode="&#xc0;" horiz-adv-x="425" 
d="M131 188h162l-81 395zM309 113h-193l-23 -113h-76l150 700h91l150 -700h-76zM292 793l-35 -35l-125 125l35 35z" />
    <glyph glyph-name="Aacute" unicode="&#xc1;" horiz-adv-x="425" 
d="M131 188h162l-81 395zM309 113h-193l-23 -113h-76l150 700h91l150 -700h-76zM257 918l35 -35l-125 -125l-35 35z" />
    <glyph glyph-name="Acircumflex" unicode="&#xc2;" horiz-adv-x="425" 
d="M131 188h162l-81 395zM309 113h-193l-23 -113h-76l150 700h91l150 -700h-76zM333 794l-36 -36l-85 86l-85 -86l-36 36l121 120z" />
    <glyph glyph-name="Atilde" unicode="&#xc3;" horiz-adv-x="425" 
d="M131 188h162l-81 395zM309 113h-193l-23 -113h-76l150 700h91l150 -700h-76zM74 822l59 60q7 8 16 11.5t18 3.5q21 0 36 -15l55 -54l58 57l34 -35l-57 -58q-14 -15 -34 -15q-21 0 -36 15l-55 54l-59 -58z" />
    <glyph glyph-name="Adieresis" unicode="&#xc4;" horiz-adv-x="425" 
d="M131 188h162l-81 395zM309 113h-193l-23 -113h-76l150 700h91l150 -700h-76zM237 838q0 19 13.5 32.5t32.5 13.5t32.5 -13.5t13.5 -32.5t-13.5 -32.5t-32.5 -13.5t-32.5 13.5t-13.5 32.5zM95 838q0 19 13.5 32.5t32.5 13.5t32.5 -13.5t13.5 -32.5t-13.5 -32.5
t-32.5 -13.5t-32.5 13.5t-13.5 32.5z" />
    <glyph glyph-name="Aring" unicode="&#xc5;" horiz-adv-x="425" 
d="M131 188h162l-81 395zM309 113h-193l-23 -113h-76l150 700h91l150 -700h-76zM172 827q0 -17 12 -29t29 -12t29 12t12 29t-12 29t-29 12t-29 -12t-12 -29zM290 827q0 -32 -22.5 -55t-54.5 -23t-55 23t-23 55t23 54.5t55 22.5t54.5 -22.5t22.5 -54.5z" />
    <glyph glyph-name="AE" unicode="&#xc6;" horiz-adv-x="645" 
d="M614 0h-275v113h-197l-50 -113h-83l307 700h298v-75h-200v-217h150v-75h-150v-258h200v-75zM339 188v392l-164 -392h164z" />
    <glyph glyph-name="Ccedilla" unicode="&#xc7;" horiz-adv-x="435" 
d="M285 -115q0 -16 -11.5 -28t-27.5 -12h-97v50h86v30h-61v75h-19q-42 0 -71 29t-29 71v500q0 42 29 71t71 29h125q42 0 71 -29t29 -71v-88h-75v88q0 25 -25 25h-125q-25 0 -25 -25v-500q0 -25 25 -25h125q25 0 25 25v88h75v-88q0 -42 -29 -71t-71 -29h-56v-30h61v-85z" />
    <glyph glyph-name="Egrave" unicode="&#xc8;" horiz-adv-x="360" 
d="M330 0h-275v700h275v-75h-200v-217h150v-75h-150v-258h200v-75zM274 793l-35 -35l-125 125l35 35z" />
    <glyph glyph-name="Eacute" unicode="&#xc9;" horiz-adv-x="360" 
d="M330 0h-275v700h275v-75h-200v-217h150v-75h-150v-258h200v-75zM239 918l35 -35l-125 -125l-35 35z" />
    <glyph glyph-name="Ecircumflex" unicode="&#xca;" horiz-adv-x="360" 
d="M330 0h-275v700h275v-75h-200v-217h150v-75h-150v-258h200v-75zM315 794l-36 -36l-85 86l-85 -86l-36 36l121 120z" />
    <glyph glyph-name="Edieresis" unicode="&#xcb;" horiz-adv-x="360" 
d="M330 0h-275v700h275v-75h-200v-217h150v-75h-150v-258h200v-75zM219 838q0 19 13.5 32.5t32.5 13.5t32.5 -13.5t13.5 -32.5t-13.5 -32.5t-32.5 -13.5t-32.5 13.5t-13.5 32.5zM77 838q0 19 13.5 32.5t32.5 13.5t32.5 -13.5t13.5 -32.5t-13.5 -32.5t-32.5 -13.5t-32.5 13.5
t-13.5 32.5z" />
    <glyph glyph-name="Igrave" unicode="&#xcc;" horiz-adv-x="185" 
d="M130 0h-75v700h75v-700zM174 793l-35 -35l-125 125l35 35z" />
    <glyph glyph-name="Iacute" unicode="&#xcd;" horiz-adv-x="185" 
d="M130 0h-75v700h75v-700zM139 918l35 -35l-125 -125l-35 35z" />
    <glyph glyph-name="Icircumflex" unicode="&#xce;" horiz-adv-x="185" 
d="M130 0h-75v700h75v-700zM215 794l-36 -36l-85 86l-85 -86l-36 36l121 120z" />
    <glyph glyph-name="Idieresis" unicode="&#xcf;" horiz-adv-x="185" 
d="M130 0h-75v700h75v-700zM119 838q0 19 13.5 32.5t32.5 13.5t32.5 -13.5t13.5 -32.5t-13.5 -32.5t-32.5 -13.5t-32.5 13.5t-13.5 32.5zM-23 838q0 19 13.5 32.5t32.5 13.5t32.5 -13.5t13.5 -32.5t-13.5 -32.5t-32.5 -13.5t-32.5 13.5t-13.5 32.5z" />
    <glyph glyph-name="Eth" unicode="&#xd0;" horiz-adv-x="435" 
d="M198 345h-68v-270h150q25 0 25 25v500q0 25 -25 25h-150v-230h68v-50zM380 100q0 -42 -29 -71t-71 -29h-225v345h-65v50h65v305h225q42 0 71 -29t29 -71v-500z" />
    <glyph glyph-name="Ntilde" unicode="&#xd1;" horiz-adv-x="435" 
d="M380 0h-63l-187 518v-518h-75v700h83l167 -472v472h75v-700zM79 822l59 60q7 8 16 11.5t18 3.5q21 0 36 -15l55 -54l58 57l34 -35l-57 -58q-14 -15 -34 -15q-21 0 -36 15l-55 54l-59 -58z" />
    <glyph glyph-name="Ograve" unicode="&#xd2;" horiz-adv-x="435" 
d="M380 100q0 -42 -29 -71t-71 -29h-125q-42 0 -71 29t-29 71v500q0 42 29 71t71 29h125q42 0 71 -29t29 -71v-500zM305 600q0 25 -25 25h-125q-25 0 -25 -25v-500q0 -25 25 -25h125q25 0 25 25v500zM297 793l-35 -35l-125 125l35 35z" />
    <glyph glyph-name="Oacute" unicode="&#xd3;" horiz-adv-x="435" 
d="M380 100q0 -42 -29 -71t-71 -29h-125q-42 0 -71 29t-29 71v500q0 42 29 71t71 29h125q42 0 71 -29t29 -71v-500zM305 600q0 25 -25 25h-125q-25 0 -25 -25v-500q0 -25 25 -25h125q25 0 25 25v500zM262 918l35 -35l-125 -125l-35 35z" />
    <glyph glyph-name="Ocircumflex" unicode="&#xd4;" horiz-adv-x="435" 
d="M380 100q0 -42 -29 -71t-71 -29h-125q-42 0 -71 29t-29 71v500q0 42 29 71t71 29h125q42 0 71 -29t29 -71v-500zM305 600q0 25 -25 25h-125q-25 0 -25 -25v-500q0 -25 25 -25h125q25 0 25 25v500zM338 794l-36 -36l-85 86l-85 -86l-36 36l121 120z" />
    <glyph glyph-name="Otilde" unicode="&#xd5;" horiz-adv-x="435" 
d="M380 100q0 -42 -29 -71t-71 -29h-125q-42 0 -71 29t-29 71v500q0 42 29 71t71 29h125q42 0 71 -29t29 -71v-500zM305 600q0 25 -25 25h-125q-25 0 -25 -25v-500q0 -25 25 -25h125q25 0 25 25v500zM79 822l59 60q7 8 16 11.5t18 3.5q21 0 36 -15l55 -54l58 57l34 -35
l-57 -58q-14 -15 -34 -15q-21 0 -36 15l-55 54l-59 -58z" />
    <glyph glyph-name="Odieresis" unicode="&#xd6;" horiz-adv-x="435" 
d="M380 100q0 -42 -29 -71t-71 -29h-125q-42 0 -71 29t-29 71v500q0 42 29 71t71 29h125q42 0 71 -29t29 -71v-500zM305 600q0 25 -25 25h-125q-25 0 -25 -25v-500q0 -25 25 -25h125q25 0 25 25v500zM242 838q0 19 13.5 32.5t32.5 13.5t32.5 -13.5t13.5 -32.5t-13.5 -32.5
t-32.5 -13.5t-32.5 13.5t-13.5 32.5zM100 838q0 19 13.5 32.5t32.5 13.5t32.5 -13.5t13.5 -32.5t-13.5 -32.5t-32.5 -13.5t-32.5 13.5t-13.5 32.5z" />
    <glyph glyph-name="multiply" unicode="&#xd7;" horiz-adv-x="461" 
d="M397 353l-120 -119l118 -117l-48 -48l-117 117l-116 -116l-48 48l116 116l-118 118l48 48l118 -118l119 119z" />
    <glyph glyph-name="Oslash" unicode="&#xd8;" horiz-adv-x="435" 
d="M305 514l-171 -429q6 -10 21 -10h125q25 0 25 25v414zM130 184l171 430q-6 11 -21 11h-125q-25 0 -25 -25v-416zM408 773l-46 -116q18 -26 18 -57v-500q0 -42 -29 -71t-71 -29h-125q-28 0 -50 13l-34 -87h-44l46 116q-8 13 -13 27t-5 31v500q0 42 29 71t71 29h125
q26 0 50 -13l34 86h44z" />
    <glyph glyph-name="Ugrave" unicode="&#xd9;" horiz-adv-x="435" 
d="M380 100q0 -42 -29 -71t-71 -29h-125q-42 0 -71 29t-29 71v600h75v-600q0 -25 25 -25h125q25 0 25 25v600h75v-600zM297 793l-35 -35l-125 125l35 35z" />
    <glyph glyph-name="Uacute" unicode="&#xda;" horiz-adv-x="435" 
d="M380 100q0 -42 -29 -71t-71 -29h-125q-42 0 -71 29t-29 71v600h75v-600q0 -25 25 -25h125q25 0 25 25v600h75v-600zM262 918l35 -35l-125 -125l-35 35z" />
    <glyph glyph-name="Ucircumflex" unicode="&#xdb;" horiz-adv-x="435" 
d="M380 100q0 -42 -29 -71t-71 -29h-125q-42 0 -71 29t-29 71v600h75v-600q0 -25 25 -25h125q25 0 25 25v600h75v-600zM338 794l-36 -36l-85 86l-85 -86l-36 36l121 120z" />
    <glyph glyph-name="Udieresis" unicode="&#xdc;" horiz-adv-x="435" 
d="M380 100q0 -42 -29 -71t-71 -29h-125q-42 0 -71 29t-29 71v600h75v-600q0 -25 25 -25h125q25 0 25 25v600h75v-600zM242 838q0 19 13.5 32.5t32.5 13.5t32.5 -13.5t13.5 -32.5t-13.5 -32.5t-32.5 -13.5t-32.5 13.5t-13.5 32.5zM100 838q0 19 13.5 32.5t32.5 13.5
t32.5 -13.5t13.5 -32.5t-13.5 -32.5t-32.5 -13.5t-32.5 13.5t-13.5 32.5z" />
    <glyph glyph-name="Yacute" unicode="&#xdd;" horiz-adv-x="384" 
d="M379 700l-151 -430v-270h-74v270l-149 430h79l108 -345l109 345h78zM239 918l35 -35l-125 -125l-35 35z" />
    <glyph glyph-name="Thorn" unicode="&#xde;" horiz-adv-x="410" 
d="M380 230q0 -21 -8 -39t-21.5 -31.5t-31.5 -21.5t-39 -8h-150v-130h-75v700h75v-138h150q21 0 39 -8t31.5 -21.5t21.5 -31.5t8 -39v-232zM305 462q0 25 -25 25h-150v-282h150q25 0 25 25v232z" />
    <glyph glyph-name="germandbls" unicode="&#xdf;" 
d="M333 90q0 -38 -26 -64t-64 -26h-49v68h49q22 0 22 22v290q0 23 -22 23h-49v67h49q22 0 22 22v118q0 22 -22 22h-98q-22 0 -22 -22v-610h-68v610q0 37 26.5 63.5t63.5 26.5h98q19 0 35.5 -7t28.5 -19.5t19 -29t7 -34.5v-95q0 -36 -17 -57t-39 -21q22 0 39 -21t17 -57v-269
z" />
    <glyph glyph-name="agrave" unicode="&#xe0;" 
d="M333 0h-68v38q-5 -17 -20.5 -27.5t-38.5 -10.5h-59q-18 0 -35 7t-29.5 19.5t-20 29t-7.5 34.5v100q0 40 26 65t64 25h61q23 0 38.5 -10.5t20.5 -27.5v138q0 22 -22 22h-154v68h154q19 0 35.5 -7t28.5 -19.5t19 -29t7 -34.5v-380zM265 190q0 22 -22 22h-97q-22 0 -22 -22
v-100q0 -22 22 -22h97q22 0 22 22v100zM274 563l-35 -35l-125 125l35 35z" />
    <glyph glyph-name="aacute" unicode="&#xe1;" 
d="M333 0h-68v38q-5 -17 -20.5 -27.5t-38.5 -10.5h-59q-18 0 -35 7t-29.5 19.5t-20 29t-7.5 34.5v100q0 40 26 65t64 25h61q23 0 38.5 -10.5t20.5 -27.5v138q0 22 -22 22h-154v68h154q19 0 35.5 -7t28.5 -19.5t19 -29t7 -34.5v-380zM265 190q0 22 -22 22h-97q-22 0 -22 -22
v-100q0 -22 22 -22h97q22 0 22 22v100zM239 688l35 -35l-125 -125l-35 35z" />
    <glyph glyph-name="acircumflex" unicode="&#xe2;" 
d="M333 0h-68v38q-5 -17 -20.5 -27.5t-38.5 -10.5h-59q-18 0 -35 7t-29.5 19.5t-20 29t-7.5 34.5v100q0 40 26 65t64 25h61q23 0 38.5 -10.5t20.5 -27.5v138q0 22 -22 22h-154v68h154q19 0 35.5 -7t28.5 -19.5t19 -29t7 -34.5v-380zM265 190q0 22 -22 22h-97q-22 0 -22 -22
v-100q0 -22 22 -22h97q22 0 22 22v100zM315 564l-36 -36l-85 86l-85 -86l-36 36l121 120z" />
    <glyph glyph-name="atilde" unicode="&#xe3;" 
d="M333 0h-68v38q-5 -17 -20.5 -27.5t-38.5 -10.5h-59q-18 0 -35 7t-29.5 19.5t-20 29t-7.5 34.5v100q0 40 26 65t64 25h61q23 0 38.5 -10.5t20.5 -27.5v138q0 22 -22 22h-154v68h154q19 0 35.5 -7t28.5 -19.5t19 -29t7 -34.5v-380zM265 190q0 22 -22 22h-97q-22 0 -22 -22
v-100q0 -22 22 -22h97q22 0 22 22v100zM56 592l59 60q7 8 16 11.5t18 3.5q21 0 36 -15l55 -54l58 57l34 -35l-57 -58q-14 -15 -34 -15q-21 0 -36 15l-55 54l-59 -58z" />
    <glyph glyph-name="adieresis" unicode="&#xe4;" 
d="M333 0h-68v38q-5 -17 -20.5 -27.5t-38.5 -10.5h-59q-18 0 -35 7t-29.5 19.5t-20 29t-7.5 34.5v100q0 40 26 65t64 25h61q23 0 38.5 -10.5t20.5 -27.5v138q0 22 -22 22h-154v68h154q19 0 35.5 -7t28.5 -19.5t19 -29t7 -34.5v-380zM265 190q0 22 -22 22h-97q-22 0 -22 -22
v-100q0 -22 22 -22h97q22 0 22 22v100zM219 608q0 19 13.5 32.5t32.5 13.5t32.5 -13.5t13.5 -32.5t-13.5 -32.5t-32.5 -13.5t-32.5 13.5t-13.5 32.5zM77 608q0 19 13.5 32.5t32.5 13.5t32.5 -13.5t13.5 -32.5t-13.5 -32.5t-32.5 -13.5t-32.5 13.5t-13.5 32.5z" />
    <glyph glyph-name="aring" unicode="&#xe5;" 
d="M333 0h-68v38q-5 -17 -20.5 -27.5t-38.5 -10.5h-59q-18 0 -35 7t-29.5 19.5t-20 29t-7.5 34.5v100q0 40 26 65t64 25h61q23 0 38.5 -10.5t20.5 -27.5v138q0 22 -22 22h-154v68h154q19 0 35.5 -7t28.5 -19.5t19 -29t7 -34.5v-380zM265 190q0 22 -22 22h-97q-22 0 -22 -22
v-100q0 -22 22 -22h97q22 0 22 22v100zM154 597q0 -17 12 -29t29 -12t29 12t12 29t-12 29t-29 12t-29 -12t-12 -29zM272 597q0 -32 -22.5 -55t-54.5 -23t-55 23t-23 55t23 54.5t55 22.5t54.5 -22.5t22.5 -54.5z" />
    <glyph glyph-name="ae" unicode="&#xe6;" horiz-adv-x="598" 
d="M265 380q0 22 -22 22h-154v68h150q52 0 60 -48q7 48 61 48h93q37 0 63.5 -26.5t26.5 -63.5v-188h-210v-102q0 -22 22 -22h155v-68h-150q-54 0 -61 48q-8 -48 -60 -48h-92q-18 0 -35 7t-29.5 19.5t-20 29t-7.5 34.5v99q0 40 26 65t64 25h61q23 0 38.5 -10.5t20.5 -27.5
v139zM475 259v121q0 22 -22 22h-98q-22 0 -22 -22v-121h142zM265 189q0 22 -22 22h-97q-22 0 -22 -22v-99q0 -22 22 -22h97q22 0 22 22v99z" />
    <glyph glyph-name="ccedilla" unicode="&#xe7;" 
d="M262 -115q0 -16 -11.5 -28t-27.5 -12h-97v50h86v30h-61v75h-6q-37 0 -63.5 26.5t-26.5 63.5v290q0 37 26.5 63.5t63.5 26.5h98q19 0 35.5 -7t28.5 -19.5t19 -29t7 -34.5v-78h-68v78q0 22 -22 22h-98q-22 0 -22 -22v-290q0 -22 22 -22h98q22 0 22 22v79h68v-79
q0 -18 -7 -34.5t-19 -29t-28.5 -19.5t-35.5 -7h-42v-30h61v-85z" />
    <glyph glyph-name="egrave" unicode="&#xe8;" 
d="M333 192h-210v-102q0 -22 22 -22h155v-68h-155q-37 0 -63.5 26.5t-26.5 63.5v290q0 37 26.5 63.5t63.5 26.5h98q19 0 35.5 -7t28.5 -19.5t19 -29t7 -34.5v-188zM265 259v121q0 22 -22 22h-98q-22 0 -22 -22v-121h142zM274 563l-35 -35l-125 125l35 35z" />
    <glyph glyph-name="eacute" unicode="&#xe9;" 
d="M333 192h-210v-102q0 -22 22 -22h155v-68h-155q-37 0 -63.5 26.5t-26.5 63.5v290q0 37 26.5 63.5t63.5 26.5h98q19 0 35.5 -7t28.5 -19.5t19 -29t7 -34.5v-188zM265 259v121q0 22 -22 22h-98q-22 0 -22 -22v-121h142zM239 688l35 -35l-125 -125l-35 35z" />
    <glyph glyph-name="ecircumflex" unicode="&#xea;" 
d="M333 192h-210v-102q0 -22 22 -22h155v-68h-155q-37 0 -63.5 26.5t-26.5 63.5v290q0 37 26.5 63.5t63.5 26.5h98q19 0 35.5 -7t28.5 -19.5t19 -29t7 -34.5v-188zM265 259v121q0 22 -22 22h-98q-22 0 -22 -22v-121h142zM315 564l-36 -36l-85 86l-85 -86l-36 36l121 120z
" />
    <glyph glyph-name="edieresis" unicode="&#xeb;" 
d="M333 192h-210v-102q0 -22 22 -22h155v-68h-155q-37 0 -63.5 26.5t-26.5 63.5v290q0 37 26.5 63.5t63.5 26.5h98q19 0 35.5 -7t28.5 -19.5t19 -29t7 -34.5v-188zM265 259v121q0 22 -22 22h-98q-22 0 -22 -22v-121h142zM219 608q0 19 13.5 32.5t32.5 13.5t32.5 -13.5
t13.5 -32.5t-13.5 -32.5t-32.5 -13.5t-32.5 13.5t-13.5 32.5zM77 608q0 19 13.5 32.5t32.5 13.5t32.5 -13.5t13.5 -32.5t-13.5 -32.5t-32.5 -13.5t-32.5 13.5t-13.5 32.5z" />
    <glyph glyph-name="igrave" unicode="&#xec;" horiz-adv-x="178" 
d="M123 0h-68v470h68v-470zM171 563l-35 -35l-125 125l35 35z" />
    <glyph glyph-name="iacute" unicode="&#xed;" horiz-adv-x="178" 
d="M123 0h-68v470h68v-470zM136 688l35 -35l-125 -125l-35 35z" />
    <glyph glyph-name="icircumflex" unicode="&#xee;" horiz-adv-x="178" 
d="M123 0h-68v470h68v-470zM212 564l-36 -36l-85 86l-85 -86l-36 36l121 120z" />
    <glyph glyph-name="idieresis" unicode="&#xef;" horiz-adv-x="178" 
d="M123 0h-68v470h68v-470zM116 608q0 19 13.5 32.5t32.5 13.5t32.5 -13.5t13.5 -32.5t-13.5 -32.5t-32.5 -13.5t-32.5 13.5t-13.5 32.5zM-26 608q0 19 13.5 32.5t32.5 13.5t32.5 -13.5t13.5 -32.5t-13.5 -32.5t-32.5 -13.5t-32.5 13.5t-13.5 32.5z" />
    <glyph glyph-name="eth" unicode="&#xf0;" horiz-adv-x="378" 
d="M271 380q0 22 -22 22h-98q-22 0 -22 -22v-290q0 -22 22 -22h98q22 0 22 22v290zM324 616l-57 -27l56 -119q10 -20 13 -39.5t3 -50.5v-290q0 -18 -7 -34.5t-19 -29t-28.5 -19.5t-35.5 -7h-98q-37 0 -63.5 26.5t-26.5 63.5v290q0 37 26.5 63.5t63.5 26.5h52q21 0 34.5 -6
t21.5 -15l-53 112l-73 -34l-27 59l73 34l-38 80h74l24 -52l58 27z" />
    <glyph glyph-name="ntilde" unicode="&#xf1;" 
d="M333 0h-68v380q0 22 -22 22h-98q-22 0 -22 -22v-380h-68v470h68v-45q15 45 72 45h48q38 0 64 -26t26 -64v-380zM56 592l59 60q7 8 16 11.5t18 3.5q21 0 36 -15l55 -54l58 57l34 -35l-57 -58q-14 -15 -34 -15q-21 0 -36 15l-55 54l-59 -58z" />
    <glyph glyph-name="ograve" unicode="&#xf2;" 
d="M333 90q0 -18 -7 -34.5t-19 -29t-28.5 -19.5t-35.5 -7h-98q-37 0 -63.5 26.5t-26.5 63.5v290q0 19 7 35.5t19.5 28.5t29 19t34.5 7h98q38 0 64 -26t26 -64v-290zM265 380q0 22 -22 22h-98q-22 0 -22 -22v-290q0 -22 22 -22h98q22 0 22 22v290zM274 563l-35 -35l-125 125
l35 35z" />
    <glyph glyph-name="oacute" unicode="&#xf3;" 
d="M333 90q0 -18 -7 -34.5t-19 -29t-28.5 -19.5t-35.5 -7h-98q-37 0 -63.5 26.5t-26.5 63.5v290q0 19 7 35.5t19.5 28.5t29 19t34.5 7h98q38 0 64 -26t26 -64v-290zM265 380q0 22 -22 22h-98q-22 0 -22 -22v-290q0 -22 22 -22h98q22 0 22 22v290zM239 688l35 -35l-125 -125
l-35 35z" />
    <glyph glyph-name="ocircumflex" unicode="&#xf4;" 
d="M333 90q0 -18 -7 -34.5t-19 -29t-28.5 -19.5t-35.5 -7h-98q-37 0 -63.5 26.5t-26.5 63.5v290q0 19 7 35.5t19.5 28.5t29 19t34.5 7h98q38 0 64 -26t26 -64v-290zM265 380q0 22 -22 22h-98q-22 0 -22 -22v-290q0 -22 22 -22h98q22 0 22 22v290zM315 564l-36 -36l-85 86
l-85 -86l-36 36l121 120z" />
    <glyph glyph-name="otilde" unicode="&#xf5;" 
d="M333 90q0 -18 -7 -34.5t-19 -29t-28.5 -19.5t-35.5 -7h-98q-37 0 -63.5 26.5t-26.5 63.5v290q0 19 7 35.5t19.5 28.5t29 19t34.5 7h98q38 0 64 -26t26 -64v-290zM265 380q0 22 -22 22h-98q-22 0 -22 -22v-290q0 -22 22 -22h98q22 0 22 22v290zM56 592l59 60q7 8 16 11.5
t18 3.5q21 0 36 -15l55 -54l58 57l34 -35l-57 -58q-14 -15 -34 -15q-21 0 -36 15l-55 54l-59 -58z" />
    <glyph glyph-name="odieresis" unicode="&#xf6;" 
d="M333 90q0 -18 -7 -34.5t-19 -29t-28.5 -19.5t-35.5 -7h-98q-37 0 -63.5 26.5t-26.5 63.5v290q0 19 7 35.5t19.5 28.5t29 19t34.5 7h98q38 0 64 -26t26 -64v-290zM265 380q0 22 -22 22h-98q-22 0 -22 -22v-290q0 -22 22 -22h98q22 0 22 22v290zM219 608q0 19 13.5 32.5
t32.5 13.5t32.5 -13.5t13.5 -32.5t-13.5 -32.5t-32.5 -13.5t-32.5 13.5t-13.5 32.5zM77 608q0 19 13.5 32.5t32.5 13.5t32.5 -13.5t13.5 -32.5t-13.5 -32.5t-32.5 -13.5t-32.5 13.5t-13.5 32.5z" />
    <glyph glyph-name="divide" unicode="&#xf7;" horiz-adv-x="460" 
d="M177 404q0 21 14.5 35.5t35.5 14.5t35.5 -14.5t14.5 -35.5t-14.5 -35.5t-35.5 -14.5t-35.5 14.5t-14.5 35.5zM177 64q0 21 14.5 35.5t35.5 14.5t35.5 -14.5t14.5 -35.5t-14.5 -35.5t-35.5 -14.5t-35.5 14.5t-14.5 35.5zM30 201v67h400v-67h-400z" />
    <glyph glyph-name="oslash" unicode="&#xf8;" 
d="M265 321l-139 -244q4 -9 19 -9h98q22 0 22 22v231zM123 147l139 245q-4 10 -19 10h-98q-22 0 -22 -22v-233zM66 47q-11 20 -11 43v290q0 19 7 35.5t19.5 28.5t29 19t34.5 7h98q31 0 54 -17l40 70h43l-57 -101q10 -20 10 -42v-290q0 -18 -7 -34.5t-19 -29t-28.5 -19.5
t-35.5 -7h-98q-30 0 -53 17l-40 -70h-43z" />
    <glyph glyph-name="ugrave" unicode="&#xf9;" 
d="M333 0h-68v45q-15 -45 -72 -45h-48q-37 0 -63.5 26.5t-26.5 63.5v380h68v-380q0 -22 22 -22h98q22 0 22 22v380h68v-470zM274 563l-35 -35l-125 125l35 35z" />
    <glyph glyph-name="uacute" unicode="&#xfa;" 
d="M333 0h-68v45q-15 -45 -72 -45h-48q-37 0 -63.5 26.5t-26.5 63.5v380h68v-380q0 -22 22 -22h98q22 0 22 22v380h68v-470zM239 688l35 -35l-125 -125l-35 35z" />
    <glyph glyph-name="ucircumflex" unicode="&#xfb;" 
d="M333 0h-68v45q-15 -45 -72 -45h-48q-37 0 -63.5 26.5t-26.5 63.5v380h68v-380q0 -22 22 -22h98q22 0 22 22v380h68v-470zM315 564l-36 -36l-85 86l-85 -86l-36 36l121 120z" />
    <glyph glyph-name="udieresis" unicode="&#xfc;" 
d="M333 0h-68v45q-15 -45 -72 -45h-48q-37 0 -63.5 26.5t-26.5 63.5v380h68v-380q0 -22 22 -22h98q22 0 22 22v380h68v-470zM219 608q0 19 13.5 32.5t32.5 13.5t32.5 -13.5t13.5 -32.5t-13.5 -32.5t-32.5 -13.5t-32.5 13.5t-13.5 32.5zM77 608q0 19 13.5 32.5t32.5 13.5
t32.5 -13.5t13.5 -32.5t-13.5 -32.5t-32.5 -13.5t-32.5 13.5t-13.5 32.5z" />
    <glyph glyph-name="yacute" unicode="&#xfd;" horiz-adv-x="363" 
d="M346 470l-174 -620h-74l47 150l-128 470h70l94 -374l94 374h71zM228 688l35 -35l-125 -125l-35 35z" />
    <glyph glyph-name="thorn" unicode="&#xfe;" horiz-adv-x="378" 
d="M339 90q0 -37 -26.5 -63.5t-63.5 -26.5h-48q-56 0 -72 45v-195h-68v850h68v-275q15 45 72 45h48q37 0 63.5 -26.5t26.5 -63.5v-290zM271 380q0 22 -22 22h-98q-22 0 -22 -22v-290q0 -22 22 -22h98q22 0 22 22v290z" />
    <glyph glyph-name="ydieresis" unicode="&#xff;" horiz-adv-x="363" 
d="M346 470l-174 -620h-74l47 150l-128 470h70l94 -374l94 374h71zM208 608q0 19 13.5 32.5t32.5 13.5t32.5 -13.5t13.5 -32.5t-13.5 -32.5t-32.5 -13.5t-32.5 13.5t-13.5 32.5zM66 608q0 19 13.5 32.5t32.5 13.5t32.5 -13.5t13.5 -32.5t-13.5 -32.5t-32.5 -13.5t-32.5 13.5
t-13.5 32.5z" />
    <glyph glyph-name="Amacron" unicode="&#x100;" horiz-adv-x="425" 
d="M131 188h162l-81 395zM309 113h-193l-23 -113h-76l150 700h91l150 -700h-76zM316 811h-208v50h208v-50z" />
    <glyph glyph-name="amacron" unicode="&#x101;" 
d="M333 0h-68v38q-5 -17 -20.5 -27.5t-38.5 -10.5h-59q-18 0 -35 7t-29.5 19.5t-20 29t-7.5 34.5v100q0 40 26 65t64 25h61q23 0 38.5 -10.5t20.5 -27.5v138q0 22 -22 22h-154v68h154q19 0 35.5 -7t28.5 -19.5t19 -29t7 -34.5v-380zM265 190q0 22 -22 22h-97q-22 0 -22 -22
v-100q0 -22 22 -22h97q22 0 22 22v100zM298 581h-208v50h208v-50z" />
    <glyph glyph-name="Abreve" unicode="&#x102;" horiz-adv-x="425" 
d="M131 188h162l-81 395zM309 113h-193l-23 -113h-76l150 700h91l150 -700h-76zM212 850q26 0 48.5 9.5t37.5 24.5l34 -37q-23 -21 -54 -34t-66 -13t-66 13t-54 34l34 37q15 -15 37.5 -24.5t48.5 -9.5z" />
    <glyph glyph-name="abreve" unicode="&#x103;" 
d="M333 0h-68v38q-5 -17 -20.5 -27.5t-38.5 -10.5h-59q-18 0 -35 7t-29.5 19.5t-20 29t-7.5 34.5v100q0 40 26 65t64 25h61q23 0 38.5 -10.5t20.5 -27.5v138q0 22 -22 22h-154v68h154q19 0 35.5 -7t28.5 -19.5t19 -29t7 -34.5v-380zM265 190q0 22 -22 22h-97q-22 0 -22 -22
v-100q0 -22 22 -22h97q22 0 22 22v100zM194 620q26 0 48.5 9.5t37.5 24.5l34 -37q-23 -21 -54 -34t-66 -13t-66 13t-54 34l34 37q15 -15 37.5 -24.5t48.5 -9.5z" />
    <glyph glyph-name="Aogonek" unicode="&#x104;" horiz-adv-x="425" 
d="M131 188h162l-81 395zM309 113h-193l-23 -113h-76l150 700h91l150 -700l-62 -62v-43h62v-50h-63q-20 0 -34.5 15t-14.5 35v28q0 8 3.5 17.5t11.5 17.5l44 42h-23z" />
    <glyph glyph-name="aogonek" unicode="&#x105;" 
d="M265 190q0 22 -22 22h-97q-22 0 -22 -22v-100q0 -22 22 -22h97q22 0 22 22v100zM221 -77q0 8 3.5 17.5t11.5 17.5l44 42h-15v38q-5 -17 -20.5 -27.5t-38.5 -10.5h-59q-18 0 -35 7t-29.5 19.5t-20 29t-7.5 34.5v100q0 40 26 65t64 25h61q23 0 38.5 -10.5t20.5 -27.5v138
q0 22 -22 22h-154v68h154q19 0 35.5 -7t28.5 -19.5t19 -29t7 -34.5v-380l-62 -62v-43h62v-50h-63q-20 0 -34.5 15t-14.5 35v28z" />
    <glyph glyph-name="Cacute" unicode="&#x106;" horiz-adv-x="435" 
d="M380 100q0 -42 -29 -71t-71 -29h-125q-42 0 -71 29t-29 71v500q0 42 29 71t71 29h125q42 0 71 -29t29 -71v-88h-75v88q0 25 -25 25h-125q-25 0 -25 -25v-500q0 -25 25 -25h125q25 0 25 25v88h75v-88zM262 918l35 -35l-125 -125l-35 35z" />
    <glyph glyph-name="cacute" unicode="&#x107;" 
d="M333 90q0 -18 -7 -34.5t-19 -29t-28.5 -19.5t-35.5 -7h-98q-37 0 -63.5 26.5t-26.5 63.5v290q0 37 26.5 63.5t63.5 26.5h98q19 0 35.5 -7t28.5 -19.5t19 -29t7 -34.5v-78h-68v78q0 22 -22 22h-98q-22 0 -22 -22v-290q0 -22 22 -22h98q22 0 22 22v79h68v-79zM239 688
l35 -35l-125 -125l-35 35z" />
    <glyph glyph-name="Ccircumflex" unicode="&#x108;" horiz-adv-x="435" 
d="M380 100q0 -42 -29 -71t-71 -29h-125q-42 0 -71 29t-29 71v500q0 42 29 71t71 29h125q42 0 71 -29t29 -71v-88h-75v88q0 25 -25 25h-125q-25 0 -25 -25v-500q0 -25 25 -25h125q25 0 25 25v88h75v-88zM338 794l-36 -36l-85 86l-85 -86l-36 36l121 120z" />
    <glyph glyph-name="ccircumflex" unicode="&#x109;" 
d="M333 90q0 -18 -7 -34.5t-19 -29t-28.5 -19.5t-35.5 -7h-98q-37 0 -63.5 26.5t-26.5 63.5v290q0 37 26.5 63.5t63.5 26.5h98q19 0 35.5 -7t28.5 -19.5t19 -29t7 -34.5v-78h-68v78q0 22 -22 22h-98q-22 0 -22 -22v-290q0 -22 22 -22h98q22 0 22 22v79h68v-79zM315 564
l-36 -36l-85 86l-85 -86l-36 36l121 120z" />
    <glyph glyph-name="Cdotaccent" unicode="&#x10a;" horiz-adv-x="435" 
d="M380 100q0 -42 -29 -71t-71 -29h-125q-42 0 -71 29t-29 71v500q0 42 29 71t71 29h125q42 0 71 -29t29 -71v-88h-75v88q0 25 -25 25h-125q-25 0 -25 -25v-500q0 -25 25 -25h125q25 0 25 25v88h75v-88zM171 838q0 19 13.5 32.5t32.5 13.5t32.5 -13.5t13.5 -32.5
t-13.5 -32.5t-32.5 -13.5t-32.5 13.5t-13.5 32.5z" />
    <glyph glyph-name="cdotaccent" unicode="&#x10b;" 
d="M333 90q0 -18 -7 -34.5t-19 -29t-28.5 -19.5t-35.5 -7h-98q-37 0 -63.5 26.5t-26.5 63.5v290q0 37 26.5 63.5t63.5 26.5h98q19 0 35.5 -7t28.5 -19.5t19 -29t7 -34.5v-78h-68v78q0 22 -22 22h-98q-22 0 -22 -22v-290q0 -22 22 -22h98q22 0 22 22v79h68v-79zM148 608
q0 19 13.5 32.5t32.5 13.5t32.5 -13.5t13.5 -32.5t-13.5 -32.5t-32.5 -13.5t-32.5 13.5t-13.5 32.5z" />
    <glyph glyph-name="Ccaron" unicode="&#x10c;" horiz-adv-x="435" 
d="M380 100q0 -42 -29 -71t-71 -29h-125q-42 0 -71 29t-29 71v500q0 42 29 71t71 29h125q42 0 71 -29t29 -71v-88h-75v88q0 25 -25 25h-125q-25 0 -25 -25v-500q0 -25 25 -25h125q25 0 25 25v88h75v-88zM96 878l36 36l85 -86l85 86l36 -36l-121 -120z" />
    <glyph glyph-name="ccaron" unicode="&#x10d;" 
d="M333 90q0 -18 -7 -34.5t-19 -29t-28.5 -19.5t-35.5 -7h-98q-37 0 -63.5 26.5t-26.5 63.5v290q0 37 26.5 63.5t63.5 26.5h98q19 0 35.5 -7t28.5 -19.5t19 -29t7 -34.5v-78h-68v78q0 22 -22 22h-98q-22 0 -22 -22v-290q0 -22 22 -22h98q22 0 22 22v79h68v-79zM73 648l36 36
l85 -86l85 86l36 -36l-121 -120z" />
    <glyph glyph-name="Dcaron" unicode="&#x10e;" horiz-adv-x="435" 
d="M380 100q0 -42 -29 -71t-71 -29h-225v700h225q42 0 71 -29t29 -71v-500zM305 600q0 25 -25 25h-150v-550h150q25 0 25 25v500zM96 878l36 36l85 -86l85 86l36 -36l-121 -120z" />
    <glyph glyph-name="dcaron" unicode="&#x10f;" horiz-adv-x="430" 
d="M333 0h-68v45q-15 -45 -72 -45h-48q-37 0 -63.5 26.5t-26.5 63.5v290q0 37 26.5 63.5t63.5 26.5h48q58 0 72 -45v275h68v-700zM265 380q0 22 -22 22h-98q-22 0 -22 -22v-290q0 -22 22 -22h98q22 0 22 22v290zM457 660q0 -10 -4 -20l-56 -120h-35l31 93q-11 2 -23.5 14
t-12.5 33t14.5 35.5t35.5 14.5t35.5 -14.5t14.5 -35.5z" />
    <glyph glyph-name="Dcroat" unicode="&#x110;" horiz-adv-x="435" 
d="M198 345h-68v-270h150q25 0 25 25v500q0 25 -25 25h-150v-230h68v-50zM380 100q0 -42 -29 -71t-71 -29h-225v345h-65v50h65v305h225q42 0 71 -29t29 -71v-500z" />
    <glyph glyph-name="dcroat" unicode="&#x111;" 
d="M265 380q0 22 -22 22h-98q-22 0 -22 -22v-290q0 -22 22 -22h98q22 0 22 22v290zM403 558h-70v-558h-68v45q-15 -45 -72 -45h-48q-37 0 -63.5 26.5t-26.5 63.5v290q0 37 26.5 63.5t63.5 26.5h48q58 0 72 -45v133h-70v50h70v92h68v-92h70v-50z" />
    <glyph glyph-name="Emacron" unicode="&#x112;" horiz-adv-x="360" 
d="M330 0h-275v700h275v-75h-200v-217h150v-75h-150v-258h200v-75zM298 811h-208v50h208v-50z" />
    <glyph glyph-name="emacron" unicode="&#x113;" 
d="M333 192h-210v-102q0 -22 22 -22h155v-68h-155q-37 0 -63.5 26.5t-26.5 63.5v290q0 37 26.5 63.5t63.5 26.5h98q19 0 35.5 -7t28.5 -19.5t19 -29t7 -34.5v-188zM265 259v121q0 22 -22 22h-98q-22 0 -22 -22v-121h142zM298 581h-208v50h208v-50z" />
    <glyph glyph-name="Ebreve" unicode="&#x114;" horiz-adv-x="360" 
d="M330 0h-275v700h275v-75h-200v-217h150v-75h-150v-258h200v-75zM194 850q26 0 48.5 9.5t37.5 24.5l34 -37q-23 -21 -54 -34t-66 -13t-66 13t-54 34l34 37q15 -15 37.5 -24.5t48.5 -9.5z" />
    <glyph glyph-name="ebreve" unicode="&#x115;" 
d="M333 192h-210v-102q0 -22 22 -22h155v-68h-155q-37 0 -63.5 26.5t-26.5 63.5v290q0 37 26.5 63.5t63.5 26.5h98q19 0 35.5 -7t28.5 -19.5t19 -29t7 -34.5v-188zM265 259v121q0 22 -22 22h-98q-22 0 -22 -22v-121h142zM194 620q26 0 48.5 9.5t37.5 24.5l34 -37
q-23 -21 -54 -34t-66 -13t-66 13t-54 34l34 37q15 -15 37.5 -24.5t48.5 -9.5z" />
    <glyph glyph-name="Edotaccent" unicode="&#x116;" horiz-adv-x="360" 
d="M330 0h-275v700h275v-75h-200v-217h150v-75h-150v-258h200v-75zM148 838q0 19 13.5 32.5t32.5 13.5t32.5 -13.5t13.5 -32.5t-13.5 -32.5t-32.5 -13.5t-32.5 13.5t-13.5 32.5z" />
    <glyph glyph-name="edotaccent" unicode="&#x117;" 
d="M333 192h-210v-102q0 -22 22 -22h155v-68h-155q-37 0 -63.5 26.5t-26.5 63.5v290q0 37 26.5 63.5t63.5 26.5h98q19 0 35.5 -7t28.5 -19.5t19 -29t7 -34.5v-188zM265 259v121q0 22 -22 22h-98q-22 0 -22 -22v-121h142zM148 608q0 19 13.5 32.5t32.5 13.5t32.5 -13.5
t13.5 -32.5t-13.5 -32.5t-32.5 -13.5t-32.5 13.5t-13.5 32.5z" />
    <glyph glyph-name="Eogonek" unicode="&#x118;" horiz-adv-x="360" 
d="M218 -77q0 8 3.5 17.5t11.5 17.5l44 42h-222v700h275v-75h-200v-217h150v-75h-150v-258h200v-75l-62 -62v-43h62v-50h-63q-20 0 -34.5 15t-14.5 35v28z" />
    <glyph glyph-name="eogonek" unicode="&#x119;" 
d="M265 259v121q0 22 -22 22h-98q-22 0 -22 -22v-121h142zM188 -77q0 8 3.5 17.5t11.5 17.5l44 42h-102q-37 0 -63.5 26.5t-26.5 63.5v290q0 37 26.5 63.5t63.5 26.5h98q19 0 35.5 -7t28.5 -19.5t19 -29t7 -34.5v-188h-210v-102q0 -22 22 -22h155v-68l-62 -62v-43h62v-50
h-63q-20 0 -34.5 15t-14.5 35v28z" />
    <glyph glyph-name="Ecaron" unicode="&#x11a;" horiz-adv-x="360" 
d="M330 0h-275v700h275v-75h-200v-217h150v-75h-150v-258h200v-75zM73 878l36 36l85 -86l85 86l36 -36l-121 -120z" />
    <glyph glyph-name="ecaron" unicode="&#x11b;" 
d="M333 192h-210v-102q0 -22 22 -22h155v-68h-155q-37 0 -63.5 26.5t-26.5 63.5v290q0 37 26.5 63.5t63.5 26.5h98q19 0 35.5 -7t28.5 -19.5t19 -29t7 -34.5v-188zM265 259v121q0 22 -22 22h-98q-22 0 -22 -22v-121h142zM73 648l36 36l85 -86l85 86l36 -36l-121 -120z" />
    <glyph glyph-name="Gcircumflex" unicode="&#x11c;" horiz-adv-x="435" 
d="M380 100q0 -42 -29 -71t-71 -29h-125q-42 0 -71 29t-29 71v500q0 42 29 71t71 29h125q42 0 71 -29t29 -71v-100h-75v100q0 25 -25 25h-125q-25 0 -25 -25v-500q0 -25 25 -25h125q25 0 25 25v183h-88v75h163v-258zM338 794l-36 -36l-85 86l-85 -86l-36 36l121 120z" />
    <glyph glyph-name="gcircumflex" unicode="&#x11d;" 
d="M333 -60q0 -18 -7 -34.5t-19.5 -28.5t-29 -19.5t-34.5 -7.5h-132v68h132q22 0 22 22v105q-15 -45 -72 -45h-48q-37 0 -63.5 26.5t-26.5 63.5v290q0 37 26.5 63.5t63.5 26.5h48q58 0 72 -45v45h68v-530zM265 380q0 22 -22 22h-98q-22 0 -22 -22v-290q0 -22 22 -22h98
q22 0 22 22v290zM315 564l-36 -36l-85 86l-85 -86l-36 36l121 120z" />
    <glyph glyph-name="Gbreve" unicode="&#x11e;" horiz-adv-x="435" 
d="M380 100q0 -42 -29 -71t-71 -29h-125q-42 0 -71 29t-29 71v500q0 42 29 71t71 29h125q42 0 71 -29t29 -71v-100h-75v100q0 25 -25 25h-125q-25 0 -25 -25v-500q0 -25 25 -25h125q25 0 25 25v183h-88v75h163v-258zM217 850q26 0 48.5 9.5t37.5 24.5l34 -37
q-23 -21 -54 -34t-66 -13t-66 13t-54 34l34 37q15 -15 37.5 -24.5t48.5 -9.5z" />
    <glyph glyph-name="gbreve" unicode="&#x11f;" 
d="M333 -60q0 -18 -7 -34.5t-19.5 -28.5t-29 -19.5t-34.5 -7.5h-132v68h132q22 0 22 22v105q-15 -45 -72 -45h-48q-37 0 -63.5 26.5t-26.5 63.5v290q0 37 26.5 63.5t63.5 26.5h48q58 0 72 -45v45h68v-530zM265 380q0 22 -22 22h-98q-22 0 -22 -22v-290q0 -22 22 -22h98
q22 0 22 22v290zM194 620q26 0 48.5 9.5t37.5 24.5l34 -37q-23 -21 -54 -34t-66 -13t-66 13t-54 34l34 37q15 -15 37.5 -24.5t48.5 -9.5z" />
    <glyph glyph-name="Gdotaccent" unicode="&#x120;" horiz-adv-x="435" 
d="M380 100q0 -42 -29 -71t-71 -29h-125q-42 0 -71 29t-29 71v500q0 42 29 71t71 29h125q42 0 71 -29t29 -71v-100h-75v100q0 25 -25 25h-125q-25 0 -25 -25v-500q0 -25 25 -25h125q25 0 25 25v183h-88v75h163v-258zM171 838q0 19 13.5 32.5t32.5 13.5t32.5 -13.5
t13.5 -32.5t-13.5 -32.5t-32.5 -13.5t-32.5 13.5t-13.5 32.5z" />
    <glyph glyph-name="gdotaccent" unicode="&#x121;" 
d="M333 -60q0 -18 -7 -34.5t-19.5 -28.5t-29 -19.5t-34.5 -7.5h-132v68h132q22 0 22 22v105q-15 -45 -72 -45h-48q-37 0 -63.5 26.5t-26.5 63.5v290q0 37 26.5 63.5t63.5 26.5h48q58 0 72 -45v45h68v-530zM265 380q0 22 -22 22h-98q-22 0 -22 -22v-290q0 -22 22 -22h98
q22 0 22 22v290zM148 608q0 19 13.5 32.5t32.5 13.5t32.5 -13.5t13.5 -32.5t-13.5 -32.5t-32.5 -13.5t-32.5 13.5t-13.5 32.5z" />
    <glyph glyph-name="Gcommaaccent" unicode="&#x122;" horiz-adv-x="435" 
d="M380 100q0 -42 -29 -71t-71 -29h-125q-42 0 -71 29t-29 71v500q0 42 29 71t71 29h125q42 0 71 -29t29 -71v-100h-75v100q0 25 -25 25h-125q-25 0 -25 -25v-500q0 -25 25 -25h125q25 0 25 25v183h-88v75h163v-258zM267 -75q0 -10 -4 -20l-49 -105h-37l26 78
q-11 2 -23.5 14t-12.5 33t14.5 35.5t35.5 14.5t35.5 -14.5t14.5 -35.5z" />
    <glyph glyph-name="gcommaaccent" unicode="&#x123;" 
d="M333 -60q0 -18 -7 -34.5t-19.5 -28.5t-29 -19.5t-34.5 -7.5h-132v68h132q22 0 22 22v105q-15 -45 -72 -45h-48q-37 0 -63.5 26.5t-26.5 63.5v290q0 37 26.5 63.5t63.5 26.5h48q58 0 72 -45v45h68v-530zM265 380q0 22 -22 22h-98q-22 0 -22 -22v-290q0 -22 22 -22h98
q22 0 22 22v290zM146 575q0 10 4 20l49 105h37l-26 -78q11 -2 23.5 -14t12.5 -33t-14.5 -35.5t-35.5 -14.5t-35.5 14.5t-14.5 35.5z" />
    <glyph glyph-name="Hcircumflex" unicode="&#x124;" horiz-adv-x="435" 
d="M380 0h-75v333h-175v-333h-75v700h75v-292h175v292h75v-700zM338 794l-36 -36l-85 86l-85 -86l-36 36l121 120z" />
    <glyph glyph-name="hcircumflex" unicode="&#x125;" 
d="M333 0h-68v380q0 22 -22 22h-98q-22 0 -22 -22v-380h-68v700h68v-275q15 45 72 45h48q38 0 64 -26t26 -64v-380zM315 795l-36 -36l-85 86l-85 -86l-36 36l121 120z" />
    <glyph glyph-name="Hbar" unicode="&#x126;" horiz-adv-x="435" 
d="M305 408v121h-175v-121h175zM425 529h-45v-529h-75v333h-175v-333h-75v529h-46v50h46v121h75v-121h175v121h75v-121h45v-50z" />
    <glyph glyph-name="hbar" unicode="&#x127;" 
d="M193 558h-70v-133q15 45 72 45h48q38 0 64 -26t26 -64v-380h-68v380q0 22 -22 22h-98q-22 0 -22 -22v-380h-68v558h-70v50h70v92h68v-92h70v-50z" />
    <glyph glyph-name="Itilde" unicode="&#x128;" horiz-adv-x="185" 
d="M130 0h-75v700h75v-700zM-44 822l59 60q7 8 16 11.5t18 3.5q21 0 36 -15l55 -54l58 57l34 -35l-57 -58q-14 -15 -34 -15q-21 0 -36 15l-55 54l-59 -58z" />
    <glyph glyph-name="itilde" unicode="&#x129;" horiz-adv-x="178" 
d="M123 0h-68v470h68v-470zM-47 592l59 60q7 8 16 11.5t18 3.5q21 0 36 -15l55 -54l58 57l34 -35l-57 -58q-14 -15 -34 -15q-21 0 -36 15l-55 54l-59 -58z" />
    <glyph glyph-name="Imacron" unicode="&#x12a;" horiz-adv-x="185" 
d="M130 0h-75v700h75v-700zM198 811h-208v50h208v-50z" />
    <glyph glyph-name="imacron" unicode="&#x12b;" horiz-adv-x="178" 
d="M123 0h-68v470h68v-470zM195 581h-208v50h208v-50z" />
    <glyph glyph-name="Iogonek" unicode="&#x12e;" horiz-adv-x="185" 
d="M18 -77q0 8 3.5 17.5t11.5 17.5l44 42h-22v700h75v-700l-62 -62v-43h62v-50h-63q-20 0 -34.5 15t-14.5 35v28z" />
    <glyph glyph-name="iogonek" unicode="&#x12f;" horiz-adv-x="178" 
d="M44 608q0 19 13.5 32.5t32.5 13.5t32.5 -13.5t13.5 -32.5t-13.5 -32.5t-32.5 -13.5t-32.5 13.5t-13.5 32.5zM11 -77q0 8 3.5 17.5t11.5 17.5l44 42h-15v470h68v-470l-62 -62v-43h62v-50h-63q-20 0 -34.5 15t-14.5 35v28z" />
    <glyph glyph-name="Idotaccent" unicode="&#x130;" horiz-adv-x="185" 
d="M130 0h-75v700h75v-700zM48 838q0 19 13.5 32.5t32.5 13.5t32.5 -13.5t13.5 -32.5t-13.5 -32.5t-32.5 -13.5t-32.5 13.5t-13.5 32.5z" />
    <glyph glyph-name="dotlessi" unicode="&#x131;" horiz-adv-x="178" 
d="M123 0h-68v470h68v-470z" />
    <glyph glyph-name="IJ" unicode="&#x132;" horiz-adv-x="571" 
d="M130 0h-75v700h75v-700zM516 100q0 -42 -29 -71t-71 -29h-100q-42 0 -71 29t-29 71v100h75v-100q0 -25 25 -25h100q25 0 25 25v600h75v-600z" />
    <glyph glyph-name="ij" unicode="&#x133;" horiz-adv-x="356" 
d="M44 608q0 19 13.5 32.5t32.5 13.5t32.5 -13.5t13.5 -32.5t-13.5 -32.5t-32.5 -13.5t-32.5 13.5t-13.5 32.5zM123 0h-68v470h68v-470zM222 608q0 19 13.5 32.5t32.5 13.5t32.5 -13.5t13.5 -32.5t-13.5 -32.5t-32.5 -13.5t-32.5 13.5t-13.5 32.5zM301 -60q0 -18 -7 -34.5
t-19.5 -28.5t-29 -19.5t-34.5 -7.5h-68v68h68q22 0 22 22v530h68v-530z" />
    <glyph glyph-name="Jcircumflex" unicode="&#x134;" horiz-adv-x="386" 
d="M331 100q0 -42 -29 -71t-71 -29h-100q-42 0 -71 29t-29 71v100h75v-100q0 -25 25 -25h100q25 0 25 25v600h75v-600zM416 794l-36 -36l-85 86l-85 -86l-36 36l121 120z" />
    <glyph glyph-name="jcircumflex" unicode="&#x135;" horiz-adv-x="178" 
d="M210 564l-36 -36l-85 86l-85 -86l-36 36l121 120zM123 -60q0 -18 -7 -34.5t-19.5 -28.5t-29 -19.5t-34.5 -7.5h-68v68h68q22 0 22 22v530h68v-530z" />
    <glyph glyph-name="Kcommaaccent" unicode="&#x136;" horiz-adv-x="437" 
d="M251 379l180 -379h-86l-136 299l-79 -149v-150h-75v700h75v-409l207 409h83zM293 -75q0 -10 -4 -20l-49 -105h-37l26 78q-11 2 -23.5 14t-12.5 33t14.5 35.5t35.5 14.5t35.5 -14.5t14.5 -35.5z" />
    <glyph glyph-name="kcommaaccent" unicode="&#x137;" horiz-adv-x="348" 
d="M227 279l116 -279h-78l-78 209l-64 -110v-99h-68v700h68v-486l142 256h74zM249 -75q0 -10 -4 -20l-49 -105h-37l26 78q-11 2 -23.5 14t-12.5 33t14.5 35.5t35.5 14.5t35.5 -14.5t14.5 -35.5z" />
    <glyph glyph-name="Lacute" unicode="&#x139;" horiz-adv-x="360" 
d="M330 0h-275v700h75v-625h200v-75zM239 918l35 -35l-125 -125l-35 35z" />
    <glyph glyph-name="lacute" unicode="&#x13a;" horiz-adv-x="178" 
d="M123 0h-68v700h68v-700zM136 918l35 -35l-125 -125l-35 35z" />
    <glyph glyph-name="Lcommaaccent" unicode="&#x13b;" horiz-adv-x="360" 
d="M330 0h-275v700h75v-625h200v-75zM244 -75q0 -10 -4 -20l-49 -105h-37l26 78q-11 2 -23.5 14t-12.5 33t14.5 35.5t35.5 14.5t35.5 -14.5t14.5 -35.5z" />
    <glyph glyph-name="lcommaaccent" unicode="&#x13c;" horiz-adv-x="178" 
d="M123 0h-68v700h68v-700zM141 -75q0 -10 -4 -20l-49 -105h-37l26 78q-11 2 -23.5 14t-12.5 33t14.5 35.5t35.5 14.5t35.5 -14.5t14.5 -35.5z" />
    <glyph glyph-name="Lcaron" unicode="&#x13d;" horiz-adv-x="360" 
d="M330 0h-275v700h75v-625h200v-75zM295 660q0 -10 -4 -20l-56 -120h-35l31 93q-11 2 -23.5 14t-12.5 33t14.5 35.5t35.5 14.5t35.5 -14.5t14.5 -35.5z" />
    <glyph glyph-name="lcaron" unicode="&#x13e;" horiz-adv-x="219" 
d="M123 0h-68v700h68v-700zM247 660q0 -10 -4 -20l-56 -120h-35l31 93q-11 2 -23.5 14t-12.5 33t14.5 35.5t35.5 14.5t35.5 -14.5t14.5 -35.5z" />
    <glyph glyph-name="Ldot" unicode="&#x13f;" horiz-adv-x="360" 
d="M330 0h-275v700h75v-625h200v-75zM226 349q0 21 14.5 35.5t35.5 14.5t35.5 -14.5t14.5 -35.5t-14.5 -35.5t-35.5 -14.5t-35.5 14.5t-14.5 35.5z" />
    <glyph glyph-name="ldot" unicode="&#x140;" horiz-adv-x="252" 
d="M123 0h-68v700h68v-700zM165 235q0 21 14.5 35.5t35.5 14.5t35.5 -14.5t14.5 -35.5t-14.5 -35.5t-35.5 -14.5t-35.5 14.5t-14.5 35.5z" />
    <glyph glyph-name="Lslash" unicode="&#x141;" horiz-adv-x="360" 
d="M330 0h-275v299l-67 -38v58l67 38v343h75v-299l66 38v-58l-66 -38v-268h200v-75z" />
    <glyph glyph-name="lslash" unicode="&#x142;" horiz-adv-x="178" 
d="M193 381l-70 -41v-340h-68v301l-70 -40v58l70 40v341h68v-302l70 41v-58z" />
    <glyph glyph-name="Nacute" unicode="&#x143;" horiz-adv-x="435" 
d="M380 0h-63l-187 518v-518h-75v700h83l167 -472v472h75v-700zM262 918l35 -35l-125 -125l-35 35z" />
    <glyph glyph-name="nacute" unicode="&#x144;" 
d="M333 0h-68v380q0 22 -22 22h-98q-22 0 -22 -22v-380h-68v470h68v-45q15 45 72 45h48q38 0 64 -26t26 -64v-380zM239 688l35 -35l-125 -125l-35 35z" />
    <glyph glyph-name="Ncommaaccent" unicode="&#x145;" horiz-adv-x="435" 
d="M380 0h-63l-187 518v-518h-75v700h83l167 -472v472h75v-700zM267 -75q0 -10 -4 -20l-49 -105h-37l26 78q-11 2 -23.5 14t-12.5 33t14.5 35.5t35.5 14.5t35.5 -14.5t14.5 -35.5z" />
    <glyph glyph-name="ncommaaccent" unicode="&#x146;" 
d="M333 0h-68v380q0 22 -22 22h-98q-22 0 -22 -22v-380h-68v470h68v-45q15 45 72 45h48q38 0 64 -26t26 -64v-380zM244 -75q0 -10 -4 -20l-49 -105h-37l26 78q-11 2 -23.5 14t-12.5 33t14.5 35.5t35.5 14.5t35.5 -14.5t14.5 -35.5z" />
    <glyph glyph-name="Ncaron" unicode="&#x147;" horiz-adv-x="435" 
d="M380 0h-63l-187 518v-518h-75v700h83l167 -472v472h75v-700zM96 878l36 36l85 -86l85 86l36 -36l-121 -120z" />
    <glyph glyph-name="ncaron" unicode="&#x148;" 
d="M333 0h-68v380q0 22 -22 22h-98q-22 0 -22 -22v-380h-68v470h68v-45q15 45 72 45h48q38 0 64 -26t26 -64v-380zM73 648l36 36l85 -86l85 86l36 -36l-121 -120z" />
    <glyph glyph-name="napostrophe" unicode="&#x149;" 
d="M333 0h-68v380q0 22 -22 22h-98q-22 0 -22 -22v-380h-68v470h68v-45q15 45 72 45h48q38 0 64 -26t26 -64v-380zM143 660q0 -10 -4 -20l-56 -120h-35l31 93q-11 2 -23.5 14t-12.5 33t14.5 35.5t35.5 14.5t35.5 -14.5t14.5 -35.5z" />
    <glyph glyph-name="Omacron" unicode="&#x14c;" horiz-adv-x="435" 
d="M380 100q0 -42 -29 -71t-71 -29h-125q-42 0 -71 29t-29 71v500q0 42 29 71t71 29h125q42 0 71 -29t29 -71v-500zM305 600q0 25 -25 25h-125q-25 0 -25 -25v-500q0 -25 25 -25h125q25 0 25 25v500zM321 811h-208v50h208v-50z" />
    <glyph glyph-name="omacron" unicode="&#x14d;" 
d="M333 90q0 -18 -7 -34.5t-19 -29t-28.5 -19.5t-35.5 -7h-98q-37 0 -63.5 26.5t-26.5 63.5v290q0 19 7 35.5t19.5 28.5t29 19t34.5 7h98q38 0 64 -26t26 -64v-290zM265 380q0 22 -22 22h-98q-22 0 -22 -22v-290q0 -22 22 -22h98q22 0 22 22v290zM298 581h-208v50h208v-50z
" />
    <glyph glyph-name="Obreve" unicode="&#x14e;" horiz-adv-x="435" 
d="M380 100q0 -42 -29 -71t-71 -29h-125q-42 0 -71 29t-29 71v500q0 42 29 71t71 29h125q42 0 71 -29t29 -71v-500zM305 600q0 25 -25 25h-125q-25 0 -25 -25v-500q0 -25 25 -25h125q25 0 25 25v500zM217 850q26 0 48.5 9.5t37.5 24.5l34 -37q-23 -21 -54 -34t-66 -13
t-66 13t-54 34l34 37q15 -15 37.5 -24.5t48.5 -9.5z" />
    <glyph glyph-name="obreve" unicode="&#x14f;" 
d="M333 90q0 -18 -7 -34.5t-19 -29t-28.5 -19.5t-35.5 -7h-98q-37 0 -63.5 26.5t-26.5 63.5v290q0 19 7 35.5t19.5 28.5t29 19t34.5 7h98q38 0 64 -26t26 -64v-290zM265 380q0 22 -22 22h-98q-22 0 -22 -22v-290q0 -22 22 -22h98q22 0 22 22v290zM194 620q26 0 48.5 9.5
t37.5 24.5l34 -37q-23 -21 -54 -34t-66 -13t-66 13t-54 34l34 37q15 -15 37.5 -24.5t48.5 -9.5z" />
    <glyph glyph-name="Ohungarumlaut" unicode="&#x150;" horiz-adv-x="435" 
d="M380 100q0 -42 -29 -71t-71 -29h-125q-42 0 -71 29t-29 71v500q0 42 29 71t71 29h125q42 0 71 -29t29 -71v-500zM305 600q0 25 -25 25h-125q-25 0 -25 -25v-500q0 -25 25 -25h125q25 0 25 25v500zM287 929l45 -19l-69 -163l-45 19zM172 929l45 -19l-69 -163l-45 19z" />
    <glyph glyph-name="ohungarumlaut" unicode="&#x151;" 
d="M333 90q0 -18 -7 -34.5t-19 -29t-28.5 -19.5t-35.5 -7h-98q-37 0 -63.5 26.5t-26.5 63.5v290q0 19 7 35.5t19.5 28.5t29 19t34.5 7h98q38 0 64 -26t26 -64v-290zM265 380q0 22 -22 22h-98q-22 0 -22 -22v-290q0 -22 22 -22h98q22 0 22 22v290zM264 699l45 -19l-69 -163
l-45 19zM149 699l45 -19l-69 -163l-45 19z" />
    <glyph glyph-name="OE" unicode="&#x152;" horiz-adv-x="609" 
d="M304 600q0 25 -25 25h-125q-25 0 -25 -25v-500q0 -25 25 -25h125q25 0 25 25v500zM579 0h-237v54q-4 -22 -19.5 -38t-41.5 -16h-126q-21 0 -39.5 8t-32 21.5t-21 31.5t-7.5 39v500q0 21 7.5 39t21 31.5t32 21.5t39.5 8h126q26 0 41.5 -16t19.5 -38v54h237v-75h-200v-217
h150v-75h-150v-258h200v-75z" />
    <glyph glyph-name="oe" unicode="&#x153;" horiz-adv-x="598" 
d="M453 470q38 0 64 -26t26 -64v-187h-210v-103q0 -22 22 -22h155v-68h-149q-54 0 -61 48q-8 -48 -60 -48h-95q-38 0 -64 26t-26 64v290q0 38 26 64t64 26h95q52 0 60 -48q7 48 61 48h92zM265 380q0 22 -22 22h-98q-22 0 -22 -22v-290q0 -22 22 -22h98q22 0 22 22v290z
M475 380q0 22 -22 22h-98q-22 0 -22 -22v-119h142v119z" />
    <glyph glyph-name="Racute" unicode="&#x154;" horiz-adv-x="435" 
d="M305 600q0 25 -25 25h-150v-257h150q25 0 25 25v207zM380 393q0 -35 -20 -61t-52 -35l71 -297h-80l-64 293h-105v-293h-75v700h225q21 0 39 -8t31.5 -21.5t21.5 -31.5t8 -39v-207zM262 918l35 -35l-125 -125l-35 35z" />
    <glyph glyph-name="racute" unicode="&#x155;" horiz-adv-x="256" 
d="M243 402h-98q-22 0 -22 -22v-380h-68v470h68v-45q15 45 72 45h48v-68zM196 688l35 -35l-125 -125l-35 35z" />
    <glyph glyph-name="Rcommaaccent" unicode="&#x156;" horiz-adv-x="435" 
d="M305 600q0 25 -25 25h-150v-257h150q25 0 25 25v207zM380 393q0 -35 -20 -61t-52 -35l71 -297h-80l-64 293h-105v-293h-75v700h225q21 0 39 -8t31.5 -21.5t21.5 -31.5t8 -39v-207zM267 -75q0 -10 -4 -20l-49 -105h-37l26 78q-11 2 -23.5 14t-12.5 33t14.5 35.5t35.5 14.5
t35.5 -14.5t14.5 -35.5z" />
    <glyph glyph-name="rcommaaccent" unicode="&#x157;" horiz-adv-x="256" 
d="M243 402h-98q-22 0 -22 -22v-380h-68v470h68v-45q15 45 72 45h48v-68zM201 -75q0 -10 -4 -20l-49 -105h-37l26 78q-11 2 -23.5 14t-12.5 33t14.5 35.5t35.5 14.5t35.5 -14.5t14.5 -35.5z" />
    <glyph glyph-name="Rcaron" unicode="&#x158;" horiz-adv-x="435" 
d="M305 600q0 25 -25 25h-150v-257h150q25 0 25 25v207zM380 393q0 -35 -20 -61t-52 -35l71 -297h-80l-64 293h-105v-293h-75v700h225q21 0 39 -8t31.5 -21.5t21.5 -31.5t8 -39v-207zM96 878l36 36l85 -86l85 86l36 -36l-121 -120z" />
    <glyph glyph-name="rcaron" unicode="&#x159;" horiz-adv-x="256" 
d="M243 402h-98q-22 0 -22 -22v-380h-68v470h68v-45q15 45 72 45h48v-68zM30 648l36 36l85 -86l85 86l36 -36l-121 -120z" />
    <glyph glyph-name="Sacute" unicode="&#x15a;" horiz-adv-x="435" 
d="M305 200q0 21 -12 33l-204 203q-16 15 -25 38t-9 49v77q0 42 29 71t71 29h125q42 0 71 -29t29 -71v-100h-75v100q0 25 -25 25h-125q-25 0 -25 -25v-77q0 -20 12 -32l204 -203q16 -15 25 -38.5t9 -49.5v-100q0 -42 -29 -71t-71 -29h-125q-42 0 -71 29t-29 71v100h75v-100
q0 -11 7 -18t18 -7h125q25 0 25 25v100zM262 918l35 -35l-125 -125l-35 35z" />
    <glyph glyph-name="sacute" unicode="&#x15b;" 
d="M265 148q0 17 -14 24l-141 68q-20 10 -37.5 28t-17.5 50v62q0 37 26.5 63.5t63.5 26.5h98q19 0 35.5 -7t28.5 -19.5t19 -29t7 -34.5v-58h-68v58q0 22 -22 22h-98q-22 0 -22 -22v-53q0 -18 14 -25l141 -68q20 -10 37.5 -28t17.5 -50v-66q0 -18 -7 -34.5t-19 -29
t-28.5 -19.5t-35.5 -7h-98q-37 0 -63.5 26.5t-26.5 63.5v58h68v-58q0 -22 22 -22h98q22 0 22 22v58zM239 688l35 -35l-125 -125l-35 35z" />
    <glyph glyph-name="Scircumflex" unicode="&#x15c;" horiz-adv-x="435" 
d="M305 200q0 21 -12 33l-204 203q-16 15 -25 38t-9 49v77q0 42 29 71t71 29h125q42 0 71 -29t29 -71v-100h-75v100q0 25 -25 25h-125q-25 0 -25 -25v-77q0 -20 12 -32l204 -203q16 -15 25 -38.5t9 -49.5v-100q0 -42 -29 -71t-71 -29h-125q-42 0 -71 29t-29 71v100h75v-100
q0 -11 7 -18t18 -7h125q25 0 25 25v100zM338 794l-36 -36l-85 86l-85 -86l-36 36l121 120z" />
    <glyph glyph-name="scircumflex" unicode="&#x15d;" 
d="M265 148q0 17 -14 24l-141 68q-20 10 -37.5 28t-17.5 50v62q0 37 26.5 63.5t63.5 26.5h98q19 0 35.5 -7t28.5 -19.5t19 -29t7 -34.5v-58h-68v58q0 22 -22 22h-98q-22 0 -22 -22v-53q0 -18 14 -25l141 -68q20 -10 37.5 -28t17.5 -50v-66q0 -18 -7 -34.5t-19 -29
t-28.5 -19.5t-35.5 -7h-98q-37 0 -63.5 26.5t-26.5 63.5v58h68v-58q0 -22 22 -22h98q22 0 22 22v58zM315 564l-36 -36l-85 86l-85 -86l-36 36l121 120z" />
    <glyph glyph-name="Scedilla" unicode="&#x15e;" horiz-adv-x="435" 
d="M285 -115q0 -16 -11.5 -28t-27.5 -12h-97v50h86v30h-61v75h-19q-42 0 -71 29t-29 71v100h75v-100q0 -11 7 -18t18 -7h125q25 0 25 25v100q0 21 -12 33l-204 203q-16 15 -25 38t-9 49v77q0 42 29 71t71 29h125q42 0 71 -29t29 -71v-100h-75v100q0 25 -25 25h-125
q-25 0 -25 -25v-77q0 -20 12 -32l204 -203q16 -15 25 -38.5t9 -49.5v-100q0 -42 -29 -71t-71 -29h-56v-30h61v-85z" />
    <glyph glyph-name="scedilla" unicode="&#x15f;" 
d="M333 90q0 -18 -7 -34.5t-19 -29t-28.5 -19.5t-35.5 -7h-42v-30h61v-85q0 -16 -11.5 -28t-27.5 -12h-97v50h86v30h-61v75h-6q-37 0 -63.5 26.5t-26.5 63.5v58h68v-58q0 -22 22 -22h98q22 0 22 22v58q0 17 -14 24l-141 68q-20 10 -37.5 28t-17.5 50v62q0 37 26.5 63.5
t63.5 26.5h98q19 0 35.5 -7t28.5 -19.5t19 -29t7 -34.5v-58h-68v58q0 22 -22 22h-98q-22 0 -22 -22v-53q0 -18 14 -25l141 -68q20 -10 37.5 -28t17.5 -50v-66z" />
    <glyph glyph-name="Scaron" unicode="&#x160;" horiz-adv-x="435" 
d="M305 200q0 21 -12 33l-204 203q-16 15 -25 38t-9 49v77q0 42 29 71t71 29h125q42 0 71 -29t29 -71v-100h-75v100q0 25 -25 25h-125q-25 0 -25 -25v-77q0 -20 12 -32l204 -203q16 -15 25 -38.5t9 -49.5v-100q0 -42 -29 -71t-71 -29h-125q-42 0 -71 29t-29 71v100h75v-100
q0 -11 7 -18t18 -7h125q25 0 25 25v100zM96 878l36 36l85 -86l85 86l36 -36l-121 -120z" />
    <glyph glyph-name="scaron" unicode="&#x161;" 
d="M265 148q0 17 -14 24l-141 68q-20 10 -37.5 28t-17.5 50v62q0 37 26.5 63.5t63.5 26.5h98q19 0 35.5 -7t28.5 -19.5t19 -29t7 -34.5v-58h-68v58q0 22 -22 22h-98q-22 0 -22 -22v-53q0 -18 14 -25l141 -68q20 -10 37.5 -28t17.5 -50v-66q0 -18 -7 -34.5t-19 -29
t-28.5 -19.5t-35.5 -7h-98q-37 0 -63.5 26.5t-26.5 63.5v58h68v-58q0 -22 22 -22h98q22 0 22 22v58zM73 648l36 36l85 -86l85 86l36 -36l-121 -120z" />
    <glyph glyph-name="Tcommaaccent" unicode="&#x162;" horiz-adv-x="385" 
d="M355 625h-125v-625h-75v625h-125v75h325v-75zM244 -75q0 -10 -4 -20l-49 -105h-37l26 78q-11 2 -23.5 14t-12.5 33t14.5 35.5t35.5 14.5t35.5 -14.5t14.5 -35.5z" />
    <glyph glyph-name="tcommaaccent" unicode="&#x163;" horiz-adv-x="269" 
d="M242 0h-68q-37 0 -63.5 26.5t-26.5 63.5v312h-70v68h70v140h68v-140h90v-68h-90v-312q0 -22 22 -22h68v-68zM170 -75q0 -10 -4 -20l-49 -105h-37l26 78q-11 2 -23.5 14t-12.5 33t14.5 35.5t35.5 14.5t35.5 -14.5t14.5 -35.5z" />
    <glyph glyph-name="Tcaron" unicode="&#x164;" horiz-adv-x="385" 
d="M355 625h-125v-625h-75v625h-125v75h325v-75zM73 878l36 36l85 -86l85 86l36 -36l-121 -120z" />
    <glyph glyph-name="tcaron" unicode="&#x165;" horiz-adv-x="269" 
d="M242 0h-68q-37 0 -63.5 26.5t-26.5 63.5v312h-70v68h70v140h68v-140h90v-68h-90v-312q0 -22 22 -22h68v-68zM275 660q0 -10 -4 -20l-56 -120h-35l31 93q-11 2 -23.5 14t-12.5 33t14.5 35.5t35.5 14.5t35.5 -14.5t14.5 -35.5z" />
    <glyph glyph-name="Tbar" unicode="&#x166;" horiz-adv-x="385" 
d="M296 325h-66v-325h-75v325h-67v50h67v250h-125v75h325v-75h-125v-250h66v-50z" />
    <glyph glyph-name="tbar" unicode="&#x167;" horiz-adv-x="269" 
d="M232 210h-80v-120q0 -22 22 -22h68v-68h-68q-37 0 -63.5 26.5t-26.5 63.5v120h-60v50h60v142h-70v68h70v140h68v-140h90v-68h-90v-142h80v-50z" />
    <glyph glyph-name="Utilde" unicode="&#x168;" horiz-adv-x="435" 
d="M380 100q0 -42 -29 -71t-71 -29h-125q-42 0 -71 29t-29 71v600h75v-600q0 -25 25 -25h125q25 0 25 25v600h75v-600zM79 822l59 60q7 8 16 11.5t18 3.5q21 0 36 -15l55 -54l58 57l34 -35l-57 -58q-14 -15 -34 -15q-21 0 -36 15l-55 54l-59 -58z" />
    <glyph glyph-name="utilde" unicode="&#x169;" 
d="M333 0h-68v45q-15 -45 -72 -45h-48q-37 0 -63.5 26.5t-26.5 63.5v380h68v-380q0 -22 22 -22h98q22 0 22 22v380h68v-470zM56 592l59 60q7 8 16 11.5t18 3.5q21 0 36 -15l55 -54l58 57l34 -35l-57 -58q-14 -15 -34 -15q-21 0 -36 15l-55 54l-59 -58z" />
    <glyph glyph-name="Umacron" unicode="&#x16a;" horiz-adv-x="435" 
d="M380 100q0 -42 -29 -71t-71 -29h-125q-42 0 -71 29t-29 71v600h75v-600q0 -25 25 -25h125q25 0 25 25v600h75v-600zM321 811h-208v50h208v-50z" />
    <glyph glyph-name="umacron" unicode="&#x16b;" 
d="M333 0h-68v45q-15 -45 -72 -45h-48q-37 0 -63.5 26.5t-26.5 63.5v380h68v-380q0 -22 22 -22h98q22 0 22 22v380h68v-470zM298 581h-208v50h208v-50z" />
    <glyph glyph-name="Ubreve" unicode="&#x16c;" horiz-adv-x="435" 
d="M380 100q0 -42 -29 -71t-71 -29h-125q-42 0 -71 29t-29 71v600h75v-600q0 -25 25 -25h125q25 0 25 25v600h75v-600zM217 850q26 0 48.5 9.5t37.5 24.5l34 -37q-23 -21 -54 -34t-66 -13t-66 13t-54 34l34 37q15 -15 37.5 -24.5t48.5 -9.5z" />
    <glyph glyph-name="ubreve" unicode="&#x16d;" 
d="M333 0h-68v45q-15 -45 -72 -45h-48q-37 0 -63.5 26.5t-26.5 63.5v380h68v-380q0 -22 22 -22h98q22 0 22 22v380h68v-470zM194 620q26 0 48.5 9.5t37.5 24.5l34 -37q-23 -21 -54 -34t-66 -13t-66 13t-54 34l34 37q15 -15 37.5 -24.5t48.5 -9.5z" />
    <glyph glyph-name="Uring" unicode="&#x16e;" horiz-adv-x="435" 
d="M380 100q0 -42 -29 -71t-71 -29h-125q-42 0 -71 29t-29 71v600h75v-600q0 -25 25 -25h125q25 0 25 25v600h75v-600zM177 827q0 -17 12 -29t29 -12t29 12t12 29t-12 29t-29 12t-29 -12t-12 -29zM295 827q0 -32 -22.5 -55t-54.5 -23t-55 23t-23 55t23 54.5t55 22.5
t54.5 -22.5t22.5 -54.5z" />
    <glyph glyph-name="uring" unicode="&#x16f;" 
d="M333 0h-68v45q-15 -45 -72 -45h-48q-37 0 -63.5 26.5t-26.5 63.5v380h68v-380q0 -22 22 -22h98q22 0 22 22v380h68v-470zM154 597q0 -17 12 -29t29 -12t29 12t12 29t-12 29t-29 12t-29 -12t-12 -29zM272 597q0 -32 -22.5 -55t-54.5 -23t-55 23t-23 55t23 54.5t55 22.5
t54.5 -22.5t22.5 -54.5z" />
    <glyph glyph-name="Uhungarumlaut" unicode="&#x170;" horiz-adv-x="435" 
d="M380 100q0 -42 -29 -71t-71 -29h-125q-42 0 -71 29t-29 71v600h75v-600q0 -25 25 -25h125q25 0 25 25v600h75v-600zM287 929l45 -19l-69 -163l-45 19zM172 929l45 -19l-69 -163l-45 19z" />
    <glyph glyph-name="uhungarumlaut" unicode="&#x171;" 
d="M333 0h-68v45q-15 -45 -72 -45h-48q-37 0 -63.5 26.5t-26.5 63.5v380h68v-380q0 -22 22 -22h98q22 0 22 22v380h68v-470zM264 699l45 -19l-69 -163l-45 19zM149 699l45 -19l-69 -163l-45 19z" />
    <glyph glyph-name="Uogonek" unicode="&#x172;" horiz-adv-x="435" 
d="M380 100q0 -23 -9 -41t-19 -28l-93 -93v-43h62v-50h-63q-20 0 -34.5 15t-14.5 35v28q0 8 3.5 17.5t11.5 17.5l43 42h-112q-42 0 -71 29t-29 71v600h75v-600q0 -25 25 -25h125q25 0 25 25v600h75v-600z" />
    <glyph glyph-name="uogonek" unicode="&#x173;" 
d="M221 -77q0 8 3.5 17.5t11.5 17.5l44 42h-15v45q-15 -45 -72 -45h-48q-37 0 -63.5 26.5t-26.5 63.5v380h68v-380q0 -22 22 -22h98q22 0 22 22v380h68v-470l-62 -62v-43h62v-50h-63q-20 0 -34.5 15t-14.5 35v28z" />
    <glyph glyph-name="Wcircumflex" unicode="&#x174;" horiz-adv-x="639" 
d="M622 700l-120 -700h-96l-87 506l-86 -506h-96l-120 700h75l97 -578l97 578h68l96 -578l99 578h73zM440 794l-36 -36l-85 86l-85 -86l-36 36l121 120z" />
    <glyph glyph-name="wcircumflex" unicode="&#x175;" horiz-adv-x="520" 
d="M503 470l-98 -470h-80l-65 311l-65 -311h-80l-98 470h71l73 -371l74 371h50l74 -371l73 371h71zM381 564l-36 -36l-85 86l-85 -86l-36 36l121 120z" />
    <glyph glyph-name="Ycircumflex" unicode="&#x176;" horiz-adv-x="384" 
d="M379 700l-151 -430v-270h-74v270l-149 430h79l108 -345l109 345h78zM315 794l-36 -36l-85 86l-85 -86l-36 36l121 120z" />
    <glyph glyph-name="ycircumflex" unicode="&#x177;" horiz-adv-x="363" 
d="M346 470l-174 -620h-74l47 150l-128 470h70l94 -374l94 374h71zM304 564l-36 -36l-85 86l-85 -86l-36 36l121 120z" />
    <glyph glyph-name="Ydieresis" unicode="&#x178;" horiz-adv-x="384" 
d="M379 700l-151 -430v-270h-74v270l-149 430h79l108 -345l109 345h78zM219 838q0 19 13.5 32.5t32.5 13.5t32.5 -13.5t13.5 -32.5t-13.5 -32.5t-32.5 -13.5t-32.5 13.5t-13.5 32.5zM77 838q0 19 13.5 32.5t32.5 13.5t32.5 -13.5t13.5 -32.5t-13.5 -32.5t-32.5 -13.5
t-32.5 13.5t-13.5 32.5z" />
    <glyph glyph-name="Zacute" unicode="&#x179;" horiz-adv-x="393" 
d="M363 0h-333v75l242 550h-234v75h317v-75l-243 -550h251v-75zM241 918l35 -35l-125 -125l-35 35z" />
    <glyph glyph-name="zacute" unicode="&#x17a;" horiz-adv-x="332" 
d="M305 0h-278v68l191 334h-183v68h263v-68l-189 -334h196v-68zM213 688l35 -35l-125 -125l-35 35z" />
    <glyph glyph-name="Zdotaccent" unicode="&#x17b;" horiz-adv-x="393" 
d="M363 0h-333v75l242 550h-234v75h317v-75l-243 -550h251v-75zM150 838q0 19 13.5 32.5t32.5 13.5t32.5 -13.5t13.5 -32.5t-13.5 -32.5t-32.5 -13.5t-32.5 13.5t-13.5 32.5z" />
    <glyph glyph-name="zdotaccent" unicode="&#x17c;" horiz-adv-x="332" 
d="M305 0h-278v68l191 334h-183v68h263v-68l-189 -334h196v-68zM122 608q0 19 13.5 32.5t32.5 13.5t32.5 -13.5t13.5 -32.5t-13.5 -32.5t-32.5 -13.5t-32.5 13.5t-13.5 32.5z" />
    <glyph glyph-name="Zcaron" unicode="&#x17d;" horiz-adv-x="393" 
d="M363 0h-333v75l242 550h-234v75h317v-75l-243 -550h251v-75zM75 878l36 36l85 -86l85 86l36 -36l-121 -120z" />
    <glyph glyph-name="zcaron" unicode="&#x17e;" horiz-adv-x="332" 
d="M305 0h-278v68l191 334h-183v68h263v-68l-189 -334h196v-68zM47 648l36 36l85 -86l85 86l36 -36l-121 -120z" />
    <glyph glyph-name="florin" unicode="&#x192;" horiz-adv-x="296" 
d="M108 316h-90v68h90v226q0 18 7 34.5t19 29t28.5 19.5t35.5 7h68v-68h-68q-22 0 -22 -22v-226h90v-68h-90v-376q0 -18 -7 -34.5t-19 -29t-28.5 -19.5t-35.5 -7h-68v68h68q22 0 22 22v376z" />
    <glyph glyph-name="Scommaaccent" unicode="&#x218;" horiz-adv-x="435" 
d="M305 200q0 21 -12 33l-204 203q-16 15 -25 38t-9 49v77q0 42 29 71t71 29h125q42 0 71 -29t29 -71v-100h-75v100q0 25 -25 25h-125q-25 0 -25 -25v-77q0 -20 12 -32l204 -203q16 -15 25 -38.5t9 -49.5v-100q0 -42 -29 -71t-71 -29h-125q-42 0 -71 29t-29 71v100h75v-100
q0 -11 7 -18t18 -7h125q25 0 25 25v100zM267 -75q0 -10 -4 -20l-49 -105h-37l26 78q-11 2 -23.5 14t-12.5 33t14.5 35.5t35.5 14.5t35.5 -14.5t14.5 -35.5z" />
    <glyph glyph-name="scommaaccent" unicode="&#x219;" 
d="M265 148q0 17 -14 24l-141 68q-20 10 -37.5 28t-17.5 50v62q0 37 26.5 63.5t63.5 26.5h98q19 0 35.5 -7t28.5 -19.5t19 -29t7 -34.5v-58h-68v58q0 22 -22 22h-98q-22 0 -22 -22v-53q0 -18 14 -25l141 -68q20 -10 37.5 -28t17.5 -50v-66q0 -18 -7 -34.5t-19 -29
t-28.5 -19.5t-35.5 -7h-98q-37 0 -63.5 26.5t-26.5 63.5v58h68v-58q0 -22 22 -22h98q22 0 22 22v58zM244 -75q0 -10 -4 -20l-49 -105h-37l26 78q-11 2 -23.5 14t-12.5 33t14.5 35.5t35.5 14.5t35.5 -14.5t14.5 -35.5z" />
    <glyph glyph-name="uni021A" unicode="&#x21a;" horiz-adv-x="385" 
d="M355 625h-125v-625h-75v625h-125v75h325v-75zM244 -75q0 -10 -4 -20l-49 -105h-37l26 78q-11 2 -23.5 14t-12.5 33t14.5 35.5t35.5 14.5t35.5 -14.5t14.5 -35.5z" />
    <glyph glyph-name="uni021B" unicode="&#x21b;" horiz-adv-x="269" 
d="M242 0h-68q-37 0 -63.5 26.5t-26.5 63.5v312h-70v68h70v140h68v-140h90v-68h-90v-312q0 -22 22 -22h68v-68zM170 -75q0 -10 -4 -20l-49 -105h-37l26 78q-11 2 -23.5 14t-12.5 33t14.5 35.5t35.5 14.5t35.5 -14.5t14.5 -35.5z" />
    <glyph glyph-name="circumflex" unicode="&#x2c6;" 
d="M315 564l-36 -36l-85 86l-85 -86l-36 36l121 120z" />
    <glyph glyph-name="caron" unicode="&#x2c7;" 
d="M73 648l36 36l85 -86l85 86l36 -36l-121 -120z" />
    <glyph glyph-name="uni02C9" unicode="&#x2c9;" 
d="M298 581h-208v50h208v-50z" />
    <glyph glyph-name="breve" unicode="&#x2d8;" 
d="M194 620q26 0 48.5 9.5t37.5 24.5l34 -37q-23 -21 -54 -34t-66 -13t-66 13t-54 34l34 37q15 -15 37.5 -24.5t48.5 -9.5z" />
    <glyph glyph-name="dotaccent" unicode="&#x2d9;" 
d="M148 608q0 19 13.5 32.5t32.5 13.5t32.5 -13.5t13.5 -32.5t-13.5 -32.5t-32.5 -13.5t-32.5 13.5t-13.5 32.5z" />
    <glyph glyph-name="ring" unicode="&#x2da;" 
d="M154 597q0 -17 12 -29t29 -12t29 12t12 29t-12 29t-29 12t-29 -12t-12 -29zM272 597q0 -32 -22.5 -55t-54.5 -23t-55 23t-23 55t23 54.5t55 22.5t54.5 -22.5t22.5 -54.5z" />
    <glyph glyph-name="ogonek" unicode="&#x2db;" 
d="M138 -77q0 8 3.5 17.5t11.5 17.5l44 42h53l-62 -62v-43h62v-50h-63q-20 0 -34.5 15t-14.5 35v28z" />
    <glyph glyph-name="tilde" unicode="&#x2dc;" 
d="M56 592l59 60q7 8 16 11.5t18 3.5q21 0 36 -15l55 -54l58 57l34 -35l-57 -58q-14 -15 -34 -15q-21 0 -36 15l-55 54l-59 -58z" />
    <glyph glyph-name="hungarumlaut" unicode="&#x2dd;" 
d="M264 699l45 -19l-69 -163l-45 19zM149 699l45 -19l-69 -163l-45 19z" />
    <glyph glyph-name="Delta" unicode="&#x394;" horiz-adv-x="425" 
d="M108 75h208l-104 508zM167 700h91l150 -700h-391z" />
    <glyph glyph-name="Omega" unicode="&#x3a9;" horiz-adv-x="434" 
d="M242 0v223h38q25 0 25 25v352q0 25 -25 25h-126q-25 0 -25 -25v-352q0 -25 25 -25h39v-223h-138v75h99v73q-20 0 -38 8t-31.5 21.5t-21.5 31.5t-8 39v352q0 21 8 39t21.5 31.5t31.5 21.5t38 8h125q42 0 71 -29t29 -71v-352q0 -42 -29 -71t-71 -29v-73h100v-75h-137z" />
    <glyph glyph-name="mu" unicode="&#x3bc;" 
d="M55 -150v620h68v-380q0 -22 22 -22h98q22 0 22 22v380h68v-470h-68v45q-15 -45 -70 -45q-57 0 -72 45v-195h-68z" />
    <glyph glyph-name="pi" unicode="&#x3c0;" 
d="M333 0h-68v402h-142v-402h-68v470h278v-470z" />
    <glyph glyph-name="endash" unicode="&#x2013;" horiz-adv-x="438" 
d="M408 201h-378v68h378v-68z" />
    <glyph glyph-name="emdash" unicode="&#x2014;" horiz-adv-x="642" 
d="M612 201h-582v68h582v-68z" />
    <glyph glyph-name="quoteleft" unicode="&#x2018;" horiz-adv-x="186" 
d="M43 560q0 10 4 20l56 120h35l-31 -93q11 -2 23.5 -14t12.5 -33t-14.5 -35.5t-35.5 -14.5t-35.5 14.5t-14.5 35.5z" />
    <glyph glyph-name="quoteright" unicode="&#x2019;" horiz-adv-x="186" 
d="M143 660q0 -10 -4 -20l-56 -120h-35l31 93q-11 2 -23.5 14t-12.5 33t14.5 35.5t35.5 14.5t35.5 -14.5t14.5 -35.5z" />
    <glyph glyph-name="quotesinglbase" unicode="&#x201a;" horiz-adv-x="182" 
d="M141 40q0 -10 -4 -20l-56 -120h-35l31 93q-11 2 -23.5 14t-12.5 33t14.5 35.5t35.5 14.5t35.5 -14.5t14.5 -35.5z" />
    <glyph glyph-name="quotedblleft" unicode="&#x201c;" horiz-adv-x="322" 
d="M179 560q0 10 4 20l56 120h35l-31 -93q11 -2 23.5 -14t12.5 -33t-14.5 -35.5t-35.5 -14.5t-35.5 14.5t-14.5 35.5zM43 560q0 10 4 20l56 120h35l-31 -93q11 -2 23.5 -14t12.5 -33t-14.5 -35.5t-35.5 -14.5t-35.5 14.5t-14.5 35.5z" />
    <glyph glyph-name="quotedblright" unicode="&#x201d;" horiz-adv-x="322" 
d="M143 660q0 -10 -4 -20l-56 -120h-35l31 93q-11 2 -23.5 14t-12.5 33t14.5 35.5t35.5 14.5t35.5 -14.5t14.5 -35.5zM279 660q0 -10 -4 -20l-56 -120h-35l31 93q-11 2 -23.5 14t-12.5 33t14.5 35.5t35.5 14.5t35.5 -14.5t14.5 -35.5z" />
    <glyph glyph-name="quotedblbase" unicode="&#x201e;" horiz-adv-x="318" 
d="M141 40q0 -10 -4 -20l-56 -120h-35l31 93q-11 2 -23.5 14t-12.5 33t14.5 35.5t35.5 14.5t35.5 -14.5t14.5 -35.5zM277 40q0 -10 -4 -20l-56 -120h-35l31 93q-11 2 -23.5 14t-12.5 33t14.5 35.5t35.5 14.5t35.5 -14.5t14.5 -35.5z" />
    <glyph glyph-name="dagger" unicode="&#x2020;" horiz-adv-x="339" 
d="M310 536h-117v-336h-47v336h-117v47h117v117h47v-117h117v-47z" />
    <glyph glyph-name="daggerdbl" unicode="&#x2021;" horiz-adv-x="339" 
d="M29 364h117v172h-117v47h117v117h47v-117h117v-47h-117v-172h117v-47h-117v-117h-47v117h-117v47z" />
    <glyph glyph-name="bullet" unicode="&#x2022;" horiz-adv-x="380" 
d="M334 235q0 -30 -11.5 -56.5t-31 -46t-45.5 -31t-56 -11.5t-56.5 11.5t-46 31t-30.5 46t-11 56.5t11 56.5t30.5 46t46 31t56.5 11.5t56 -11.5t45.5 -31t31 -46t11.5 -56.5z" />
    <glyph glyph-name="ellipsis" unicode="&#x2026;" horiz-adv-x="570" 
d="M425 40q0 21 14.5 35.5t35.5 14.5t35.5 -14.5t14.5 -35.5t-14.5 -35.5t-35.5 -14.5t-35.5 14.5t-14.5 35.5zM235 40q0 21 14.5 35.5t35.5 14.5t35.5 -14.5t14.5 -35.5t-14.5 -35.5t-35.5 -14.5t-35.5 14.5t-14.5 35.5zM45 40q0 21 14.5 35.5t35.5 14.5t35.5 -14.5
t14.5 -35.5t-14.5 -35.5t-35.5 -14.5t-35.5 14.5t-14.5 35.5z" />
    <glyph glyph-name="perthousand" unicode="&#x2030;" horiz-adv-x="893" 
d="M838 67q0 -28 -20 -47.5t-48 -19.5h-73q-28 0 -48 19.5t-20 47.5v217q0 28 20 47.5t48 19.5h73q28 0 48 -19.5t20 -47.5v-217zM786 284q0 16 -16 16h-73q-16 0 -16 -16v-217q0 -7 4.5 -12t11.5 -5h73q7 0 11.5 5t4.5 12v217zM574 67q0 -28 -20 -47.5t-48 -19.5h-73
q-28 0 -48 19.5t-20 47.5v217q0 28 20 47.5t48 19.5h73q28 0 48 -19.5t20 -47.5v-217zM522 284q0 16 -16 16h-73q-16 0 -16 -16v-217q0 -7 4.5 -12t11.5 -5h73q7 0 11.5 5t4.5 12v217zM264 416q0 -28 -20 -47.5t-48 -19.5h-73q-28 0 -48 19.5t-20 47.5v217q0 28 20 47.5
t48 19.5h73q28 0 48 -19.5t20 -47.5v-217zM454 700l-231 -700h-48l232 700h47zM212 633q0 16 -16 16h-73q-16 0 -16 -16v-217q0 -7 4.5 -12t11.5 -5h73q7 0 11.5 5t4.5 12v217z" />
    <glyph glyph-name="guilsinglleft" unicode="&#x2039;" horiz-adv-x="217" 
d="M186 150l-34 -36l-121 121l121 121l34 -36l-85 -85z" />
    <glyph glyph-name="guilsinglright" unicode="&#x203a;" horiz-adv-x="217" 
d="M31 320l34 36l121 -121l-121 -121l-34 36l85 85z" />
    <glyph glyph-name="fraction" unicode="&#x2044;" horiz-adv-x="74" 
d="M179 700l-232 -700h-53l232 700h53z" />
    <glyph glyph-name="Euro" unicode="&#x20ac;" horiz-adv-x="461" 
d="M31 459h50v141q0 42 29 71t71 29h125q42 0 71 -29t29 -71v-88h-75v88q0 25 -25 25h-125q-25 0 -25 -25v-141h137v-75h-137v-71h137v-75h-137v-138q0 -25 25 -25h125q25 0 25 25v88h75v-88q0 -42 -29 -71t-71 -29h-125q-42 0 -71 29t-29 71v138h-50v75h50v71h-50v75z" />
    <glyph glyph-name="afii61289" unicode="&#x2113;" horiz-adv-x="434" 
d="M44 138q-14 13 -25.5 34t-11.5 56q12 6 19.5 9t13 5t9.5 4l10 5q4 70 22.5 132.5t44.5 114.5t57.5 91t61.5 63q20 16 41 23.5t41 7.5q40 0 68 -31t28 -94q0 -49 -21 -95t-53.5 -88t-73 -80.5t-79.5 -71.5q0 -5 -0.5 -9.5t-0.5 -9.5q0 -46 12 -71.5t30 -25.5q17 0 36.5 26
t36.5 84q12 3 26 3q19 0 37.5 -7.5t30.5 -26.5q-7 -37 -22 -72t-37.5 -62t-52 -43.5t-64.5 -16.5q-22 0 -46.5 9.5t-47 29t-40.5 48t-28 67.5zM199 341q29 24 52.5 54.5t40 60.5t25.5 57t9 45q0 26 -11 26q-7 0 -15 -11q-9 -12 -22.5 -34.5t-28 -52.5t-28 -66.5t-22.5 -78.5
z" />
    <glyph glyph-name="trademark" unicode="&#x2122;" horiz-adv-x="437" 
d="M385 420h-30v211l-53 -178h-12l-53 178v-211h-30v280h41l48 -165l48 165h41v-280zM157 670h-50v-250h-30v250h-50v30h130v-30z" />
    <glyph glyph-name="uni2126" unicode="&#x2126;" horiz-adv-x="434" 
d="M242 0v223h38q25 0 25 25v352q0 25 -25 25h-126q-25 0 -25 -25v-352q0 -25 25 -25h39v-223h-138v75h99v73q-20 0 -38 8t-31.5 21.5t-21.5 31.5t-8 39v352q0 21 8 39t21.5 31.5t31.5 21.5t38 8h125q42 0 71 -29t29 -71v-352q0 -42 -29 -71t-71 -29v-73h100v-75h-137z" />
    <glyph glyph-name="estimated" unicode="&#x212e;" horiz-adv-x="763" 
d="M539 386q5 0 9 6q2 3 3 6q0 49 -16 79.5t-42 51.5q-25 20 -54.5 27t-57.5 7q-27 0 -55 -8.5t-52 -27.5q-27 -21 -45 -55.5t-18 -85.5h328zM731 295h-520v-37q0 -42 12 -72.5t32 -51.5q26 -28 60 -40.5t66 -12.5q44 0 82 8.5t68 27.5t53 50t37 76q16 6 35 6q16 0 31 -5.5
t26 -16.5q-3 -35 -24 -76.5t-62.5 -77.5t-102.5 -60t-143 -24q-78 0 -142 29t-110 76t-71.5 106.5t-25.5 121.5q0 61 25.5 121t71.5 107t110 76t142 29t142 -29t110.5 -76.5t72 -107.5t25.5 -121v-26z" />
    <glyph glyph-name="partialdiff" unicode="&#x2202;" 
d="M333 90q0 -38 -26 -64t-64 -26h-98q-18 0 -34.5 7t-29 19t-19.5 28.5t-7 35.5v290q0 37 26.5 63.5t63.5 26.5h48q57 0 72 -45v185q0 22 -22 22h-68v68h68q19 0 35.5 -7t28.5 -19.5t19 -29t7 -34.5v-520zM265 380q0 22 -22 22h-98q-22 0 -22 -22v-290q0 -22 22 -22h98
q22 0 22 22v290z" />
    <glyph glyph-name="uni2206" unicode="&#x2206;" horiz-adv-x="425" 
d="M108 75h208l-104 508zM167 700h91l150 -700h-391z" />
    <glyph glyph-name="product" unicode="&#x220f;" horiz-adv-x="435" 
d="M380 0h-75v625h-175v-625h-75v700h325v-700z" />
    <glyph glyph-name="summation" unicode="&#x2211;" horiz-adv-x="414" 
d="M387 0h-332v75l161 275l-161 275v75h317v-75h-241l161 -275l-161 -275h256v-75z" />
    <glyph glyph-name="minus" unicode="&#x2212;" horiz-adv-x="460" 
d="M30 201v67h400v-67h-400z" />
    <glyph glyph-name="uni2215" unicode="&#x2215;" horiz-adv-x="307" 
d="M293 800l-231 -951h-48l232 951h47z" />
    <glyph glyph-name="uni2219" unicode="&#x2219;" horiz-adv-x="190" 
d="M45 235q0 21 14.5 35.5t35.5 14.5t35.5 -14.5t14.5 -35.5t-14.5 -35.5t-35.5 -14.5t-35.5 14.5t-14.5 35.5z" />
    <glyph glyph-name="radical" unicode="&#x221a;" horiz-adv-x="493" 
d="M493 700l-175 -700h-94l-73 292h-121v67h175l66 -281l151 622h71z" />
    <glyph glyph-name="infinity" unicode="&#x221e;" horiz-adv-x="640" 
d="M215 155q14 0 24 2.5t16 14.5l31 62l-31 63q-6 12 -16 14.5t-24 2.5h-60q-32 0 -32 -32v-95q0 -32 32 -32h60zM485 155q32 0 32 32v95q0 32 -32 32h-61q-14 0 -24 -2.5t-16 -14.5l-32 -63l32 -62q6 -12 16 -14.5t24 -2.5h61zM424 87q-37 0 -58.5 17t-35.5 44l-11 21
l-10 -21q-14 -27 -35.5 -44t-58.5 -17h-60q-42 0 -71 29t-29 71v95q0 42 29 71t71 29h60q37 0 58.5 -17t35.5 -44l10 -21l11 21q14 27 35.5 44t58.5 17h61q42 0 71 -29t29 -71v-95q0 -42 -29 -71t-71 -29h-61z" />
    <glyph glyph-name="integral" unicode="&#x222b;" horiz-adv-x="260" 
d="M254 632h-68q-22 0 -22 -22v-670q0 -38 -26 -64t-64 -26h-68v68h68q22 0 22 22v670q0 37 26.5 63.5t63.5 26.5h68v-68z" />
    <glyph glyph-name="approxequal" unicode="&#x2248;" horiz-adv-x="460" 
d="M174 153q-8 8 -16 8q-7 0 -15 -8l-69 -70l-48 49l69 69q27 27 63 27q37 0 64 -27l64 -64q8 -8 16 -8q7 0 15 8l69 70l48 -49l-69 -69q-27 -27 -64 -27q-36 0 -63 27zM174 332q-8 8 -16 8q-7 0 -15 -8l-69 -70l-48 49l69 69q27 27 63 27q37 0 64 -27l64 -64q8 -8 16 -8
q7 0 15 8l69 70l48 -49l-69 -69q-27 -27 -64 -27q-36 0 -63 27z" />
    <glyph glyph-name="notequal" unicode="&#x2260;" horiz-adv-x="460" 
d="M430 291h-154l-38 -113h192v-67h-214l-37 -112h-53l37 112h-133v67h155l38 113h-193v67h215l37 111h53l-37 -111h132v-67z" />
    <glyph glyph-name="lessequal" unicode="&#x2264;" horiz-adv-x="460" 
d="M30 66h338l-338 138v89l400 163v-72l-331 -136l331 -135v-114h-400v67z" />
    <glyph glyph-name="greaterequal" unicode="&#x2265;" horiz-adv-x="460" 
d="M430 -1h-400v114l331 135l-331 136v72l400 -163v-89l-339 -138h339v-67z" />
    <glyph glyph-name="lozenge" unicode="&#x25ca;" horiz-adv-x="460" 
d="M114 351l115 -282l115 280l-116 282zM42 351l142 349h89l143 -351l-142 -349h-89z" />
    <glyph glyph-name="uniF6C3" unicode="&#xf6c3;" 
d="M244 -75q0 -10 -4 -20l-49 -105h-37l26 78q-11 2 -23.5 14t-12.5 33t14.5 35.5t35.5 14.5t35.5 -14.5t14.5 -35.5z" />
    <glyph glyph-name="uniFB01" unicode="&#xfb01;" horiz-adv-x="432" 
d="M298 608q0 19 13.5 32.5t32.5 13.5t32.5 -13.5t13.5 -32.5t-13.5 -32.5t-32.5 -13.5t-32.5 13.5t-13.5 32.5zM377 0h-68v402h-157v-402h-68v402h-70v68h70v140q0 18 7 34.5t19 29t28.5 19.5t35.5 7h68v-68h-68q-22 0 -22 -22v-140h225v-470z" />
    <glyph glyph-name="uniFB02" unicode="&#xfb02;" horiz-adv-x="432" 
d="M377 0h-68v632h-135q-22 0 -22 -22v-140h90v-68h-90v-402h-68v402h-70v68h70v140q0 18 7 34.5t19 29t28.5 19.5t35.5 7h203v-700z" />
    <glyph glyph-name="glyph329" horiz-adv-x="305" 
d="M105 55h145v-55h-200v80q0 31 17 53l128 163q5 6 5 20v39q0 10 -10 10h-75q-10 0 -10 -10v-54h-55v54q0 29 18 47t47 18h75q29 0 47 -18t18 -47v-39q0 -31 -17 -53l-128 -163q-5 -6 -5 -20v-25z" />
    <glyph glyph-name="glyph330" horiz-adv-x="294" 
d="M257 92h-30v-92h-55v92h-135v51l132 277h58v-273h30v-55zM172 147v172l-78 -172h78z" />
    <glyph glyph-name="glyph360" 
d="M144 575q0 10 4 20l49 105h37l-26 -78q11 -2 23.5 -14t12.5 -33t-14.5 -35.5t-35.5 -14.5t-35.5 14.5t-14.5 35.5z" />
    <glyph glyph-name="glyph373" horiz-adv-x="0" 
 />
  </font>
</defs>
</svg>
